<?xml version="1.0" encoding="UTF-8" standalone="no"?>
<!DOCTYPE svg PUBLIC "-//W3C//DTD SVG 1.1//EN" "http://www.w3.org/Graphics/SVG/1.1/DTD/svg11.dtd">
<svg xmlns="http://www.w3.org/2000/svg" version="1.1" viewBox="0.00 0.00 704.00 194.00">
<g stroke-width="2.00" fill="none" stroke-linecap="butt">
<path stroke="#637d6d" vector-effect="non-scaling-stroke" d="
  M 483.33 141.03
  L 501.23 141.00
  A 0.89 0.89 0.0 0 0 502.12 140.11
  L 502.12 28.94
  A 0.96 0.96 0.0 0 0 501.15 27.98
  L 482.91 28.15"
/>
<path stroke="#637d6d" vector-effect="non-scaling-stroke" d="
  M 308.98 37.96
  L 290.04 37.88"
/>
<path stroke="#637d6d" vector-effect="non-scaling-stroke" d="
  M 326.67 59.06
  Q 328.07 59.73 329.51 59.30
  A 1.66 1.66 0.0 0 1 331.64 60.89
  L 331.64 72.24
  A 0.88 0.88 0.0 0 1 330.77 73.12
  Q 318.77 73.19 309.20 73.24
  Q 308.86 73.25 308.77 73.57
  Q 308.71 73.78 308.97 73.97"
/>
<path stroke="#637d6d" vector-effect="non-scaling-stroke" d="
  M 309.17 115.24
  Q 308.79 118.21 309.92 121.15
  C 313.11 129.44 323.93 128.19 329.72 124.22
  A 0.92 0.91 -26.4 0 1 331.10 124.68
  L 334.95 136.24
  A 1.55 1.55 0.0 0 1 334.22 138.09
  C 322.00 144.76 301.70 144.79 293.73 131.52
  C 289.53 124.55 290.75 116.90 290.03 109.54"
/>
<path stroke="#637d6d" vector-effect="non-scaling-stroke" d="
  M 279.55 74.27
  Q 278.71 73.70 278.14 73.78
  A 1.65 1.65 0.0 0 1 276.29 71.94
  Q 277.05 65.83 276.12 60.17"
/>
<path stroke="#637d6d" vector-effect="non-scaling-stroke" d="
  M 43.93 134.65
  L 49.78 138.16
  A 0.67 0.14 12.0 0 1 49.87 138.20
  C 53.68 139.77 56.48 141.18 60.17 141.80
  C 75.14 144.33 91.10 139.92 100.54 127.52
  Q 113.92 109.93 108.29 87.66
  Q 105.96 78.46 98.98 70.44
  C 88.74 58.68 72.12 54.80 57.12 58.30
  Q 54.13 59.00 50.60 60.81
  Q 47.53 62.38 44.43 64.16"
/>
<path stroke="#637d6d" vector-effect="non-scaling-stroke" d="
  M 42.77 133.30
  Q 42.04 131.59 40.77 131.14"
/>
<path stroke="#637d6d" vector-effect="non-scaling-stroke" d="
  M 40.77 131.04
  Q 40.60 129.87 39.80 129.90
  A 0.80 0.80 0.0 0 0 39.04 130.83
  C 39.61 134.45 39.04 138.22 39.18 141.40
  Q 39.80 154.90 39.32 168.71
  C 39.28 169.96 39.91 171.38 39.75 172.92"
/>
<path stroke="#637d6d" vector-effect="non-scaling-stroke" d="
  M 39.75 172.92
  L 19.60 173.33"
/>
<path stroke="#637d6d" vector-effect="non-scaling-stroke" d="
  M 20.35 172.53
  Q 21.33 141.74 20.22 111.02"
/>
<path stroke="#637d6d" vector-effect="non-scaling-stroke" d="
  M 38.02 58.15
  Q 38.11 63.13 38.04 67.90
  Q 38.03 68.87 38.49 69.50
  Q 38.81 69.94 39.27 69.65
  Q 39.69 69.38 39.63 69.02"
/>
<path stroke="#637d6d" vector-effect="non-scaling-stroke" d="
  M 39.78 68.74
  Q 41.54 67.64 42.51 65.81"
/>
<path stroke="#637d6d" vector-effect="non-scaling-stroke" d="
  M 135.21 96.98
  Q 133.00 98.30 130.83 99.72
  C 125.10 103.45 122.15 109.77 121.85 116.55
  Q 121.35 128.20 129.47 135.60
  C 131.90 137.81 137.20 140.31 139.99 141.04
  Q 155.25 145.00 169.04 138.72
  C 171.33 137.68 173.79 136.02 175.50 134.25
  Q 178.02 131.62 178.86 130.97
  A 0.28 0.28 0.0 0 1 179.31 131.20
  L 179.31 139.77
  A 1.36 1.36 0.0 0 0 180.67 141.13
  L 196.38 141.13
  A 0.87 0.87 0.0 0 0 197.25 140.25
  Q 197.02 118.91 197.25 95.75
  Q 197.33 87.44 196.61 82.94
  Q 194.17 67.79 180.49 61.19
  Q 174.97 58.52 168.23 57.90
  Q 148.61 56.08 131.13 64.13
  Q 128.05 65.55 125.99 66.95
  A 0.92 0.92 0.0 0 0 125.68 68.09
  L 131.53 80.80
  A 0.80 0.79 60.7 0 0 132.70 81.13
  Q 142.85 74.29 155.25 73.71
  C 167.27 73.15 178.68 77.46 177.98 91.86"
/>
<path stroke="#637d6d" vector-effect="non-scaling-stroke" d="
  M 135.21 96.98
  Q 144.28 94.11 153.75 93.86
  Q 164.49 93.58 177.13 93.75
  Q 177.61 93.76 177.86 93.35
  Q 178.05 93.06 177.78 92.78"
/>
<path stroke="#637d6d" vector-effect="non-scaling-stroke" d="
  M 451.74 116.82
  Q 447.80 122.50 441.35 124.72
  Q 433.18 127.53 425.45 125.42
  C 416.25 122.90 409.14 114.55 407.70 105.08
  Q 405.41 90.00 415.23 80.27
  C 419.43 76.11 424.50 73.92 430.49 73.55
  Q 442.97 72.78 450.75 81.50
  Q 451.28 82.09 451.91 83.26
  A 1.73 1.73 0.0 0 0 454.30 83.93
  L 466.66 76.80
  A 1.20 1.19 -29.6 0 0 467.11 75.18
  C 460.83 63.99 448.42 58.26 435.98 57.41
  C 411.39 55.73 390.49 70.65 388.61 96.20
  C 386.23 128.44 412.89 147.07 442.76 141.41
  C 452.65 139.53 462.69 133.15 467.36 124.05
  A 1.26 1.26 0.0 0 0 466.79 122.35
  Q 463.81 120.89 454.38 115.95
  Q 453.69 115.59 453.17 115.68
  Q 452.54 115.79 452.08 116.29"
/>
<path stroke="#637d6d" vector-effect="non-scaling-stroke" d="
  M 664.58 116.03
  Q 664.99 116.40 665.06 116.99
  C 665.91 124.33 659.60 127.20 653.27 127.68
  Q 635.17 129.03 620.51 119.17
  A 0.72 0.71 -61.5 0 0 619.45 119.49
  L 614.43 131.43
  A 1.73 1.73 0.0 0 0 615.18 133.60
  Q 636.33 145.47 659.99 141.30
  Q 665.19 140.38 670.49 137.51
  Q 684.18 130.10 683.06 114.22
  C 682.62 108.06 679.36 102.86 673.74 99.61
  Q 668.91 96.81 665.66 96.06
  Q 649.37 92.29 643.05 91.16
  C 639.14 90.46 634.70 88.01 634.13 83.67
  C 633.07 75.48 639.60 72.82 646.49 72.36
  Q 654.24 71.85 659.05 72.90
  Q 667.62 74.76 674.30 78.14
  A 0.83 0.83 0.0 0 0 675.44 77.73
  L 680.57 65.50
  A 1.28 1.28 0.0 0 0 679.91 63.83
  Q 664.59 57.04 648.23 57.36
  C 634.65 57.61 619.14 63.44 616.62 78.62
  Q 614.03 94.23 625.63 101.18
  C 630.18 103.89 636.92 105.62 642.50 106.55
  Q 647.79 107.43 655.02 108.93
  C 658.04 109.55 664.12 111.79 664.48 115.57"
/>
<path stroke="#637d6d" vector-effect="non-scaling-stroke" d="
  M 268.06 57.02
  Q 266.06 57.51 260.94 58.19
  C 254.61 59.04 250.23 62.01 244.14 66.88
  Q 242.96 67.82 241.25 70.70
  A 0.35 0.33 12.5 0 1 240.97 70.87
  Q 240.82 70.88 240.70 70.94"
/>
<path stroke="#637d6d" vector-effect="non-scaling-stroke" d="
  M 270.32 57.30
  Q 269.43 65.21 269.99 72.62
  A 1.65 1.64 88.7 0 1 268.30 74.39
  C 262.49 74.19 256.60 74.81 251.54 77.79
  Q 239.90 84.66 240.07 99.49
  Q 240.35 123.63 240.29 139.98
  A 1.04 1.04 0.0 0 1 239.25 141.02
  L 222.14 141.02
  A 0.64 0.64 0.0 0 1 221.50 140.38
  L 221.09 61.05"
/>
<path stroke="#637d6d" vector-effect="non-scaling-stroke" d="
  M 220.94 58.58
  L 238.50 58.82
  A 0.68 0.67 -89.2 0 1 239.17 59.52
  Q 239.09 62.55 239.38 70.88
  Q 239.40 71.43 239.78 71.66
  Q 240.16 71.90 240.51 71.62
  Q 240.72 71.44 240.70 70.94"
/>
<path stroke="#637d6d" vector-effect="non-scaling-stroke" d="
  M 369.57 58.07
  Q 369.61 58.67 368.50 58.64
  Q 359.19 58.40 352.65 58.39
  A 1.02 1.02 0.0 0 0 351.63 59.41
  L 351.63 139.90
  A 1.09 1.08 90.0 0 0 352.71 140.99
  L 368.94 140.99
  A 1.30 1.30 0.0 0 0 370.24 139.69
  L 370.24 59.17
  A 0.78 0.36 -69.7 0 0 370.23 59.04
  L 369.93 58.11"
/>
<path stroke="#637d6d" vector-effect="non-scaling-stroke" d="
  M 348.8027 31.8920
  A 12.32 11.70 -178.8 0 0 360.8750 43.8474
  A 12.32 11.70 -178.8 0 0 373.4373 32.4080
  A 12.32 11.70 -178.8 0 0 361.3650 20.4526
  A 12.32 11.70 -178.8 0 0 348.8027 31.8920"
/>
<path stroke="#637d6d" vector-effect="non-scaling-stroke" d="
  M 539.81 106.09
  L 602.71 106.09
  A 1.32 1.32 0.0 0 0 604.03 104.87
  C 605.38 87.51 599.04 71.83 583.98 62.70
  Q 576.61 58.23 566.36 57.51
  Q 550.83 56.40 538.35 64.54
  Q 521.26 75.69 520.43 96.04
  C 520.24 100.60 520.18 106.01 521.20 110.26
  C 525.09 126.36 537.59 138.67 554.05 141.42
  C 565.21 143.29 575.71 142.63 586.27 137.75
  C 590.98 135.59 594.08 132.60 597.82 128.84
  A 0.99 0.99 0.0 0 0 597.82 127.44
  L 588.32 117.94
  A 0.86 0.86 0.0 0 0 587.04 118.01
  C 582.88 123.29 574.56 126.61 568.67 126.73
  Q 563.27 126.83 559.84 126.44
  Q 556.16 126.02 551.47 123.67
  Q 541.41 118.63 539.17 106.87
  A 0.66 0.65 84.5 0 1 539.81 106.09"
/>
<path stroke="#637d6d" vector-effect="non-scaling-stroke" d="
  M 60.7923 73.0095
  A 27.34 26.87 -97.9 0 0 37.9350 103.7831
  A 27.34 26.87 -97.9 0 0 68.3077 127.1705
  A 27.34 26.87 -97.9 0 0 91.1650 96.3969
  A 27.34 26.87 -97.9 0 0 60.7923 73.0095"
/>
<path stroke="#637d6d" vector-effect="non-scaling-stroke" d="
  M 178.08 105.53
  Q 157.45 104.61 150.81 105.56
  C 137.15 107.51 136.91 126.03 150.36 128.10
  C 155.49 128.89 161.64 129.15 166.66 126.96
  C 174.37 123.60 178.83 118.58 177.78 109.78"
/>
<path stroke="#637d6d" vector-effect="non-scaling-stroke" d="
  M 539.13 94.75
  L 585.94 94.35
  A 0.11 0.11 0.0 0 0 586.05 94.23
  L 586.05 94.05
  A 22.82 21.53 -0.5 0 0 563.04 72.72
  L 561.64 72.74
  A 22.82 21.53 -0.5 0 0 539.01 94.46
  L 539.02 94.64
  A 0.11 0.11 0.0 0 0 539.13 94.75"
/>
<path stroke="#535653" vector-effect="non-scaling-stroke" d="
  M 67.11 85.99
  L 74.33 89.54"
/>
<path stroke="#535653" vector-effect="non-scaling-stroke" d="
  M 74.33 89.54
  Q 81.97 99.45 75.19 109.72
  A 4.75 4.68 -4.3 0 1 74.36 110.67
  C 70.03 114.45 63.74 115.97 58.24 113.09
  Q 52.16 109.91 50.75 103.26
  Q 49.55 97.59 53.06 91.42"
/>
<path stroke="#10271a" vector-effect="non-scaling-stroke" d="
  M 55.87 88.68
  Q 57.18 88.52 56.35 88.34"
/>
<path stroke="#535653" vector-effect="non-scaling-stroke" d="
  M 57.59 87.57
  L 63.45 85.82"
/>
</g>
<path fill="#a7aca7" fill-opacity="0.996" d="
  M 348.3626 30.2414
  A 12.98 12.19 -171.5 0 1 363.0018 20.1039
  A 12.98 12.19 -171.5 0 1 374.0374 34.0786
  A 12.98 12.19 -171.5 0 1 359.3982 44.2161
  A 12.98 12.19 -171.5 0 1 348.3626 30.2414
  Z
  M 348.8027 31.8920
  A 12.32 11.70 -178.8 0 0 360.8750 43.8474
  A 12.32 11.70 -178.8 0 0 373.4373 32.4080
  A 12.32 11.70 -178.8 0 0 361.3650 20.4526
  A 12.32 11.70 -178.8 0 0 348.8027 31.8920
  Z"
/>
<ellipse fill="#1f4e33" cx="0.00" cy="0.00" transform="translate(361.12,32.15) rotate(-178.8)" rx="12.32" ry="11.70"/>
<path fill="#a7aca7" fill-opacity="0.996" d="
  M 483.33 141.03
  L 501.23 141.00
  A 0.89 0.89 0.0 0 0 502.12 140.11
  L 502.12 28.94
  A 0.96 0.96 0.0 0 0 501.15 27.98
  L 482.91 28.15
  L 483.05 27.55
  A 0.71 0.70 6.7 0 1 483.74 27.01
  Q 491.46 26.97 498.47 27.05
  Q 500.91 27.07 501.50 27.15
  Q 503.01 27.34 503.01 29.49
  Q 503.04 115.07 503.03 137.25
  Q 503.02 138.79 502.72 140.87
  A 1.37 1.36 -85.9 0 1 501.37 142.04
  L 483.67 142.04
  A 0.47 0.46 67.8 0 1 483.33 141.89
  Q 482.83 141.35 483.33 141.03
  Z"
/>
<path fill="#1f4e33" d="
  M 483.33 141.03
  L 482.91 28.15
  L 501.15 27.98
  A 0.96 0.96 0.0 0 1 502.12 28.94
  L 502.12 140.11
  A 0.89 0.89 0.0 0 1 501.23 141.00
  L 483.33 141.03
  Z"
/>
<path fill="#a7aca7" fill-opacity="0.996" d="
  M 308.98 37.96
  L 290.04 37.88
  L 290.08 37.49
  A 0.60 0.60 0.0 0 1 290.68 36.96
  L 308.62 37.05
  A 0.28 0.26 -25.4 0 1 308.78 37.10
  Q 309.11 37.35 308.98 37.96
  Z"
/>
<path fill="#1f4e33" d="
  M 308.98 37.96
  L 308.99 58.69
  A 0.33 0.33 0.0 0 0 309.32 59.02
  L 326.67 59.06
  Q 328.07 59.73 329.51 59.30
  A 1.66 1.66 0.0 0 1 331.64 60.89
  L 331.64 72.24
  A 0.88 0.88 0.0 0 1 330.77 73.12
  Q 318.77 73.19 309.20 73.24
  Q 308.86 73.25 308.77 73.57
  Q 308.71 73.78 308.97 73.97
  L 309.17 115.24
  Q 308.79 118.21 309.92 121.15
  C 313.11 129.44 323.93 128.19 329.72 124.22
  A 0.92 0.91 -26.4 0 1 331.10 124.68
  L 334.95 136.24
  A 1.55 1.55 0.0 0 1 334.22 138.09
  C 322.00 144.76 301.70 144.79 293.73 131.52
  C 289.53 124.55 290.75 116.90 290.03 109.54
  Q 289.99 93.28 289.98 77.00
  Q 289.98 74.31 287.77 74.19
  Q 283.63 73.96 279.55 74.27
  Q 278.71 73.70 278.14 73.78
  A 1.65 1.65 0.0 0 1 276.29 71.94
  Q 277.05 65.83 276.12 60.17
  Q 275.82 59.47 276.24 59.07
  A 0.36 0.30 -62.4 0 1 276.46 58.98
  L 287.87 58.98
  A 2.18 2.18 0.0 0 0 290.05 56.80
  L 290.04 37.88
  L 308.98 37.96
  Z"
/>
<path fill="#a7aca7" fill-opacity="0.996" d="
  M 43.93 134.65
  L 49.78 138.16
  A 0.67 0.14 12.0 0 1 49.87 138.20
  C 53.68 139.77 56.48 141.18 60.17 141.80
  C 75.14 144.33 91.10 139.92 100.54 127.52
  Q 113.92 109.93 108.29 87.66
  Q 105.96 78.46 98.98 70.44
  C 88.74 58.68 72.12 54.80 57.12 58.30
  Q 54.13 59.00 50.60 60.81
  Q 47.53 62.38 44.43 64.16
  Q 53.18 56.80 65.02 56.78
  Q 67.31 56.78 71.68 56.82
  C 81.68 56.90 92.70 62.70 98.69 69.04
  Q 102.26 72.81 106.25 80.47
  Q 109.12 85.98 109.84 93.57
  C 110.58 101.43 110.52 109.62 107.41 117.20
  Q 98.77 138.25 76.24 142.46
  Q 58.31 145.81 43.93 134.65
  Z"
/>
<path fill="#a7aca7" fill-opacity="0.996" d="
  M 135.21 96.98
  Q 133.00 98.30 130.83 99.72
  C 125.10 103.45 122.15 109.77 121.85 116.55
  Q 121.35 128.20 129.47 135.60
  C 131.90 137.81 137.20 140.31 139.99 141.04
  Q 155.25 145.00 169.04 138.72
  C 171.33 137.68 173.79 136.02 175.50 134.25
  Q 178.02 131.62 178.86 130.97
  A 0.28 0.28 0.0 0 1 179.31 131.20
  L 179.31 139.77
  A 1.36 1.36 0.0 0 0 180.67 141.13
  L 196.38 141.13
  A 0.87 0.87 0.0 0 0 197.25 140.25
  Q 197.02 118.91 197.25 95.75
  Q 197.33 87.44 196.61 82.94
  Q 194.17 67.79 180.49 61.19
  Q 174.97 58.52 168.23 57.90
  Q 148.61 56.08 131.13 64.13
  Q 128.05 65.55 125.99 66.95
  A 0.92 0.92 0.0 0 0 125.68 68.09
  L 131.53 80.80
  A 0.80 0.79 60.7 0 0 132.70 81.13
  Q 142.85 74.29 155.25 73.71
  C 167.27 73.15 178.68 77.46 177.98 91.86
  Q 176.95 90.24 176.85 88.04
  Q 176.72 84.82 176.47 84.09
  C 174.97 79.64 169.43 75.93 165.51 75.29
  C 161.46 74.62 159.08 73.98 155.56 74.23
  Q 142.77 75.13 132.32 82.01
  A 0.74 0.73 60.9 0 1 131.25 81.70
  L 125.40 69.00
  A 2.39 2.39 0.0 0 1 126.42 65.91
  Q 144.12 56.14 164.74 56.83
  Q 176.73 57.24 186.30 63.97
  C 189.43 66.18 193.01 70.06 194.52 74.02
  Q 197.79 82.65 197.88 89.59
  Q 198.10 107.44 197.96 141.71
  A 0.28 0.28 0.0 0 1 197.68 141.99
  L 179.96 141.99
  A 0.90 0.89 0.0 0 1 179.06 141.10
  L 179.06 132.72
  A 0.59 0.59 0.0 0 0 178.02 132.33
  C 175.15 135.61 172.37 138.05 168.62 139.61
  C 156.74 144.55 145.05 144.60 133.35 138.85
  Q 127.79 136.12 124.78 130.93
  C 121.84 125.87 120.31 121.32 120.94 115.48
  Q 122.36 102.22 135.21 96.98
  Z"
/>
<path fill="#a7aca7" fill-opacity="0.996" d="
  M 451.74 116.82
  Q 447.80 122.50 441.35 124.72
  Q 433.18 127.53 425.45 125.42
  C 416.25 122.90 409.14 114.55 407.70 105.08
  Q 405.41 90.00 415.23 80.27
  C 419.43 76.11 424.50 73.92 430.49 73.55
  Q 442.97 72.78 450.75 81.50
  Q 451.28 82.09 451.91 83.26
  A 1.73 1.73 0.0 0 0 454.30 83.93
  L 466.66 76.80
  A 1.20 1.19 -29.6 0 0 467.11 75.18
  C 460.83 63.99 448.42 58.26 435.98 57.41
  C 411.39 55.73 390.49 70.65 388.61 96.20
  C 386.23 128.44 412.89 147.07 442.76 141.41
  C 452.65 139.53 462.69 133.15 467.36 124.05
  A 1.26 1.26 0.0 0 0 466.79 122.35
  Q 463.81 120.89 454.38 115.95
  Q 453.69 115.59 453.17 115.68
  Q 452.54 115.79 452.08 116.29
  Q 452.21 115.16 453.05 114.85
  A 0.91 0.86 -41.0 0 1 453.76 114.88
  L 466.88 121.46
  A 2.14 2.13 -68.8 0 1 467.97 123.95
  Q 467.56 125.39 466.32 127.07
  Q 461.77 133.26 454.67 137.69
  Q 448.95 141.26 439.77 142.63
  C 420.37 145.52 401.92 137.86 392.60 120.48
  Q 388.47 112.78 387.97 104.37
  Q 387.44 95.38 389.23 87.51
  Q 389.63 85.76 392.87 78.93
  Q 395.08 74.28 397.99 71.18
  Q 404.85 63.89 413.14 60.34
  C 422.93 56.15 435.48 55.81 445.85 58.43
  Q 449.28 59.29 455.74 62.84
  Q 463.67 67.21 467.84 75.50
  A 1.24 1.23 61.8 0 1 467.35 77.13
  L 453.79 84.96
  A 1.39 1.39 0.0 0 1 451.88 84.44
  C 448.40 78.22 440.65 74.77 434.21 74.09
  Q 433.02 73.96 427.55 74.85
  Q 423.75 75.47 421.19 76.82
  C 399.84 88.08 405.08 123.01 430.01 125.66
  Q 442.54 127.00 451.74 116.82
  Z"
/>
<path fill="#a7aca7" fill-opacity="0.996" d="
  M 587.44 117.24
  A 0.99 0.98 -44.8 0 1 588.83 117.24
  L 598.71 127.13
  A 1.21 1.20 42.7 0 1 598.78 128.77
  C 589.69 139.39 575.56 143.99 561.99 143.15
  Q 557.24 142.86 551.55 141.51
  C 541.96 139.25 534.81 134.55 528.45 126.93
  C 526.56 124.66 525.08 121.49 523.50 118.57
  C 521.74 115.33 520.13 109.38 520.02 105.22
  Q 519.76 95.16 519.90 93.74
  Q 520.81 84.32 526.39 75.35
  Q 531.31 67.44 540.80 62.40
  Q 552.60 56.13 565.77 56.86
  Q 579.86 57.63 589.75 66.02
  C 601.40 75.88 606.13 90.34 604.88 105.48
  A 1.62 1.61 -87.7 0 1 603.27 106.97
  L 541.13 106.97
  A 1.10 1.10 0.0 0 0 540.05 108.30
  C 541.16 113.51 544.03 118.40 548.46 121.37
  C 554.80 125.64 561.87 126.43 569.37 125.91
  C 576.44 125.43 582.18 122.39 587.44 117.24
  Z
  M 539.81 106.09
  L 602.71 106.09
  A 1.32 1.32 0.0 0 0 604.03 104.87
  C 605.38 87.51 599.04 71.83 583.98 62.70
  Q 576.61 58.23 566.36 57.51
  Q 550.83 56.40 538.35 64.54
  Q 521.26 75.69 520.43 96.04
  C 520.24 100.60 520.18 106.01 521.20 110.26
  C 525.09 126.36 537.59 138.67 554.05 141.42
  C 565.21 143.29 575.71 142.63 586.27 137.75
  C 590.98 135.59 594.08 132.60 597.82 128.84
  A 0.99 0.99 0.0 0 0 597.82 127.44
  L 588.32 117.94
  A 0.86 0.86 0.0 0 0 587.04 118.01
  C 582.88 123.29 574.56 126.61 568.67 126.73
  Q 563.27 126.83 559.84 126.44
  Q 556.16 126.02 551.47 123.67
  Q 541.41 118.63 539.17 106.87
  A 0.66 0.65 84.5 0 1 539.81 106.09
  Z"
/>
<path fill="#a7aca7" fill-opacity="0.996" d="
  M 664.58 116.03
  Q 664.99 116.40 665.06 116.99
  C 665.91 124.33 659.60 127.20 653.27 127.68
  Q 635.17 129.03 620.51 119.17
  A 0.72 0.71 -61.5 0 0 619.45 119.49
  L 614.43 131.43
  A 1.73 1.73 0.0 0 0 615.18 133.60
  Q 636.33 145.47 659.99 141.30
  Q 665.19 140.38 670.49 137.51
  Q 684.18 130.10 683.06 114.22
  C 682.62 108.06 679.36 102.86 673.74 99.61
  Q 668.91 96.81 665.66 96.06
  Q 649.37 92.29 643.05 91.16
  C 639.14 90.46 634.70 88.01 634.13 83.67
  C 633.07 75.48 639.60 72.82 646.49 72.36
  Q 654.24 71.85 659.05 72.90
  Q 667.62 74.76 674.30 78.14
  A 0.83 0.83 0.0 0 0 675.44 77.73
  L 680.57 65.50
  A 1.28 1.28 0.0 0 0 679.91 63.83
  Q 664.59 57.04 648.23 57.36
  C 634.65 57.61 619.14 63.44 616.62 78.62
  Q 614.03 94.23 625.63 101.18
  C 630.18 103.89 636.92 105.62 642.50 106.55
  Q 647.79 107.43 655.02 108.93
  C 658.04 109.55 664.12 111.79 664.48 115.57
  C 662.42 112.07 657.88 110.10 654.32 109.41
  Q 644.86 107.57 637.95 106.32
  Q 635.13 105.81 629.06 103.51
  Q 619.50 99.89 616.34 90.62
  A 6.63 6.35 -56.8 0 1 616.00 88.80
  Q 615.65 81.26 615.78 79.97
  Q 616.90 69.17 625.87 63.08
  C 629.89 60.35 636.68 57.68 642.19 57.20
  Q 651.93 56.34 658.74 57.30
  Q 667.02 58.46 674.41 60.84
  Q 675.40 61.15 681.28 64.04
  A 0.60 0.58 24.7 0 1 681.57 64.79
  L 675.73 78.68
  A 0.67 0.66 -65.0 0 1 674.81 79.02
  Q 660.79 71.80 645.51 73.11
  Q 639.26 73.65 635.80 77.70
  A 2.70 2.67 68.5 0 0 635.19 79.13
  Q 634.73 83.25 635.08 84.54
  C 636.18 88.57 641.48 90.35 645.45 91.07
  Q 654.36 92.68 664.92 95.13
  C 669.04 96.08 674.32 98.68 677.51 101.74
  Q 687.04 110.87 682.52 124.63
  Q 679.03 135.23 668.37 139.36
  Q 661.15 142.16 655.76 142.77
  Q 641.94 144.35 628.59 140.10
  C 623.90 138.60 618.01 136.60 613.68 133.20
  A 0.98 0.98 0.0 0 1 613.38 132.05
  L 619.06 118.52
  A 0.54 0.54 0.0 0 1 619.82 118.26
  C 623.25 120.22 626.00 121.97 629.57 123.42
  Q 640.66 127.90 653.85 126.91
  C 660.32 126.42 664.43 123.59 664.81 117.02
  Q 664.84 116.45 664.58 116.03
  Z"
/>
<path fill="#a7aca7" fill-opacity="0.996" d="
  M 268.06 57.02
  Q 266.06 57.51 260.94 58.19
  C 254.61 59.04 250.23 62.01 244.14 66.88
  Q 242.96 67.82 241.25 70.70
  A 0.35 0.33 12.5 0 1 240.97 70.87
  Q 240.82 70.88 240.70 70.94
  L 240.98 70.13
  A 2.78 2.77 -16.6 0 1 241.41 69.34
  Q 251.47 56.59 268.06 57.02
  Z"
/>
<path fill="#1f4e33" d="
  M 270.32 57.30
  Q 269.43 65.21 269.99 72.62
  A 1.65 1.64 88.7 0 1 268.30 74.39
  C 262.49 74.19 256.60 74.81 251.54 77.79
  Q 239.90 84.66 240.07 99.49
  Q 240.35 123.63 240.29 139.98
  A 1.04 1.04 0.0 0 1 239.25 141.02
  L 222.14 141.02
  A 0.64 0.64 0.0 0 1 221.50 140.38
  L 221.09 61.05
  L 220.94 58.58
  L 238.50 58.82
  A 0.68 0.67 -89.2 0 1 239.17 59.52
  Q 239.09 62.55 239.38 70.88
  Q 239.40 71.43 239.78 71.66
  Q 240.16 71.90 240.51 71.62
  Q 240.72 71.44 240.70 70.94
  Q 240.82 70.88 240.97 70.87
  A 0.35 0.33 12.5 0 0 241.25 70.70
  Q 242.96 67.82 244.14 66.88
  C 250.23 62.01 254.61 59.04 260.94 58.19
  Q 266.06 57.51 268.06 57.02
  Q 268.98 56.87 270.32 57.30
  Z"
/>
<path fill="#1f4e33" d="
  M 43.93 134.65
  L 42.77 133.30
  Q 42.04 131.59 40.77 131.14
  Q 40.77 131.09 40.77 131.04
  Q 40.60 129.87 39.80 129.90
  A 0.80 0.80 0.0 0 0 39.04 130.83
  C 39.61 134.45 39.04 138.22 39.18 141.40
  Q 39.80 154.90 39.32 168.71
  C 39.28 169.96 39.91 171.38 39.75 172.92
  L 19.60 173.33
  Q 19.97 172.93 20.35 172.53
  Q 21.33 141.74 20.22 111.02
  L 20.16 58.66
  A 0.51 0.51 0.0 0 1 20.67 58.15
  L 38.02 58.15
  Q 38.11 63.13 38.04 67.90
  Q 38.03 68.87 38.49 69.50
  Q 38.81 69.94 39.27 69.65
  Q 39.69 69.38 39.63 69.02
  Q 39.71 68.88 39.78 68.74
  Q 41.54 67.64 42.51 65.81
  Q 43.44 64.65 44.43 64.16
  Q 47.53 62.38 50.60 60.81
  Q 54.13 59.00 57.12 58.30
  C 72.12 54.80 88.74 58.68 98.98 70.44
  Q 105.96 78.46 108.29 87.66
  Q 113.92 109.93 100.54 127.52
  C 91.10 139.92 75.14 144.33 60.17 141.80
  C 56.48 141.18 53.68 139.77 49.87 138.20
  A 0.67 0.14 12.0 0 0 49.78 138.16
  L 43.93 134.65
  Z
  M 60.7923 73.0095
  A 27.34 26.87 -97.9 0 0 37.9350 103.7831
  A 27.34 26.87 -97.9 0 0 68.3077 127.1705
  A 27.34 26.87 -97.9 0 0 91.1650 96.3969
  A 27.34 26.87 -97.9 0 0 60.7923 73.0095
  Z"
/>
<path fill="#1f4e33" d="
  M 451.74 116.82
  L 452.08 116.29
  Q 452.54 115.79 453.17 115.68
  Q 453.69 115.59 454.38 115.95
  Q 463.81 120.89 466.79 122.35
  A 1.26 1.26 0.0 0 1 467.36 124.05
  C 462.69 133.15 452.65 139.53 442.76 141.41
  C 412.89 147.07 386.23 128.44 388.61 96.20
  C 390.49 70.65 411.39 55.73 435.98 57.41
  C 448.42 58.26 460.83 63.99 467.11 75.18
  A 1.20 1.19 -29.6 0 1 466.66 76.80
  L 454.30 83.93
  A 1.73 1.73 0.0 0 1 451.91 83.26
  Q 451.28 82.09 450.75 81.50
  Q 442.97 72.78 430.49 73.55
  C 424.50 73.92 419.43 76.11 415.23 80.27
  Q 405.41 90.00 407.70 105.08
  C 409.14 114.55 416.25 122.90 425.45 125.42
  Q 433.18 127.53 441.35 124.72
  Q 447.80 122.50 451.74 116.82
  Z"
/>
<path fill="#1f4e33" d="
  M 664.58 116.03
  Q 664.49 115.78 664.48 115.57
  C 664.12 111.79 658.04 109.55 655.02 108.93
  Q 647.79 107.43 642.50 106.55
  C 636.92 105.62 630.18 103.89 625.63 101.18
  Q 614.03 94.23 616.62 78.62
  C 619.14 63.44 634.65 57.61 648.23 57.36
  Q 664.59 57.04 679.91 63.83
  A 1.28 1.28 0.0 0 1 680.57 65.50
  L 675.44 77.73
  A 0.83 0.83 0.0 0 1 674.30 78.14
  Q 667.62 74.76 659.05 72.90
  Q 654.24 71.85 646.49 72.36
  C 639.60 72.82 633.07 75.48 634.13 83.67
  C 634.70 88.01 639.14 90.46 643.05 91.16
  Q 649.37 92.29 665.66 96.06
  Q 668.91 96.81 673.74 99.61
  C 679.36 102.86 682.62 108.06 683.06 114.22
  Q 684.18 130.10 670.49 137.51
  Q 665.19 140.38 659.99 141.30
  Q 636.33 145.47 615.18 133.60
  A 1.73 1.73 0.0 0 1 614.43 131.43
  L 619.45 119.49
  A 0.72 0.71 -61.5 0 1 620.51 119.17
  Q 635.17 129.03 653.27 127.68
  C 659.60 127.20 665.91 124.33 665.06 116.99
  Q 664.99 116.40 664.58 116.03
  Z"
/>
<path fill="#1f4e33" d="
  M 135.21 96.98
  Q 144.28 94.11 153.75 93.86
  Q 164.49 93.58 177.13 93.75
  Q 177.61 93.76 177.86 93.35
  Q 178.05 93.06 177.78 92.78
  L 177.98 91.86
  C 178.68 77.46 167.27 73.15 155.25 73.71
  Q 142.85 74.29 132.70 81.13
  A 0.80 0.79 60.7 0 1 131.53 80.80
  L 125.68 68.09
  A 0.92 0.92 0.0 0 1 125.99 66.95
  Q 128.05 65.55 131.13 64.13
  Q 148.61 56.08 168.23 57.90
  Q 174.97 58.52 180.49 61.19
  Q 194.17 67.79 196.61 82.94
  Q 197.33 87.44 197.25 95.75
  Q 197.02 118.91 197.25 140.25
  A 0.87 0.87 0.0 0 1 196.38 141.13
  L 180.67 141.13
  A 1.36 1.36 0.0 0 1 179.31 139.77
  L 179.31 131.20
  A 0.28 0.28 0.0 0 0 178.86 130.97
  Q 178.02 131.62 175.50 134.25
  C 173.79 136.02 171.33 137.68 169.04 138.72
  Q 155.25 145.00 139.99 141.04
  C 137.20 140.31 131.90 137.81 129.47 135.60
  Q 121.35 128.20 121.85 116.55
  C 122.15 109.77 125.10 103.45 130.83 99.72
  Q 133.00 98.30 135.21 96.98
  Z
  M 177.78 109.78
  L 178.08 105.53
  Q 157.45 104.61 150.81 105.56
  C 137.15 107.51 136.91 126.03 150.36 128.10
  C 155.49 128.89 161.64 129.15 166.66 126.96
  C 174.37 123.60 178.83 118.58 177.78 109.78
  Z"
/>
<path fill="#a7aca7" fill-opacity="0.996" d="
  M 270.32 57.30
  Q 271.61 65.55 270.91 73.48
  A 1.45 1.45 0.0 0 1 269.49 74.80
  C 263.18 74.92 257.00 75.54 251.54 78.71
  Q 243.74 83.22 241.31 92.63
  A 6.30 6.23 52.8 0 0 241.10 94.24
  L 240.89 140.62
  A 1.38 1.37 -89.8 0 1 239.52 141.99
  L 221.67 141.99
  A 0.70 0.70 0.0 0 1 220.97 141.29
  L 221.09 61.05
  L 221.50 140.38
  A 0.64 0.64 0.0 0 0 222.14 141.02
  L 239.25 141.02
  A 1.04 1.04 0.0 0 0 240.29 139.98
  Q 240.35 123.63 240.07 99.49
  Q 239.90 84.66 251.54 77.79
  C 256.60 74.81 262.49 74.19 268.30 74.39
  A 1.65 1.64 88.7 0 0 269.99 72.62
  Q 269.43 65.21 270.32 57.30
  Z"
/>
<path fill="#1f4e33" d="
  M 539.81 106.09
  A 0.66 0.65 84.5 0 0 539.17 106.87
  Q 541.41 118.63 551.47 123.67
  Q 556.16 126.02 559.84 126.44
  Q 563.27 126.83 568.67 126.73
  C 574.56 126.61 582.88 123.29 587.04 118.01
  A 0.86 0.86 0.0 0 1 588.32 117.94
  L 597.82 127.44
  A 0.99 0.99 0.0 0 1 597.82 128.84
  C 594.08 132.60 590.98 135.59 586.27 137.75
  C 575.71 142.63 565.21 143.29 554.05 141.42
  C 537.59 138.67 525.09 126.36 521.20 110.26
  C 520.18 106.01 520.24 100.60 520.43 96.04
  Q 521.26 75.69 538.35 64.54
  Q 550.83 56.40 566.36 57.51
  Q 576.61 58.23 583.98 62.70
  C 599.04 71.83 605.38 87.51 604.03 104.87
  A 1.32 1.32 0.0 0 1 602.71 106.09
  L 539.81 106.09
  Z
  M 539.13 94.75
  L 585.94 94.35
  A 0.11 0.11 0.0 0 0 586.05 94.23
  L 586.05 94.05
  A 22.82 21.53 -0.5 0 0 563.04 72.72
  L 561.64 72.74
  A 22.82 21.53 -0.5 0 0 539.01 94.46
  L 539.02 94.64
  A 0.11 0.11 0.0 0 0 539.13 94.75
  Z"
/>
<path fill="#a7aca7" fill-opacity="0.996" d="
  M 39.63 69.02
  Q 39.69 69.38 39.27 69.65
  Q 38.81 69.94 38.49 69.50
  Q 38.03 68.87 38.04 67.90
  Q 38.11 63.13 38.02 58.15
  Q 38.29 58.05 38.47 58.07
  Q 38.99 58.15 39.00 58.71
  Q 39.09 63.60 39.00 68.41
  A 0.53 0.53 0.0 0 0 39.35 68.92
  L 39.63 69.02
  Z"
/>
<path fill="#a7aca7" fill-opacity="0.996" d="
  M 240.70 70.94
  Q 240.72 71.44 240.51 71.62
  Q 240.16 71.90 239.78 71.66
  Q 239.40 71.43 239.38 70.88
  Q 239.09 62.55 239.17 59.52
  A 0.68 0.67 -89.2 0 0 238.50 58.82
  L 220.94 58.58
  Q 230.08 57.54 239.53 58.11
  A 0.58 0.57 -87.5 0 1 240.07 58.71
  Q 239.91 64.62 240.15 70.72
  Q 240.16 70.97 240.70 70.94
  Z"
/>
<path fill="#a7aca7" fill-opacity="0.996" d="
  M 369.57 58.07
  Q 369.61 58.67 368.50 58.64
  Q 359.19 58.40 352.65 58.39
  A 1.02 1.02 0.0 0 0 351.63 59.41
  L 351.63 139.90
  A 1.09 1.08 90.0 0 0 352.71 140.99
  L 368.94 140.99
  A 1.30 1.30 0.0 0 0 370.24 139.69
  L 370.24 59.17
  A 0.78 0.36 -69.7 0 0 370.23 59.04
  L 369.93 58.11
  Q 370.51 57.89 370.87 58.20
  A 0.39 0.37 -69.9 0 1 370.99 58.48
  L 370.99 140.10
  A 1.89 1.89 0.0 0 1 369.10 141.99
  L 351.48 141.99
  A 0.52 0.52 0.0 0 1 350.96 141.47
  L 350.96 58.84
  A 0.74 0.74 0.0 0 1 351.70 58.10
  L 369.57 58.07
  Z"
/>
<path fill="#1f4e33" d="
  M 369.93 58.11
  L 370.23 59.04
  A 0.78 0.36 -69.7 0 1 370.24 59.17
  L 370.24 139.69
  A 1.30 1.30 0.0 0 1 368.94 140.99
  L 352.71 140.99
  A 1.09 1.08 -90.0 0 1 351.63 139.90
  L 351.63 59.41
  A 1.02 1.02 0.0 0 1 352.65 58.39
  Q 359.19 58.40 368.50 58.64
  Q 369.61 58.67 369.57 58.07
  L 369.93 58.11
  Z"
/>
<path fill="#a7aca7" fill-opacity="0.996" d="
  M 308.97 73.97
  Q 308.71 73.78 308.77 73.57
  Q 308.86 73.25 309.20 73.24
  Q 318.77 73.19 330.77 73.12
  A 0.88 0.88 0.0 0 0 331.64 72.24
  L 331.64 60.89
  A 1.66 1.66 0.0 0 0 329.51 59.30
  Q 328.07 59.73 326.67 59.06
  L 331.40 59.10
  A 0.58 0.58 0.0 0 1 331.98 59.68
  L 331.98 73.35
  A 0.58 0.58 0.0 0 1 331.40 73.93
  L 308.97 73.97
  Z"
/>
<path fill="#a7aca7" fill-opacity="0.996" d="
  M 279.55 74.27
  Q 278.68 74.68 277.78 74.75
  A 1.51 1.51 0.0 0 1 276.15 73.25
  L 276.12 60.17
  Q 277.05 65.83 276.29 71.94
  A 1.65 1.65 0.0 0 0 278.14 73.78
  Q 278.71 73.70 279.55 74.27
  Z"
/>
<path fill="#a7aca7" fill-opacity="0.996" d="
  M 42.51 65.81
  Q 41.54 67.64 39.78 68.74
  Q 40.18 66.37 42.51 65.81
  Z"
/>
<path fill="#a7aca7" fill-opacity="0.996" d="
  M 539.13 94.75
  A 0.11 0.11 0.0 0 1 539.02 94.64
  L 539.01 94.46
  A 22.82 21.53 -0.5 0 1 561.64 72.74
  L 563.04 72.72
  A 22.82 21.53 -0.5 0 1 586.05 94.05
  L 586.05 94.23
  A 0.11 0.11 0.0 0 1 585.94 94.35
  L 539.13 94.75
  Z
  M 540.01 94.07
  L 585.05 93.99
  A 0.14 0.14 0.0 0 0 585.19 93.85
  L 585.19 93.73
  A 22.20 20.52 -0.1 0 0 562.95 73.25
  L 562.03 73.25
  A 22.20 20.52 -0.1 0 0 539.87 93.81
  L 539.87 93.93
  A 0.14 0.14 0.0 0 0 540.01 94.07
  Z"
/>
<path fill="#a7aca7" fill-opacity="0.996" d="
  M 60.7923 73.0095
  A 27.34 26.87 -97.9 0 1 91.1650 96.3969
  A 27.34 26.87 -97.9 0 1 68.3077 127.1705
  A 27.34 26.87 -97.9 0 1 37.9350 103.7831
  A 27.34 26.87 -97.9 0 1 60.7923 73.0095
  Z
  M 90.89 100.01
  Q 89.60 91.61 88.78 89.71
  C 83.38 77.28 70.68 71.63 57.71 74.60
  Q 45.87 77.30 41.07 87.64
  C 37.72 94.88 38.06 106.40 41.88 113.47
  Q 46.36 121.77 55.43 125.10
  C 57.95 126.03 61.53 126.43 63.28 126.69
  A 8.03 7.94 -42.9 0 0 65.23 126.75
  Q 74.70 125.92 81.84 120.39
  C 87.49 116.01 90.04 108.22 90.90 101.13
  A 4.43 3.92 -49.1 0 0 90.89 100.01
  Z"
/>
<path fill="#000000" d="
  M 67.11 85.99
  L 74.33 89.54
  Q 81.97 99.45 75.19 109.72
  A 4.75 4.68 -4.3 0 1 74.36 110.67
  C 70.03 114.45 63.74 115.97 58.24 113.09
  Q 52.16 109.91 50.75 103.26
  Q 49.55 97.59 53.06 91.42
  A 15.10 14.67 -81.8 0 1 55.87 88.68
  Q 57.18 88.52 56.35 88.34
  A 10.33 8.03 -35.0 0 1 57.59 87.57
  L 63.45 85.82
  A 14.65 14.51 80.8 0 1 67.11 85.99
  Z"
/>
<path fill="#a7aca7" fill-opacity="0.996" d="
  M 74.33 89.54
  L 67.11 85.99
  A 14.78 14.62 -71.7 0 1 74.33 89.54
  Z"
/>
<path fill="#a7aca7" fill-opacity="0.996" d="
  M 63.45 85.82
  L 57.59 87.57
  A 14.67 14.46 -67.8 0 1 63.45 85.82
  Z"
/>
<path fill="#1f4e33" d="
  M 56.35 88.34
  Q 57.18 88.52 55.87 88.68
  A 4.34 1.56 -41.9 0 1 56.35 88.34
  Z"
/>
<path fill="#a7aca7" fill-opacity="0.996" d="
  M 53.06 91.42
  Q 49.55 97.59 50.75 103.26
  Q 52.16 109.91 58.24 113.09
  C 63.74 115.97 70.03 114.45 74.36 110.67
  A 4.75 4.68 -4.3 0 0 75.19 109.72
  Q 81.97 99.45 74.33 89.54
  A 14.75 14.59 -70.3 0 1 77.43 107.22
  A 14.73 14.61 -66.1 0 1 68.79 114.52
  A 14.75 14.59 -70.2 0 1 56.00 112.51
  A 14.69 14.53 -70.3 0 1 50.10 102.99
  A 14.73 14.57 -70.9 0 1 53.06 91.42
  Z"
/>
<path fill="#a7aca7" fill-opacity="0.996" d="
  M 177.78 92.78
  Q 178.05 93.06 177.86 93.35
  Q 177.61 93.76 177.13 93.75
  Q 164.49 93.58 153.75 93.86
  Q 144.28 94.11 135.21 96.98
  C 142.08 93.69 149.94 93.02 157.70 93.00
  Q 167.24 92.97 176.75 93.02
  Q 177.26 93.02 177.78 92.78
  Z"
/>
<path fill="#a7aca7" fill-opacity="0.996" d="
  M 178.08 105.53
  Q 162.97 106.66 155.52 106.16
  C 147.91 105.64 140.12 109.26 140.86 117.91
  C 141.69 127.56 151.68 128.36 159.27 128.00
  Q 168.57 127.57 174.62 120.87
  Q 176.78 118.48 176.95 116.20
  Q 177.31 111.53 177.78 109.78
  C 178.83 118.58 174.37 123.60 166.66 126.96
  C 161.64 129.15 155.49 128.89 150.36 128.10
  C 136.91 126.03 137.15 107.51 150.81 105.56
  Q 157.45 104.61 178.08 105.53
  Z"
/>
<path fill="#a7aca7" fill-opacity="0.996" d="
  M 309.17 115.24
  Q 309.87 120.20 311.33 122.65
  Q 314.06 127.21 320.05 126.64
  Q 325.82 126.09 330.02 123.41
  A 1.02 1.02 0.0 0 1 331.53 123.95
  L 335.82 136.84
  A 1.39 1.38 66.7 0 1 335.16 138.51
  Q 322.95 145.02 309.93 142.58
  C 300.78 140.86 293.62 135.80 290.94 126.86
  C 289.51 122.10 290.03 115.11 290.03 109.54
  C 290.75 116.90 289.53 124.55 293.73 131.52
  C 301.70 144.79 322.00 144.76 334.22 138.09
  A 1.55 1.55 0.0 0 0 334.95 136.24
  L 331.10 124.68
  A 0.92 0.91 -26.4 0 0 329.72 124.22
  C 323.93 128.19 313.11 129.44 309.92 121.15
  Q 308.79 118.21 309.17 115.24
  Z"
/>
<path fill="#a7aca7" fill-opacity="0.996" d="
  M 20.35 172.53
  L 20.22 111.02
  Q 21.33 141.74 20.35 172.53
  Z"
/>
<path fill="#a7aca7" fill-opacity="0.996" d="
  M 40.77 131.04
  Q 39.96 130.99 39.96 132.50
  Q 39.99 151.75 40.00 171.00
  Q 40.00 171.79 39.75 172.92
  C 39.91 171.38 39.28 169.96 39.32 168.71
  Q 39.80 154.90 39.18 141.40
  C 39.04 138.22 39.61 134.45 39.04 130.83
  A 0.80 0.80 0.0 0 1 39.80 129.90
  Q 40.60 129.87 40.77 131.04
  Z"
/>
<path fill="#a7aca7" fill-opacity="0.996" d="
  M 42.77 133.30
  Q 40.71 132.83 40.77 131.14
  Q 42.04 131.59 42.77 133.30
  Z"
/>
<path fill="#a7aca7" fill-opacity="0.996" d="
  M 39.75 172.92
  L 38.86 173.66
  A 1.52 1.49 22.9 0 1 37.98 174.01
  Q 29.02 174.48 19.60 173.33
  L 39.75 172.92
  Z"
/>
</svg>
