<svg width="32" height="32" viewBox="0 0 32 32" fill="none" xmlns="http://www.w3.org/2000/svg">
<rect x="0.5" y="0.5" width="31" height="31" rx="7.5" stroke="#13A249"/>
<path fill-rule="evenodd" clip-rule="evenodd" d="M7.66663 7.66663H10.8C12.2942 7.66663 13.7242 8.257 14.7794 9.31218L17.3005 11.8333H20.9346C21.5424 11.8333 22.1253 12.0747 22.5551 12.5045L24.0592 14.0087C24.6248 14.5742 24.3683 15.5397 23.5967 15.7502L19.7061 16.8113L19.3772 15.6053L22.9215 14.6387L21.6712 13.3884C21.4758 13.193 21.2109 13.0833 20.9346 13.0833H16.7827L13.8955 10.1961C13.0757 9.37625 11.964 8.91663 10.8 8.91663H8.91663V10.8041C8.91663 11.9633 9.37573 13.0754 10.1965 13.9001C10.1964 13.9 10.1967 13.9003 10.1965 13.9001L13.0833 16.7869V20.9388C13.0833 21.215 13.193 21.48 13.3884 21.6753L14.6387 22.9256L15.6053 19.3813L16.8113 19.7102L15.7502 23.6009C15.5397 24.3725 14.5742 24.6289 14.0087 24.0634L12.5045 22.5592C12.0747 22.1295 11.8333 21.5466 11.8333 20.9388V17.3047L9.31218 14.7836L9.31121 14.7826C8.25733 13.724 7.66663 12.2947 7.66663 10.8041V7.66663ZM20.7664 21.6502L15.7664 16.6502L16.6502 15.7664L21.6502 20.7664L20.7664 21.6502Z" fill="#13A249"/>
</svg>
