<svg width="306" height="200" viewBox="0 0 306 200" fill="none" xmlns="http://www.w3.org/2000/svg">
<g clip-path="url(#clip0_2351_4330)">
<rect x="0.335938" width="306" height="200" rx="12" fill="#FAFAFA"/>
<circle cx="261.336" cy="31" r="3" fill="#13A249"/>
<circle cx="277.332" cy="42" r="3" stroke="#13A249" stroke-width="2"/>
<circle cx="39.332" cy="169" r="6" stroke="#13A249" stroke-width="2"/>
<g opacity="0.5" filter="url(#filter0_f_2351_4330)">
<ellipse cx="46.3359" cy="61" rx="29" ry="42" fill="#C7FCCA"/>
</g>
<g opacity="0.5" filter="url(#filter1_f_2351_4330)">
<ellipse cx="231.836" cy="158.5" rx="68.5" ry="27.5" fill="#C7FCCA"/>
</g>
<path fill-rule="evenodd" clip-rule="evenodd" d="M91.4878 121.41C93.2461 119.476 95.949 118.706 98.4624 119.424L110.767 122.937C110.73 121.212 112.12 119.75 113.892 119.75H121.835V123.5H114.608L117.847 147.25H121.835V151H117.301C115.808 151 114.533 149.945 114.239 148.5H106.857C106.406 150.502 105.068 152.295 103.03 153.236L96.9819 156.027C93.2963 157.728 88.997 157.429 85.5827 155.233L74.4928 148.102L74.4662 148.297C74.255 149.845 72.9325 151 71.3698 151H66.8359V147.25H70.8243L74.0629 123.5H66.8359V119.75H74.7789C76.3092 119.75 77.5553 120.841 77.8422 122.25H90.7245L91.4878 121.41ZM106.65 144.75H113.721L111.299 126.989L97.4329 123.03C96.2904 122.704 95.0618 123.054 94.2626 123.933L85.0759 134.038C86.0948 134.794 87.4906 134.865 88.5923 134.177L96.7892 129.054L105.932 143.276C106.236 143.749 106.475 144.244 106.65 144.75ZM77.5067 126L75.0517 144.003L87.611 152.079C89.9471 153.582 92.8887 153.786 95.4105 152.623L101.459 149.831C103.182 149.036 103.804 146.9 102.778 145.304L95.6369 134.196L90.5798 137.357C87.865 139.054 84.3384 138.652 82.0747 136.388L79.873 134.187L87.3154 126H77.5067Z" fill="#21AD58"/>
<g filter="url(#filter2_d_2351_4330)">
<rect x="32.3359" y="26" width="131" height="73" rx="12" fill="white" shape-rendering="crispEdges"/>
<rect x="40.3359" y="39.5" width="24" height="24" rx="12" fill="#CEF6F7"/>
<path d="M75.1967 37.2727H77.1314L79.7223 43.5966H79.8246L82.4155 37.2727H84.3501V46H82.8331V40.0043H82.7521L80.3402 45.9744H79.2067L76.7947 39.9915H76.7138V46H75.1967V37.2727ZM87.8871 46.1321C87.4723 46.1321 87.0987 46.0582 86.7663 45.9105C86.4368 45.7599 86.1754 45.5384 85.9822 45.2457C85.7919 44.9531 85.6967 44.5923 85.6967 44.1634C85.6967 43.794 85.7649 43.4886 85.9013 43.2472C86.0376 43.0057 86.2237 42.8125 86.4595 42.6676C86.6953 42.5227 86.9609 42.4134 87.2564 42.3395C87.5547 42.2628 87.8629 42.2074 88.1811 42.1733C88.5646 42.1335 88.8757 42.098 89.1143 42.0668C89.353 42.0327 89.5263 41.9815 89.6342 41.9134C89.745 41.8423 89.8004 41.733 89.8004 41.5852V41.5597C89.8004 41.2386 89.7053 40.9901 89.5149 40.8139C89.3246 40.6378 89.0504 40.5497 88.6925 40.5497C88.3146 40.5497 88.0149 40.6321 87.7933 40.7969C87.5746 40.9616 87.4268 41.1562 87.3501 41.3807L85.9098 41.1761C86.0234 40.7784 86.2109 40.446 86.4723 40.179C86.7337 39.9091 87.0533 39.7074 87.4311 39.5739C87.8089 39.4375 88.2266 39.3693 88.6839 39.3693C88.9993 39.3693 89.3132 39.4062 89.6257 39.4801C89.9382 39.554 90.2237 39.6761 90.4822 39.8466C90.7408 40.0142 90.9482 40.2429 91.1044 40.5327C91.2635 40.8224 91.343 41.1847 91.343 41.6193V46H89.8601V45.1009H89.8089C89.7152 45.2827 89.5831 45.4531 89.4126 45.6122C89.245 45.7685 89.0334 45.8949 88.7777 45.9915C88.5249 46.0852 88.228 46.1321 87.8871 46.1321ZM88.2876 44.9986C88.5973 44.9986 88.8658 44.9375 89.093 44.8153C89.3203 44.6903 89.495 44.5256 89.6172 44.321C89.7422 44.1165 89.8047 43.8935 89.8047 43.652V42.8807C89.7564 42.9205 89.674 42.9574 89.5575 42.9915C89.4439 43.0256 89.3161 43.0554 89.174 43.081C89.032 43.1065 88.8913 43.1293 88.7521 43.1491C88.6129 43.169 88.4922 43.1861 88.3899 43.2003C88.1598 43.2315 87.9538 43.2827 87.772 43.3537C87.5902 43.4247 87.4467 43.5241 87.3416 43.652C87.2365 43.777 87.1839 43.9389 87.1839 44.1378C87.1839 44.4219 87.2876 44.6364 87.495 44.7812C87.7024 44.9261 87.9666 44.9986 88.2876 44.9986ZM92.8942 46V39.4545H94.3899V40.5455H94.4581C94.5774 40.1676 94.782 39.8764 95.0717 39.6719C95.3643 39.4645 95.6982 39.3608 96.0732 39.3608C96.1584 39.3608 96.2536 39.3651 96.3587 39.3736C96.4666 39.3793 96.5561 39.3892 96.6271 39.4034V40.8224C96.5618 40.7997 96.4581 40.7798 96.3161 40.7628C96.1768 40.7429 96.0419 40.733 95.9112 40.733C95.63 40.733 95.3771 40.794 95.1527 40.9162C94.9311 41.0355 94.7564 41.2017 94.6286 41.4148C94.5007 41.6278 94.4368 41.8736 94.4368 42.152V46H92.8942ZM99.0582 43.946L99.054 42.0838H99.3011L101.653 39.4545H103.456L100.562 42.6761H100.243L99.0582 43.946ZM97.652 46V37.2727H99.1946V46H97.652ZM101.76 46L99.6293 43.0213L100.669 41.9347L103.605 46H101.76ZM107.529 46V37.2727H110.87C111.5 37.2727 112.025 37.3722 112.442 37.571C112.863 37.767 113.176 38.0355 113.384 38.3764C113.594 38.7173 113.699 39.1037 113.699 39.5355C113.699 39.8906 113.631 40.1946 113.495 40.4474C113.358 40.6974 113.175 40.9006 112.945 41.0568C112.715 41.2131 112.458 41.3253 112.174 41.3935V41.4787C112.483 41.4957 112.78 41.5909 113.064 41.7642C113.351 41.9347 113.586 42.1761 113.767 42.4886C113.949 42.8011 114.04 43.179 114.04 43.6222C114.04 44.0739 113.931 44.4801 113.712 44.8409C113.493 45.1989 113.164 45.4815 112.723 45.6889C112.283 45.8963 111.729 46 111.061 46H107.529ZM109.11 44.679H110.81C111.384 44.679 111.797 44.5696 112.05 44.3509C112.306 44.1293 112.434 43.8452 112.434 43.4986C112.434 43.2401 112.37 43.0071 112.242 42.7997C112.114 42.5895 111.932 42.4247 111.696 42.3054C111.461 42.1832 111.179 42.1222 110.853 42.1222H109.11V44.679ZM109.11 40.9844H110.674C110.946 40.9844 111.192 40.9347 111.411 40.8352C111.63 40.733 111.801 40.5895 111.926 40.4048C112.054 40.2173 112.118 39.9957 112.118 39.7401C112.118 39.402 111.999 39.1236 111.76 38.9048C111.525 38.6861 111.174 38.5767 110.708 38.5767H109.11V40.9844ZM118.245 46.1278C117.589 46.1278 117.022 45.9915 116.545 45.7188C116.07 45.4432 115.705 45.054 115.45 44.5511C115.194 44.0455 115.066 43.4503 115.066 42.7656C115.066 42.0923 115.194 41.5014 115.45 40.9929C115.708 40.4815 116.069 40.0838 116.532 39.7997C116.995 39.5128 117.539 39.3693 118.164 39.3693C118.567 39.3693 118.948 39.4347 119.306 39.5653C119.667 39.6932 119.985 39.892 120.261 40.1619C120.539 40.4318 120.758 40.7756 120.917 41.1932C121.076 41.608 121.156 42.1023 121.156 42.6761V43.1491H115.79V42.1094H119.677C119.674 41.8139 119.61 41.5511 119.485 41.321C119.36 41.0881 119.185 40.9048 118.961 40.7713C118.739 40.6378 118.481 40.571 118.185 40.571C117.87 40.571 117.593 40.6477 117.354 40.8011C117.116 40.9517 116.93 41.1506 116.796 41.3977C116.665 41.642 116.599 41.9105 116.596 42.2031V43.1108C116.596 43.4915 116.665 43.8182 116.805 44.0909C116.944 44.3608 117.138 44.5682 117.388 44.7131C117.638 44.8551 117.931 44.9261 118.266 44.9261C118.491 44.9261 118.694 44.8949 118.876 44.8324C119.058 44.767 119.215 44.6719 119.349 44.5469C119.482 44.4219 119.583 44.267 119.651 44.0824L121.092 44.2443C121.001 44.625 120.827 44.9574 120.572 45.2415C120.319 45.5227 119.995 45.7415 119.6 45.8977C119.205 46.0511 118.754 46.1278 118.245 46.1278ZM125.729 39.4545V40.6477H121.966V39.4545H125.729ZM122.895 37.8864H124.438V44.0312C124.438 44.2386 124.469 44.3977 124.532 44.5085C124.597 44.6165 124.682 44.6903 124.787 44.7301C124.892 44.7699 125.009 44.7898 125.137 44.7898C125.233 44.7898 125.321 44.7827 125.401 44.7685C125.483 44.7543 125.546 44.7415 125.588 44.7301L125.848 45.9361C125.766 45.9645 125.648 45.9957 125.495 46.0298C125.344 46.0639 125.159 46.0838 124.941 46.0895C124.554 46.1009 124.206 46.0426 123.897 45.9148C123.587 45.7841 123.341 45.5824 123.159 45.3097C122.98 45.0369 122.892 44.696 122.895 44.2869V37.8864ZM130.288 39.4545V40.6477H126.525V39.4545H130.288ZM127.454 37.8864H128.996V44.0312C128.996 44.2386 129.028 44.3977 129.09 44.5085C129.156 44.6165 129.241 44.6903 129.346 44.7301C129.451 44.7699 129.567 44.7898 129.695 44.7898C129.792 44.7898 129.88 44.7827 129.96 44.7685C130.042 44.7543 130.104 44.7415 130.147 44.7301L130.407 45.9361C130.325 45.9645 130.207 45.9957 130.053 46.0298C129.903 46.0639 129.718 46.0838 129.499 46.0895C129.113 46.1009 128.765 46.0426 128.455 45.9148C128.146 45.7841 127.9 45.5824 127.718 45.3097C127.539 45.0369 127.451 44.696 127.454 44.2869V37.8864ZM136.657 41.1847L135.251 41.3381C135.211 41.196 135.142 41.0625 135.042 40.9375C134.946 40.8125 134.815 40.7116 134.65 40.6349C134.485 40.5582 134.284 40.5199 134.045 40.5199C133.724 40.5199 133.454 40.5895 133.235 40.7287C133.02 40.8679 132.913 41.0483 132.916 41.2699C132.913 41.4602 132.983 41.6151 133.125 41.7344C133.27 41.8537 133.508 41.9517 133.841 42.0284L134.957 42.267C135.576 42.4006 136.037 42.6122 136.338 42.902C136.642 43.1918 136.795 43.571 136.798 44.0398C136.795 44.4517 136.674 44.8153 136.436 45.1307C136.2 45.4432 135.872 45.6875 135.451 45.8636C135.031 46.0398 134.548 46.1278 134.002 46.1278C133.201 46.1278 132.556 45.9602 132.068 45.625C131.579 45.2869 131.288 44.8168 131.194 44.2145L132.699 44.0696C132.767 44.3651 132.912 44.5881 133.133 44.7386C133.355 44.8892 133.643 44.9645 133.998 44.9645C134.365 44.9645 134.659 44.8892 134.88 44.7386C135.105 44.5881 135.217 44.402 135.217 44.1804C135.217 43.9929 135.145 43.8381 135 43.7159C134.858 43.5937 134.636 43.5 134.335 43.4347L133.218 43.2003C132.591 43.0696 132.126 42.8494 131.825 42.5398C131.524 42.2273 131.375 41.8324 131.377 41.3551C131.375 40.9517 131.484 40.6023 131.706 40.3068C131.93 40.0085 132.241 39.7784 132.639 39.6165C133.039 39.4517 133.501 39.3693 134.024 39.3693C134.791 39.3693 135.395 39.5327 135.835 39.8594C136.278 40.1861 136.552 40.6278 136.657 41.1847Z" fill="#0E100F"/>
<path d="M80.4915 57.5831H79.4943C79.456 57.37 79.3846 57.1825 79.2802 57.0206C79.1758 56.8587 79.0479 56.7212 78.8967 56.6083C78.7454 56.4954 78.576 56.4102 78.3885 56.3526C78.2031 56.2951 78.006 56.2663 77.7972 56.2663C77.4201 56.2663 77.0824 56.3612 76.7841 56.5508C76.4879 56.7404 76.2536 57.0185 76.081 57.3849C75.9105 57.7514 75.8253 58.1989 75.8253 58.7273C75.8253 59.2599 75.9105 59.7095 76.081 60.076C76.2536 60.4425 76.489 60.7195 76.7873 60.907C77.0856 61.0945 77.4212 61.1882 77.794 61.1882C78.0007 61.1882 78.1967 61.1605 78.3821 61.1051C78.5696 61.0476 78.739 60.9634 78.8903 60.8526C79.0415 60.7418 79.1694 60.6065 79.2738 60.4467C79.3803 60.2848 79.4538 60.0994 79.4943 59.8906L80.4915 59.8938C80.4382 60.2156 80.3349 60.5117 80.1815 60.7823C80.0302 61.0508 79.8352 61.283 79.5966 61.479C79.3601 61.6729 79.0895 61.8232 78.7848 61.9297C78.4801 62.0362 78.1477 62.0895 77.7876 62.0895C77.2209 62.0895 76.7159 61.9553 76.2727 61.6868C75.8295 61.4162 75.4801 61.0295 75.2244 60.5266C74.9709 60.0238 74.8441 59.424 74.8441 58.7273C74.8441 58.0284 74.9719 57.4286 75.2276 56.9279C75.4833 56.4251 75.8327 56.0394 76.2759 55.771C76.7191 55.5004 77.223 55.3651 77.7876 55.3651C78.1349 55.3651 78.4588 55.4151 78.7592 55.5153C79.0618 55.6133 79.3335 55.7582 79.5742 55.9499C79.815 56.1396 80.0142 56.3718 80.1719 56.6467C80.3295 56.9194 80.4361 57.2315 80.4915 57.5831ZM81.6732 62V55.4545H85.7769V56.3047H82.6608V58.299H85.5628V59.146H82.6608V61.1499H85.8153V62H81.6732ZM92.7818 58.7273C92.7818 59.4261 92.6539 60.027 92.3983 60.5298C92.1426 61.0305 91.7921 61.4162 91.3468 61.6868C90.9036 61.9553 90.3997 62.0895 89.835 62.0895C89.2683 62.0895 88.7623 61.9553 88.3169 61.6868C87.8738 61.4162 87.5243 61.0295 87.2686 60.5266C87.013 60.0238 86.8851 59.424 86.8851 58.7273C86.8851 58.0284 87.013 57.4286 87.2686 56.9279C87.5243 56.4251 87.8738 56.0394 88.3169 55.771C88.7623 55.5004 89.2683 55.3651 89.835 55.3651C90.3997 55.3651 90.9036 55.5004 91.3468 55.771C91.7921 56.0394 92.1426 56.4251 92.3983 56.9279C92.6539 57.4286 92.7818 58.0284 92.7818 58.7273ZM91.8038 58.7273C91.8038 58.1946 91.7175 57.7461 91.5449 57.3817C91.3745 57.0153 91.1401 56.7383 90.8418 56.5508C90.5456 56.3612 90.21 56.2663 89.835 56.2663C89.4579 56.2663 89.1213 56.3612 88.8251 56.5508C88.5289 56.7383 88.2946 57.0153 88.122 57.3817C87.9515 57.7461 87.8663 58.1946 87.8663 58.7273C87.8663 59.2599 87.9515 59.7095 88.122 60.076C88.2946 60.4403 88.5289 60.7173 88.8251 60.907C89.1213 61.0945 89.4579 61.1882 89.835 61.1882C90.21 61.1882 90.5456 61.0945 90.8418 60.907C91.1401 60.7173 91.3745 60.4403 91.5449 60.076C91.7175 59.7095 91.8038 59.2599 91.8038 58.7273ZM96.3182 62V57.0909H97.2738V62H96.3182ZM96.8008 56.3335C96.6346 56.3335 96.4918 56.2781 96.3725 56.1673C96.2553 56.0543 96.1967 55.9201 96.1967 55.7646C96.1967 55.6069 96.2553 55.4727 96.3725 55.3619C96.4918 55.2489 96.6346 55.1925 96.8008 55.1925C96.967 55.1925 97.1087 55.2489 97.2259 55.3619C97.3452 55.4727 97.4048 55.6069 97.4048 55.7646C97.4048 55.9201 97.3452 56.0543 97.2259 56.1673C97.1087 56.2781 96.967 56.3335 96.8008 56.3335ZM99.515 59.0852V62H98.5594V57.0909H99.4767V57.8899H99.5374C99.6503 57.63 99.8271 57.4212 100.068 57.2635C100.311 57.1058 100.617 57.027 100.985 57.027C101.32 57.027 101.613 57.0973 101.864 57.2379C102.116 57.3764 102.31 57.5831 102.449 57.858C102.587 58.1328 102.657 58.4727 102.657 58.8775V62H101.701V58.9925C101.701 58.6367 101.608 58.3587 101.423 58.1584C101.238 57.956 100.983 57.8548 100.659 57.8548C100.438 57.8548 100.241 57.9027 100.068 57.9986C99.8975 58.0945 99.7622 58.2351 99.662 58.4205C99.564 58.6037 99.515 58.8253 99.515 59.0852ZM106.95 62H105.901L108.257 55.4545H109.398L111.753 62H110.705L108.855 56.6435H108.803L106.95 62ZM107.126 59.4368H110.526V60.2678H107.126V59.4368ZM113.578 55.4545V62H112.622V55.4545H113.578ZM115.819 55.4545V62H114.863V55.4545H115.819ZM117.181 62V55.4545H119.514C120.023 55.4545 120.445 55.5472 120.78 55.7326C121.114 55.918 121.365 56.1715 121.531 56.4933C121.697 56.8129 121.78 57.1729 121.78 57.5735C121.78 57.9762 121.696 58.3384 121.528 58.6602C121.361 58.9798 121.11 59.2333 120.773 59.4208C120.439 59.6062 120.018 59.6989 119.511 59.6989H117.907V58.8615H119.421C119.743 58.8615 120.004 58.8061 120.204 58.6953C120.405 58.5824 120.552 58.429 120.646 58.2351C120.739 58.0412 120.786 57.8207 120.786 57.5735C120.786 57.3263 120.739 57.1069 120.646 56.9151C120.552 56.7234 120.404 56.5732 120.201 56.4645C120.001 56.3558 119.737 56.3015 119.409 56.3015H118.169V62H117.181ZM122.861 62V57.0909H123.785V57.8707H123.836C123.925 57.6065 124.083 57.3988 124.309 57.2475C124.537 57.0941 124.795 57.0174 125.082 57.0174C125.142 57.0174 125.212 57.0195 125.293 57.0238C125.376 57.0281 125.441 57.0334 125.488 57.0398V57.9538C125.45 57.9432 125.382 57.9315 125.284 57.9187C125.186 57.9038 125.088 57.8963 124.99 57.8963C124.764 57.8963 124.563 57.9442 124.386 58.0401C124.211 58.1339 124.072 58.2649 123.97 58.4332C123.868 58.5994 123.817 58.7891 123.817 59.0021V62H122.861ZM128.207 62.0991C127.747 62.0991 127.345 61.9936 127.002 61.7827C126.659 61.5717 126.393 61.2766 126.203 60.8974C126.014 60.5181 125.919 60.0749 125.919 59.5678C125.919 59.0586 126.014 58.6133 126.203 58.2319C126.393 57.8505 126.659 57.5543 127.002 57.3434C127.345 57.1325 127.747 57.027 128.207 57.027C128.668 57.027 129.069 57.1325 129.412 57.3434C129.755 57.5543 130.022 57.8505 130.211 58.2319C130.401 58.6133 130.496 59.0586 130.496 59.5678C130.496 60.0749 130.401 60.5181 130.211 60.8974C130.022 61.2766 129.755 61.5717 129.412 61.7827C129.069 61.9936 128.668 62.0991 128.207 62.0991ZM128.21 61.2969C128.509 61.2969 128.756 61.218 128.952 61.0604C129.148 60.9027 129.293 60.6928 129.387 60.4308C129.483 60.1687 129.53 59.88 129.53 59.5646C129.53 59.2514 129.483 58.9638 129.387 58.7017C129.293 58.4375 129.148 58.2255 128.952 58.0657C128.756 57.9059 128.509 57.826 128.21 57.826C127.91 57.826 127.661 57.9059 127.463 58.0657C127.267 58.2255 127.121 58.4375 127.025 58.7017C126.931 58.9638 126.884 59.2514 126.884 59.5646C126.884 59.88 126.931 60.1687 127.025 60.4308C127.121 60.6928 127.267 60.9027 127.463 61.0604C127.661 61.218 127.91 61.2969 128.21 61.2969ZM133.4 62.0959C133.004 62.0959 132.65 61.9947 132.339 61.7923C132.03 61.5877 131.787 61.2969 131.61 60.9197C131.436 60.5405 131.348 60.0856 131.348 59.555C131.348 59.0245 131.437 58.5707 131.613 58.1935C131.792 57.8164 132.037 57.5277 132.349 57.3274C132.66 57.1271 133.012 57.027 133.406 57.027C133.711 57.027 133.956 57.0781 134.142 57.1804C134.329 57.2805 134.474 57.3977 134.576 57.532C134.681 57.6662 134.762 57.7844 134.819 57.8867H134.877V55.4545H135.832V62H134.899V61.2362H134.819C134.762 61.3406 134.678 61.4599 134.57 61.5941C134.463 61.7283 134.316 61.8455 134.129 61.9457C133.941 62.0458 133.698 62.0959 133.4 62.0959ZM133.611 61.2809C133.886 61.2809 134.118 61.2085 134.308 61.0636C134.499 60.9165 134.644 60.7131 134.742 60.4531C134.843 60.1932 134.893 59.8906 134.893 59.5455C134.893 59.2045 134.844 58.9062 134.746 58.6506C134.648 58.3949 134.504 58.1957 134.314 58.0529C134.124 57.9102 133.89 57.8388 133.611 57.8388C133.323 57.8388 133.084 57.9134 132.892 58.0625C132.7 58.2116 132.555 58.4151 132.457 58.6729C132.361 58.9308 132.313 59.2216 132.313 59.5455C132.313 59.8736 132.362 60.1687 132.46 60.4308C132.558 60.6928 132.703 60.9006 132.895 61.054C133.089 61.2053 133.328 61.2809 133.611 61.2809ZM140.306 59.9641V57.0909H141.265V62H140.325V61.1499H140.274C140.161 61.4119 139.98 61.6303 139.731 61.805C139.483 61.9776 139.176 62.0639 138.807 62.0639C138.492 62.0639 138.212 61.9947 137.97 61.8562C137.729 61.7156 137.539 61.5078 137.401 61.233C137.264 60.9581 137.196 60.6183 137.196 60.2134V57.0909H138.152V60.0984C138.152 60.4329 138.244 60.6992 138.43 60.8974C138.615 61.0955 138.856 61.1946 139.152 61.1946C139.331 61.1946 139.509 61.1499 139.686 61.0604C139.865 60.9709 140.013 60.8356 140.13 60.6545C140.249 60.4734 140.308 60.2433 140.306 59.9641ZM144.616 62.0991C144.141 62.0991 143.732 61.9915 143.389 61.7763C143.048 61.5589 142.786 61.2596 142.603 60.8782C142.42 60.4968 142.328 60.06 142.328 59.5678C142.328 59.0692 142.422 58.6293 142.609 58.2479C142.797 57.8643 143.061 57.565 143.402 57.3498C143.743 57.1346 144.145 57.027 144.607 57.027C144.98 57.027 145.312 57.0962 145.604 57.2347C145.896 57.3711 146.131 57.5629 146.31 57.81C146.491 58.0572 146.599 58.3459 146.633 58.6761H145.703C145.652 58.446 145.535 58.2479 145.352 58.0817C145.17 57.9155 144.928 57.8324 144.623 57.8324C144.357 57.8324 144.123 57.9027 143.923 58.0433C143.725 58.1818 143.57 58.38 143.46 58.6378C143.349 58.8935 143.293 59.196 143.293 59.5455C143.293 59.9034 143.348 60.2124 143.456 60.4723C143.565 60.7322 143.718 60.9336 143.917 61.0763C144.117 61.2191 144.352 61.2905 144.623 61.2905C144.804 61.2905 144.968 61.2575 145.115 61.1914C145.264 61.1232 145.389 61.0263 145.489 60.9006C145.591 60.7749 145.663 60.6236 145.703 60.4467H146.633C146.599 60.7642 146.496 61.0476 146.323 61.2969C146.151 61.5462 145.919 61.7422 145.63 61.8849C145.342 62.0277 145.004 62.0991 144.616 62.0991ZM149.947 57.0909V57.858H147.265V57.0909H149.947ZM147.984 55.9148H148.94V60.5586C148.94 60.744 148.968 60.8835 149.023 60.9773C149.078 61.0689 149.15 61.1317 149.237 61.1658C149.327 61.1978 149.424 61.2138 149.528 61.2138C149.605 61.2138 149.672 61.2085 149.729 61.1978C149.787 61.1871 149.832 61.1786 149.864 61.1722L150.036 61.9616C149.981 61.983 149.902 62.0043 149.8 62.0256C149.697 62.049 149.57 62.0618 149.416 62.0639C149.165 62.0682 148.93 62.0234 148.713 61.9297C148.496 61.8359 148.32 61.6911 148.186 61.495C148.051 61.299 147.984 61.0529 147.984 60.7567V55.9148ZM154.603 58.2894L153.737 58.4428C153.701 58.332 153.643 58.2266 153.565 58.1264C153.488 58.0263 153.383 57.9442 153.251 57.8803C153.119 57.8164 152.954 57.7844 152.756 57.7844C152.485 57.7844 152.259 57.8452 152.078 57.9666C151.897 58.0859 151.807 58.2404 151.807 58.43C151.807 58.5941 151.867 58.7262 151.989 58.8263C152.11 58.9265 152.306 59.0085 152.577 59.0724L153.357 59.2514C153.809 59.3558 154.145 59.5167 154.367 59.734C154.588 59.9513 154.699 60.2337 154.699 60.581C154.699 60.875 154.614 61.1371 154.443 61.3672C154.275 61.5952 154.04 61.7741 153.737 61.9041C153.437 62.0341 153.088 62.0991 152.692 62.0991C152.142 62.0991 151.694 61.9819 151.347 61.7475C150.999 61.511 150.786 61.1754 150.707 60.7408L151.631 60.6001C151.688 60.8409 151.807 61.0231 151.986 61.1467C152.165 61.2681 152.398 61.3288 152.686 61.3288C152.999 61.3288 153.249 61.2638 153.437 61.1339C153.624 61.0018 153.718 60.8409 153.718 60.6513C153.718 60.4979 153.66 60.369 153.545 60.2646C153.432 60.1602 153.259 60.0813 153.024 60.0281L152.193 59.8459C151.735 59.7415 151.397 59.5753 151.177 59.3473C150.96 59.1193 150.851 58.8306 150.851 58.4812C150.851 58.1914 150.932 57.9379 151.094 57.7205C151.256 57.5032 151.48 57.3338 151.765 57.2124C152.051 57.0888 152.378 57.027 152.746 57.027C153.277 57.027 153.695 57.142 153.999 57.3722C154.304 57.6001 154.505 57.9059 154.603 58.2894Z" fill="#616161"/>
<path d="M40.7322 78.3047V77.4545H45.7979V78.3047H43.7557V84H42.7713V78.3047H40.7322ZM47.7963 81.0852V84H46.8406V77.4545H47.7835V79.8899H47.8442C47.9593 79.6257 48.135 79.4158 48.3715 79.2603C48.608 79.1048 48.917 79.027 49.2984 79.027C49.635 79.027 49.9291 79.0962 50.1805 79.2347C50.434 79.3732 50.6301 79.5799 50.7686 79.8548C50.9092 80.1275 50.9795 80.4684 50.9795 80.8775V84H50.0239V80.9925C50.0239 80.6325 49.9312 80.3533 49.7458 80.1552C49.5605 79.9549 49.3026 79.8548 48.9724 79.8548C48.7465 79.8548 48.5441 79.9027 48.3651 79.9986C48.1883 80.0945 48.0487 80.2351 47.9465 80.4205C47.8463 80.6037 47.7963 80.8253 47.7963 81.0852ZM53.6833 84.1087C53.3722 84.1087 53.091 84.0511 52.8396 83.9361C52.5882 83.8189 52.3889 83.6495 52.2419 83.4279C52.097 83.2063 52.0246 82.9347 52.0246 82.6129C52.0246 82.3359 52.0779 82.108 52.1844 81.929C52.2909 81.75 52.4347 81.6083 52.6159 81.5039C52.797 81.3995 52.9994 81.3207 53.2231 81.2674C53.4468 81.2141 53.6748 81.1737 53.907 81.146C54.2011 81.1119 54.4397 81.0842 54.623 81.0629C54.8062 81.0394 54.9394 81.0021 55.0225 80.951C55.1056 80.8999 55.1471 80.8168 55.1471 80.7017V80.6793C55.1471 80.4002 55.0683 80.1839 54.9106 80.0305C54.7551 79.8771 54.5228 79.8004 54.2139 79.8004C53.8921 79.8004 53.6386 79.8718 53.4532 80.0146C53.27 80.1552 53.1432 80.3118 53.0729 80.4844L52.1748 80.2798C52.2813 79.9815 52.4369 79.7408 52.6414 79.5575C52.8481 79.3722 53.0857 79.2379 53.3541 79.1548C53.6226 79.0696 53.9049 79.027 54.2011 79.027C54.3971 79.027 54.6048 79.0504 54.8243 79.0973C55.0459 79.142 55.2526 79.2251 55.4443 79.3466C55.6382 79.468 55.797 79.6417 55.9205 79.8675C56.0441 80.0913 56.1059 80.3821 56.1059 80.7401V84H55.1727V83.3288H55.1343C55.0725 83.4524 54.9798 83.5739 54.8563 83.6932C54.7327 83.8125 54.574 83.9116 54.3801 83.9904C54.1862 84.0692 53.9539 84.1087 53.6833 84.1087ZM53.8911 83.3416C54.1553 83.3416 54.3811 83.2894 54.5686 83.185C54.7583 83.0806 54.9021 82.9442 55.0001 82.7759C55.1002 82.6055 55.1503 82.4233 55.1503 82.2294V81.5966C55.1162 81.6307 55.0502 81.6626 54.9521 81.6925C54.8563 81.7202 54.7465 81.7447 54.623 81.766C54.4994 81.7852 54.379 81.8033 54.2618 81.8203C54.1446 81.8352 54.0466 81.848 53.9678 81.8587C53.7824 81.8821 53.613 81.9215 53.4596 81.9769C53.3083 82.0323 53.1869 82.1122 53.0953 82.2166C53.0058 82.3189 52.961 82.4553 52.961 82.6257C52.961 82.8622 53.0484 83.0412 53.2231 83.1626C53.3978 83.282 53.6205 83.3416 53.8911 83.3416ZM58.3343 81.0852V84H57.3787V79.0909H58.296V79.8899H58.3567C58.4696 79.63 58.6465 79.4212 58.8873 79.2635C59.1301 79.1058 59.4359 79.027 59.8045 79.027C60.139 79.027 60.432 79.0973 60.6834 79.2379C60.9348 79.3764 61.1298 79.5831 61.2683 79.858C61.4068 80.1328 61.476 80.4727 61.476 80.8775V84H60.5204V80.9925C60.5204 80.6367 60.4277 80.3587 60.2424 80.1584C60.057 79.956 59.8024 79.8548 59.4785 79.8548C59.2569 79.8548 59.0598 79.9027 58.8873 79.9986C58.7168 80.0945 58.5815 80.2351 58.4814 80.4205C58.3833 80.6037 58.3343 80.8253 58.3343 81.0852ZM63.6365 82.3349L63.6301 81.1683H63.7963L65.7523 79.0909H66.8965L64.6657 81.456H64.5154L63.6365 82.3349ZM62.7576 84V77.4545H63.7132V84H62.7576ZM65.8578 84L64.1 81.6669L64.7583 80.9989L67.0307 84H65.8578ZM71.446 80.2894L70.5799 80.4428C70.5437 80.332 70.4862 80.2266 70.4073 80.1264C70.3306 80.0263 70.2262 79.9442 70.0941 79.8803C69.962 79.8164 69.7969 79.7844 69.5987 79.7844C69.3281 79.7844 69.1023 79.8452 68.9212 79.9666C68.7401 80.0859 68.6495 80.2404 68.6495 80.43C68.6495 80.5941 68.7102 80.7262 68.8317 80.8263C68.9531 80.9265 69.1491 81.0085 69.4197 81.0724L70.1996 81.2514C70.6513 81.3558 70.9879 81.5167 71.2095 81.734C71.4311 81.9513 71.5419 82.2337 71.5419 82.581C71.5419 82.875 71.4567 83.1371 71.2862 83.3672C71.1179 83.5952 70.8825 83.7741 70.5799 83.9041C70.2795 84.0341 69.9311 84.0991 69.5348 84.0991C68.9851 84.0991 68.5366 83.9819 68.1893 83.7475C67.842 83.511 67.6289 83.1754 67.5501 82.7408L68.4737 82.6001C68.5313 82.8409 68.6495 83.0231 68.8285 83.1467C69.0075 83.2681 69.2408 83.3288 69.5284 83.3288C69.8416 83.3288 70.092 83.2638 70.2795 83.1339C70.467 83.0018 70.5607 82.8409 70.5607 82.6513C70.5607 82.4979 70.5032 82.369 70.3881 82.2646C70.2752 82.1602 70.1016 82.0813 69.8672 82.0281L69.0362 81.8459C68.5781 81.7415 68.2393 81.5753 68.0199 81.3473C67.8026 81.1193 67.6939 80.8306 67.6939 80.4812C67.6939 80.1914 67.7749 79.9379 67.9368 79.7205C68.0987 79.5032 68.3224 79.3338 68.608 79.2124C68.8935 79.0888 69.2205 79.027 69.5891 79.027C70.1197 79.027 70.5373 79.142 70.842 79.3722C71.1467 79.6001 71.348 79.9059 71.446 80.2894ZM77.3107 79.0909V79.858H74.5366V79.0909H77.3107ZM75.2972 84V78.522C75.2972 78.2152 75.3643 77.9606 75.4986 77.7582C75.6328 77.5536 75.8107 77.4013 76.0323 77.3011C76.2539 77.1989 76.4947 77.1477 76.7546 77.1477C76.9464 77.1477 77.1104 77.1637 77.2468 77.1957C77.3832 77.2255 77.4844 77.2532 77.5504 77.2788L77.3267 78.0522C77.282 78.0394 77.2244 78.0245 77.1541 78.0075C77.0838 77.9883 76.9986 77.9787 76.8984 77.9787C76.6662 77.9787 76.5 78.0362 76.3999 78.1513C76.3018 78.2663 76.2528 78.4325 76.2528 78.6499V84H75.2972ZM80.1712 84.0991C79.7109 84.0991 79.3093 83.9936 78.9663 83.7827C78.6232 83.5717 78.3569 83.2766 78.1673 82.8974C77.9776 82.5181 77.8828 82.0749 77.8828 81.5678C77.8828 81.0586 77.9776 80.6133 78.1673 80.2319C78.3569 79.8505 78.6232 79.5543 78.9663 79.3434C79.3093 79.1325 79.7109 79.027 80.1712 79.027C80.6314 79.027 81.033 79.1325 81.3761 79.3434C81.7191 79.5543 81.9854 79.8505 82.1751 80.2319C82.3647 80.6133 82.4595 81.0586 82.4595 81.5678C82.4595 82.0749 82.3647 82.5181 82.1751 82.8974C81.9854 83.2766 81.7191 83.5717 81.3761 83.7827C81.033 83.9936 80.6314 84.0991 80.1712 84.0991ZM80.1744 83.2969C80.4727 83.2969 80.7198 83.218 80.9158 83.0604C81.1119 82.9027 81.2567 82.6928 81.3505 82.4308C81.4464 82.1687 81.4943 81.88 81.4943 81.5646C81.4943 81.2514 81.4464 80.9638 81.3505 80.7017C81.2567 80.4375 81.1119 80.2255 80.9158 80.0657C80.7198 79.9059 80.4727 79.826 80.1744 79.826C79.8739 79.826 79.6246 79.9059 79.4265 80.0657C79.2305 80.2255 79.0845 80.4375 78.9886 80.7017C78.8949 80.9638 78.848 81.2514 78.848 81.5646C78.848 81.88 78.8949 82.1687 78.9886 82.4308C79.0845 82.6928 79.2305 82.9027 79.4265 83.0604C79.6246 83.218 79.8739 83.2969 80.1744 83.2969ZM83.5262 84V79.0909H84.4498V79.8707H84.501C84.5905 79.6065 84.7481 79.3988 84.974 79.2475C85.202 79.0941 85.4598 79.0174 85.7474 79.0174C85.8071 79.0174 85.8774 79.0195 85.9584 79.0238C86.0415 79.0281 86.1064 79.0334 86.1533 79.0398V79.9538C86.115 79.9432 86.0468 79.9315 85.9488 79.9187C85.8508 79.9038 85.7528 79.8963 85.6547 79.8963C85.4289 79.8963 85.2275 79.9442 85.0507 80.0401C84.876 80.1339 84.7375 80.2649 84.6352 80.4332C84.5329 80.5994 84.4818 80.7891 84.4818 81.0021V84H83.5262ZM89.9662 85.8409C89.8234 85.8409 89.6934 85.8292 89.5763 85.8058C89.4591 85.7844 89.3717 85.761 89.3142 85.7354L89.5443 84.9524C89.719 84.9993 89.8746 85.0195 90.0109 85.0131C90.1473 85.0067 90.2677 84.9556 90.3721 84.8597C90.4786 84.7638 90.5724 84.6072 90.6533 84.3899L90.7716 84.0639L88.9754 79.0909H89.9981L91.2414 82.9006H91.2925L92.5358 79.0909H93.5617L91.5386 84.6552C91.4449 84.9109 91.3256 85.1271 91.1807 85.304C91.0358 85.483 90.8632 85.6172 90.6629 85.7067C90.4626 85.7962 90.2304 85.8409 89.9662 85.8409ZM96.3606 84.0991C95.9004 84.0991 95.4988 83.9936 95.1557 83.7827C94.8127 83.5717 94.5463 83.2766 94.3567 82.8974C94.1671 82.5181 94.0723 82.0749 94.0723 81.5678C94.0723 81.0586 94.1671 80.6133 94.3567 80.2319C94.5463 79.8505 94.8127 79.5543 95.1557 79.3434C95.4988 79.1325 95.9004 79.027 96.3606 79.027C96.8208 79.027 97.2225 79.1325 97.5655 79.3434C97.9086 79.5543 98.1749 79.8505 98.3645 80.2319C98.5542 80.6133 98.649 81.0586 98.649 81.5678C98.649 82.0749 98.5542 82.5181 98.3645 82.8974C98.1749 83.2766 97.9086 83.5717 97.5655 83.7827C97.2225 83.9936 96.8208 84.0991 96.3606 84.0991ZM96.3638 83.2969C96.6621 83.2969 96.9093 83.218 97.1053 83.0604C97.3013 82.9027 97.4462 82.6928 97.54 82.4308C97.6358 82.1687 97.6838 81.88 97.6838 81.5646C97.6838 81.2514 97.6358 80.9638 97.54 80.7017C97.4462 80.4375 97.3013 80.2255 97.1053 80.0657C96.9093 79.9059 96.6621 79.826 96.3638 79.826C96.0634 79.826 95.8141 79.9059 95.6159 80.0657C95.4199 80.2255 95.274 80.4375 95.1781 80.7017C95.0843 80.9638 95.0375 81.2514 95.0375 81.5646C95.0375 81.88 95.0843 82.1687 95.1781 82.4308C95.274 82.6928 95.4199 82.9027 95.6159 83.0604C95.8141 83.218 96.0634 83.2969 96.3638 83.2969ZM102.825 81.9641V79.0909H103.784V84H102.845V83.1499H102.793C102.68 83.4119 102.499 83.6303 102.25 83.805C102.003 83.9776 101.695 84.0639 101.326 84.0639C101.011 84.0639 100.732 83.9947 100.489 83.8562C100.248 83.7156 100.059 83.5078 99.9202 83.233C99.7838 82.9581 99.7156 82.6183 99.7156 82.2134V79.0909H100.671V82.0984C100.671 82.4329 100.764 82.6992 100.949 82.8974C101.135 83.0955 101.375 83.1946 101.672 83.1946C101.851 83.1946 102.028 83.1499 102.205 83.0604C102.384 82.9709 102.532 82.8356 102.65 82.6545C102.769 82.4734 102.828 82.2433 102.825 81.9641ZM105.068 84V79.0909H105.992V79.8707H106.043C106.132 79.6065 106.29 79.3988 106.516 79.2475C106.744 79.0941 107.002 79.0174 107.289 79.0174C107.349 79.0174 107.419 79.0195 107.5 79.0238C107.583 79.0281 107.648 79.0334 107.695 79.0398V79.9538C107.657 79.9432 107.589 79.9315 107.491 79.9187C107.393 79.9038 107.295 79.8963 107.197 79.8963C106.971 79.8963 106.77 79.9442 106.593 80.0401C106.418 80.1339 106.279 80.2649 106.177 80.4332C106.075 80.5994 106.024 80.7891 106.024 81.0021V84H105.068ZM113.24 79.0909V79.858H110.466V79.0909H113.24ZM111.227 84V78.522C111.227 78.2152 111.294 77.9606 111.428 77.7582C111.563 77.5536 111.74 77.4013 111.962 77.3011C112.184 77.1989 112.424 77.1477 112.684 77.1477C112.876 77.1477 113.04 77.1637 113.176 77.1957C113.313 77.2255 113.414 77.2532 113.48 77.2788L113.256 78.0522C113.212 78.0394 113.154 78.0245 113.084 78.0075C113.013 77.9883 112.928 77.9787 112.828 77.9787C112.596 77.9787 112.43 78.0362 112.33 78.1513C112.232 78.2663 112.183 78.4325 112.183 78.6499V84H111.227ZM116.149 84.0991C115.665 84.0991 115.249 83.9957 114.899 83.7891C114.552 83.5803 114.283 83.2873 114.094 82.9102C113.906 82.5309 113.812 82.0866 113.812 81.5774C113.812 81.0746 113.906 80.6314 114.094 80.2479C114.283 79.8643 114.548 79.565 114.886 79.3498C115.227 79.1346 115.626 79.027 116.082 79.027C116.359 79.027 116.627 79.0728 116.887 79.1644C117.147 79.256 117.38 79.3999 117.587 79.5959C117.794 79.7919 117.957 80.0465 118.076 80.3597C118.195 80.6708 118.255 81.049 118.255 81.4943V81.8331H114.353V81.1172H117.319C117.319 80.8658 117.267 80.6431 117.165 80.4492C117.063 80.2532 116.919 80.0987 116.734 79.9858C116.55 79.8729 116.335 79.8164 116.088 79.8164C115.82 79.8164 115.585 79.8825 115.385 80.0146C115.187 80.1445 115.033 80.315 114.925 80.5259C114.818 80.7347 114.765 80.9616 114.765 81.2067V81.766C114.765 82.0941 114.822 82.3732 114.938 82.6033C115.055 82.8335 115.218 83.0092 115.426 83.1307C115.635 83.25 115.879 83.3097 116.158 83.3097C116.339 83.3097 116.505 83.2841 116.654 83.233C116.803 83.1797 116.932 83.1009 117.04 82.9964C117.149 82.892 117.232 82.7631 117.29 82.6097L118.194 82.7727C118.122 83.0391 117.992 83.2724 117.804 83.4727C117.619 83.6708 117.386 83.8253 117.104 83.9361C116.825 84.0447 116.507 84.0991 116.149 84.0991ZM121.431 84.0991C120.947 84.0991 120.531 83.9957 120.181 83.7891C119.834 83.5803 119.566 83.2873 119.376 82.9102C119.188 82.5309 119.095 82.0866 119.095 81.5774C119.095 81.0746 119.188 80.6314 119.376 80.2479C119.566 79.8643 119.83 79.565 120.169 79.3498C120.509 79.1346 120.908 79.027 121.364 79.027C121.641 79.027 121.909 79.0728 122.169 79.1644C122.429 79.256 122.663 79.3999 122.869 79.5959C123.076 79.7919 123.239 80.0465 123.358 80.3597C123.478 80.6708 123.537 81.049 123.537 81.4943V81.8331H119.635V81.1172H122.601C122.601 80.8658 122.55 80.6431 122.447 80.4492C122.345 80.2532 122.201 80.0987 122.016 79.9858C121.833 79.8729 121.617 79.8164 121.37 79.8164C121.102 79.8164 120.867 79.8825 120.667 80.0146C120.469 80.1445 120.316 80.315 120.207 80.5259C120.1 80.7347 120.047 80.9616 120.047 81.2067V81.766C120.047 82.0941 120.105 82.3732 120.22 82.6033C120.337 82.8335 120.5 83.0092 120.709 83.1307C120.918 83.25 121.161 83.3097 121.441 83.3097C121.622 83.3097 121.787 83.2841 121.936 83.233C122.085 83.1797 122.214 83.1009 122.323 82.9964C122.431 82.892 122.514 82.7631 122.572 82.6097L123.476 82.7727C123.404 83.0391 123.274 83.2724 123.087 83.4727C122.901 83.6708 122.668 83.8253 122.387 83.9361C122.108 84.0447 121.789 84.0991 121.431 84.0991ZM126.435 84.0959C126.039 84.0959 125.685 83.9947 125.374 83.7923C125.065 83.5877 124.822 83.2969 124.645 82.9197C124.471 82.5405 124.383 82.0856 124.383 81.555C124.383 81.0245 124.472 80.5707 124.649 80.1935C124.828 79.8164 125.073 79.5277 125.384 79.3274C125.695 79.1271 126.047 79.027 126.442 79.027C126.746 79.027 126.991 79.0781 127.177 79.1804C127.364 79.2805 127.509 79.3977 127.611 79.532C127.716 79.6662 127.797 79.7844 127.854 79.8867H127.912V77.4545H128.867V84H127.934V83.2362H127.854C127.797 83.3406 127.714 83.4599 127.605 83.5941C127.498 83.7283 127.351 83.8455 127.164 83.9457C126.976 84.0458 126.733 84.0959 126.435 84.0959ZM126.646 83.2809C126.921 83.2809 127.153 83.2085 127.343 83.0636C127.535 82.9165 127.68 82.7131 127.778 82.4531C127.878 82.1932 127.928 81.8906 127.928 81.5455C127.928 81.2045 127.879 80.9062 127.781 80.6506C127.683 80.3949 127.539 80.1957 127.349 80.0529C127.16 79.9102 126.925 79.8388 126.646 79.8388C126.358 79.8388 126.119 79.9134 125.927 80.0625C125.735 80.2116 125.59 80.4151 125.492 80.6729C125.396 80.9308 125.349 81.2216 125.349 81.5455C125.349 81.8736 125.398 82.1687 125.496 82.4308C125.594 82.6928 125.738 82.9006 125.93 83.054C126.124 83.2053 126.363 83.2809 126.646 83.2809ZM130.308 84V77.4545H131.264V79.8867H131.321C131.377 79.7844 131.456 79.6662 131.561 79.532C131.665 79.3977 131.81 79.2805 131.995 79.1804C132.181 79.0781 132.426 79.027 132.731 79.027C133.127 79.027 133.481 79.1271 133.792 79.3274C134.103 79.5277 134.347 79.8164 134.524 80.1935C134.703 80.5707 134.792 81.0245 134.792 81.555C134.792 82.0856 134.704 82.5405 134.527 82.9197C134.35 83.2969 134.107 83.5877 133.798 83.7923C133.489 83.9947 133.136 84.0959 132.74 84.0959C132.442 84.0959 132.198 84.0458 132.008 83.9457C131.821 83.8455 131.674 83.7283 131.567 83.5941C131.461 83.4599 131.379 83.3406 131.321 83.2362H131.241V84H130.308ZM131.244 81.5455C131.244 81.8906 131.294 82.1932 131.395 82.4531C131.495 82.7131 131.64 82.9165 131.829 83.0636C132.019 83.2085 132.251 83.2809 132.526 83.2809C132.812 83.2809 133.05 83.2053 133.242 83.054C133.434 82.9006 133.579 82.6928 133.677 82.4308C133.777 82.1687 133.827 81.8736 133.827 81.5455C133.827 81.2216 133.778 80.9308 133.68 80.6729C133.584 80.4151 133.439 80.2116 133.245 80.0625C133.053 79.9134 132.814 79.8388 132.526 79.8388C132.249 79.8388 132.015 79.9102 131.823 80.0529C131.633 80.1957 131.489 80.3949 131.391 80.6506C131.293 80.9062 131.244 81.2045 131.244 81.5455ZM137.294 84.1087C136.983 84.1087 136.701 84.0511 136.45 83.9361C136.199 83.8189 135.999 83.6495 135.852 83.4279C135.707 83.2063 135.635 82.9347 135.635 82.6129C135.635 82.3359 135.688 82.108 135.795 81.929C135.901 81.75 136.045 81.6083 136.226 81.5039C136.407 81.3995 136.61 81.3207 136.833 81.2674C137.057 81.2141 137.285 81.1737 137.517 81.146C137.811 81.1119 138.05 81.0842 138.233 81.0629C138.417 81.0394 138.55 81.0021 138.633 80.951C138.716 80.8999 138.757 80.8168 138.757 80.7017V80.6793C138.757 80.4002 138.679 80.1839 138.521 80.0305C138.365 79.8771 138.133 79.8004 137.824 79.8004C137.502 79.8004 137.249 79.8718 137.064 80.0146C136.88 80.1552 136.754 80.3118 136.683 80.4844L135.785 80.2798C135.892 79.9815 136.047 79.7408 136.252 79.5575C136.458 79.3722 136.696 79.2379 136.964 79.1548C137.233 79.0696 137.515 79.027 137.811 79.027C138.007 79.027 138.215 79.0504 138.435 79.0973C138.656 79.142 138.863 79.2251 139.055 79.3466C139.249 79.468 139.407 79.6417 139.531 79.8675C139.654 80.0913 139.716 80.3821 139.716 80.7401V84H138.783V83.3288H138.745C138.683 83.4524 138.59 83.5739 138.467 83.6932C138.343 83.8125 138.184 83.9116 137.99 83.9904C137.797 84.0692 137.564 84.1087 137.294 84.1087ZM137.501 83.3416C137.766 83.3416 137.991 83.2894 138.179 83.185C138.369 83.0806 138.512 82.9442 138.61 82.7759C138.711 82.6055 138.761 82.4233 138.761 82.2294V81.5966C138.727 81.6307 138.661 81.6626 138.562 81.6925C138.467 81.7202 138.357 81.7447 138.233 81.766C138.11 81.7852 137.989 81.8033 137.872 81.8203C137.755 81.8352 137.657 81.848 137.578 81.8587C137.393 81.8821 137.223 81.9215 137.07 81.9769C136.919 82.0323 136.797 82.1122 136.706 82.2166C136.616 82.3189 136.571 82.4553 136.571 82.6257C136.571 82.8622 136.659 83.0412 136.833 83.1626C137.008 83.282 137.231 83.3416 137.501 83.3416ZM143.057 84.0991C142.582 84.0991 142.173 83.9915 141.83 83.7763C141.489 83.5589 141.227 83.2596 141.043 82.8782C140.86 82.4968 140.769 82.06 140.769 81.5678C140.769 81.0692 140.862 80.6293 141.05 80.2479C141.237 79.8643 141.502 79.565 141.842 79.3498C142.183 79.1346 142.585 79.027 143.047 79.027C143.42 79.027 143.753 79.0962 144.044 79.2347C144.336 79.3711 144.572 79.5629 144.751 79.81C144.932 80.0572 145.04 80.3459 145.074 80.6761H144.144C144.092 80.446 143.975 80.2479 143.792 80.0817C143.611 79.9155 143.368 79.8324 143.063 79.8324C142.797 79.8324 142.564 79.9027 142.363 80.0433C142.165 80.1818 142.011 80.38 141.9 80.6378C141.789 80.8935 141.734 81.196 141.734 81.5455C141.734 81.9034 141.788 82.2124 141.897 82.4723C142.005 82.7322 142.159 82.9336 142.357 83.0763C142.557 83.2191 142.793 83.2905 143.063 83.2905C143.244 83.2905 143.408 83.2575 143.555 83.1914C143.705 83.1232 143.829 83.0263 143.929 82.9006C144.032 82.7749 144.103 82.6236 144.144 82.4467H145.074C145.04 82.7642 144.936 83.0476 144.764 83.2969C144.591 83.5462 144.36 83.7422 144.07 83.8849C143.782 84.0277 143.445 84.0991 143.057 84.0991ZM146.974 82.3349L146.968 81.1683H147.134L149.09 79.0909H150.234L148.004 81.456H147.853L146.974 82.3349ZM146.096 84V77.4545H147.051V84H146.096ZM149.196 84L147.438 81.6669L148.096 80.9989L150.369 84H149.196ZM151.735 84.0607C151.56 84.0607 151.41 83.9989 151.284 83.8754C151.159 83.7496 151.096 83.5984 151.096 83.4215C151.096 83.2468 151.159 83.0977 151.284 82.9741C151.41 82.8484 151.56 82.7855 151.735 82.7855C151.91 82.7855 152.06 82.8484 152.186 82.9741C152.311 83.0977 152.374 83.2468 152.374 83.4215C152.374 83.5387 152.344 83.6463 152.285 83.7443C152.227 83.8402 152.15 83.9169 152.055 83.9744C151.959 84.032 151.852 84.0607 151.735 84.0607Z" fill="#616161"/>
</g>
<g filter="url(#filter3_d_2351_4330)">
<rect x="146.336" y="86" width="127" height="73" rx="12" fill="white" shape-rendering="crispEdges"/>
<rect x="154.336" y="99.5" width="24" height="24" rx="12" fill="#DED9FF"/>
<path d="M190.317 106H188.63L191.702 97.2727H193.654L196.731 106H195.043L192.712 99.0625H192.644L190.317 106ZM190.373 102.578H194.975V103.848H190.373V102.578ZM199.355 97.2727V106H197.812V97.2727H199.355ZM203.839 106.128C203.183 106.128 202.616 105.991 202.138 105.719C201.664 105.443 201.299 105.054 201.043 104.551C200.788 104.045 200.66 103.45 200.66 102.766C200.66 102.092 200.788 101.501 201.043 100.993C201.302 100.482 201.663 100.084 202.126 99.7997C202.589 99.5128 203.133 99.3693 203.758 99.3693C204.161 99.3693 204.542 99.4347 204.9 99.5653C205.261 99.6932 205.579 99.892 205.854 100.162C206.133 100.432 206.352 100.776 206.511 101.193C206.67 101.608 206.749 102.102 206.749 102.676V103.149H201.384V102.109H205.271C205.268 101.814 205.204 101.551 205.079 101.321C204.954 101.088 204.779 100.905 204.555 100.771C204.333 100.638 204.075 100.571 203.779 100.571C203.464 100.571 203.187 100.648 202.948 100.801C202.71 100.952 202.523 101.151 202.39 101.398C202.259 101.642 202.192 101.911 202.19 102.203V103.111C202.19 103.491 202.259 103.818 202.398 104.091C202.538 104.361 202.732 104.568 202.982 104.713C203.232 104.855 203.525 104.926 203.86 104.926C204.085 104.926 204.288 104.895 204.469 104.832C204.651 104.767 204.809 104.672 204.942 104.547C205.076 104.422 205.177 104.267 205.245 104.082L206.685 104.244C206.594 104.625 206.421 104.957 206.165 105.241C205.913 105.523 205.589 105.741 205.194 105.898C204.799 106.051 204.347 106.128 203.839 106.128ZM209.175 99.4545L210.496 101.871L211.838 99.4545H213.471L211.498 102.727L213.505 106H211.881L210.496 103.643L209.124 106H207.488L209.482 102.727L207.539 99.4545H209.175ZM222.451 99.6719C222.412 99.2997 222.244 99.0099 221.949 98.8026C221.656 98.5952 221.275 98.4915 220.806 98.4915C220.477 98.4915 220.194 98.5412 219.958 98.6406C219.723 98.7401 219.542 98.875 219.417 99.0455C219.292 99.2159 219.228 99.4105 219.225 99.6293C219.225 99.8111 219.267 99.9687 219.349 100.102C219.434 100.236 219.549 100.349 219.694 100.443C219.839 100.534 220 100.611 220.176 100.673C220.352 100.736 220.529 100.788 220.708 100.831L221.527 101.036C221.856 101.112 222.173 101.216 222.477 101.347C222.784 101.477 223.058 101.642 223.299 101.841C223.544 102.04 223.737 102.28 223.879 102.561C224.021 102.842 224.092 103.172 224.092 103.55C224.092 104.061 223.961 104.511 223.7 104.901C223.439 105.287 223.061 105.589 222.566 105.808C222.075 106.024 221.48 106.132 220.781 106.132C220.102 106.132 219.512 106.027 219.012 105.817C218.515 105.607 218.126 105.3 217.845 104.896C217.566 104.493 217.416 104.001 217.393 103.422H218.949C218.971 103.726 219.065 103.979 219.23 104.18C219.395 104.382 219.609 104.533 219.873 104.632C220.14 104.732 220.439 104.781 220.768 104.781C221.112 104.781 221.413 104.73 221.672 104.628C221.933 104.523 222.137 104.378 222.285 104.193C222.433 104.006 222.508 103.787 222.511 103.537C222.508 103.31 222.441 103.122 222.311 102.974C222.18 102.824 221.997 102.699 221.761 102.599C221.528 102.497 221.255 102.406 220.943 102.327L219.95 102.071C219.231 101.886 218.663 101.607 218.245 101.232C217.831 100.854 217.623 100.352 217.623 99.7273C217.623 99.2131 217.762 98.7628 218.041 98.3764C218.322 97.9901 218.704 97.6903 219.187 97.4773C219.67 97.2614 220.217 97.1534 220.828 97.1534C221.447 97.1534 221.99 97.2614 222.456 97.4773C222.924 97.6903 223.292 97.9872 223.559 98.3679C223.826 98.7457 223.964 99.1804 223.973 99.6719H222.451ZM228.288 106.128C227.635 106.128 227.074 105.984 226.605 105.697C226.139 105.411 225.78 105.014 225.527 104.509C225.277 104 225.152 103.415 225.152 102.753C225.152 102.088 225.28 101.501 225.536 100.993C225.791 100.482 226.152 100.084 226.618 99.7997C227.087 99.5128 227.641 99.3693 228.28 99.3693C228.811 99.3693 229.281 99.4673 229.69 99.6634C230.102 99.8565 230.43 100.131 230.675 100.486C230.919 100.838 231.058 101.25 231.092 101.722H229.618C229.558 101.406 229.416 101.143 229.192 100.933C228.97 100.72 228.673 100.614 228.301 100.614C227.986 100.614 227.709 100.699 227.47 100.869C227.232 101.037 227.045 101.278 226.912 101.594C226.781 101.909 226.716 102.287 226.716 102.727C226.716 103.173 226.781 103.557 226.912 103.878C227.043 104.196 227.226 104.442 227.462 104.615C227.7 104.786 227.98 104.871 228.301 104.871C228.528 104.871 228.732 104.828 228.911 104.743C229.092 104.655 229.244 104.528 229.366 104.364C229.489 104.199 229.572 103.999 229.618 103.763H231.092C231.055 104.226 230.919 104.636 230.683 104.994C230.447 105.349 230.126 105.628 229.72 105.83C229.314 106.028 228.837 106.128 228.288 106.128ZM233.902 102.165V106H232.359V97.2727H233.868V100.567H233.944C234.098 100.197 234.335 99.9062 234.656 99.6932C234.98 99.4773 235.392 99.3693 235.892 99.3693C236.346 99.3693 236.743 99.4645 237.081 99.6548C237.419 99.8452 237.68 100.124 237.865 100.49C238.052 100.857 238.146 101.304 238.146 101.832V106H236.603V102.071C236.603 101.631 236.49 101.288 236.262 101.044C236.038 100.797 235.723 100.673 235.316 100.673C235.044 100.673 234.799 100.733 234.583 100.852C234.37 100.969 234.203 101.138 234.081 101.359C233.961 101.581 233.902 101.849 233.902 102.165ZM239.718 106V99.4545H241.193V100.567H241.27C241.406 100.192 241.632 99.8991 241.947 99.6889C242.262 99.4759 242.639 99.3693 243.076 99.3693C243.52 99.3693 243.893 99.4773 244.197 99.6932C244.504 99.9062 244.72 100.197 244.845 100.567H244.913C245.058 100.203 245.302 99.9134 245.646 99.6974C245.993 99.4787 246.403 99.3693 246.877 99.3693C247.48 99.3693 247.971 99.5597 248.352 99.9403C248.733 100.321 248.923 100.876 248.923 101.607V106H247.376V101.845C247.376 101.439 247.268 101.142 247.052 100.955C246.836 100.764 246.572 100.669 246.26 100.669C245.887 100.669 245.596 100.786 245.386 101.018C245.179 101.249 245.075 101.548 245.075 101.918V106H243.562V101.781C243.562 101.443 243.46 101.173 243.255 100.972C243.054 100.77 242.789 100.669 242.463 100.669C242.241 100.669 242.039 100.726 241.858 100.839C241.676 100.95 241.531 101.108 241.423 101.312C241.315 101.514 241.261 101.75 241.261 102.02V106H239.718ZM250.488 106V99.4545H252.031V106H250.488ZM251.263 98.5256C251.019 98.5256 250.809 98.4446 250.633 98.2827C250.457 98.1179 250.369 97.9205 250.369 97.6903C250.369 97.4574 250.457 97.2599 250.633 97.098C250.809 96.9332 251.019 96.8509 251.263 96.8509C251.511 96.8509 251.721 96.9332 251.894 97.098C252.07 97.2599 252.158 97.4574 252.158 97.6903C252.158 97.9205 252.07 98.1179 251.894 98.2827C251.721 98.4446 251.511 98.5256 251.263 98.5256ZM256.046 106.115C255.532 106.115 255.071 105.983 254.665 105.719C254.259 105.455 253.938 105.071 253.702 104.568C253.466 104.065 253.348 103.455 253.348 102.736C253.348 102.009 253.468 101.395 253.706 100.895C253.948 100.392 254.273 100.013 254.682 99.7571C255.091 99.4986 255.547 99.3693 256.05 99.3693C256.434 99.3693 256.749 99.4347 256.996 99.5653C257.243 99.6932 257.439 99.848 257.584 100.03C257.729 100.209 257.841 100.378 257.921 100.537H257.985V97.2727H259.532V106H258.015V104.969H257.921C257.841 105.128 257.726 105.297 257.576 105.476C257.425 105.652 257.226 105.803 256.979 105.928C256.732 106.053 256.421 106.115 256.046 106.115ZM256.476 104.849C256.803 104.849 257.081 104.761 257.311 104.585C257.542 104.406 257.716 104.158 257.836 103.839C257.955 103.521 258.015 103.151 258.015 102.727C258.015 102.304 257.955 101.936 257.836 101.624C257.719 101.311 257.546 101.068 257.316 100.895C257.088 100.722 256.809 100.635 256.476 100.635C256.132 100.635 255.846 100.724 255.615 100.903C255.385 101.082 255.212 101.33 255.096 101.645C254.979 101.96 254.921 102.321 254.921 102.727C254.921 103.136 254.979 103.501 255.096 103.822C255.215 104.141 255.39 104.392 255.62 104.577C255.853 104.759 256.138 104.849 256.476 104.849ZM264.444 99.4545V100.648H260.681V99.4545H264.444ZM261.61 97.8864H263.153V104.031C263.153 104.239 263.184 104.398 263.246 104.509C263.312 104.616 263.397 104.69 263.502 104.73C263.607 104.77 263.724 104.79 263.852 104.79C263.948 104.79 264.036 104.783 264.116 104.768C264.198 104.754 264.261 104.741 264.303 104.73L264.563 105.936C264.481 105.964 264.363 105.996 264.21 106.03C264.059 106.064 263.874 106.084 263.656 106.089C263.269 106.101 262.921 106.043 262.612 105.915C262.302 105.784 262.056 105.582 261.874 105.31C261.695 105.037 261.607 104.696 261.61 104.287V97.8864Z" fill="#0E100F"/>
<path d="M189.627 115.455L191.449 120.786H191.522L193.344 115.455H194.412L192.056 122H190.915L188.56 115.455H189.627ZM195.357 122V115.455H197.69C198.199 115.455 198.621 115.547 198.956 115.733C199.29 115.918 199.54 116.172 199.707 116.493C199.873 116.813 199.956 117.173 199.956 117.574C199.956 117.976 199.872 118.338 199.703 118.66C199.537 118.98 199.286 119.233 198.949 119.421C198.615 119.606 198.194 119.699 197.687 119.699H196.082V118.862H197.597C197.919 118.862 198.18 118.806 198.38 118.695C198.581 118.582 198.728 118.429 198.821 118.235C198.915 118.041 198.962 117.821 198.962 117.574C198.962 117.326 198.915 117.107 198.821 116.915C198.728 116.723 198.579 116.573 198.377 116.464C198.177 116.356 197.913 116.301 197.584 116.301H196.344V122H195.357ZM205.487 122.099C205.026 122.099 204.625 121.994 204.282 121.783C203.939 121.572 203.672 121.277 203.483 120.897C203.293 120.518 203.198 120.075 203.198 119.568C203.198 119.059 203.293 118.613 203.483 118.232C203.672 117.85 203.939 117.554 204.282 117.343C204.625 117.132 205.026 117.027 205.487 117.027C205.947 117.027 206.348 117.132 206.691 117.343C207.035 117.554 207.301 117.85 207.491 118.232C207.68 118.613 207.775 119.059 207.775 119.568C207.775 120.075 207.68 120.518 207.491 120.897C207.301 121.277 207.035 121.572 206.691 121.783C206.348 121.994 205.947 122.099 205.487 122.099ZM205.49 121.297C205.788 121.297 206.035 121.218 206.231 121.06C206.427 120.903 206.572 120.693 206.666 120.431C206.762 120.169 206.81 119.88 206.81 119.565C206.81 119.251 206.762 118.964 206.666 118.702C206.572 118.437 206.427 118.225 206.231 118.066C206.035 117.906 205.788 117.826 205.49 117.826C205.189 117.826 204.94 117.906 204.742 118.066C204.546 118.225 204.4 118.437 204.304 118.702C204.21 118.964 204.163 119.251 204.163 119.565C204.163 119.88 204.21 120.169 204.304 120.431C204.4 120.693 204.546 120.903 204.742 121.06C204.94 121.218 205.189 121.297 205.49 121.297ZM211.178 117.091V117.858H208.404V117.091H211.178ZM209.164 122V116.522C209.164 116.215 209.232 115.961 209.366 115.758C209.5 115.554 209.678 115.401 209.9 115.301C210.121 115.199 210.362 115.148 210.622 115.148C210.814 115.148 210.978 115.164 211.114 115.196C211.25 115.225 211.352 115.253 211.418 115.279L211.194 116.052C211.149 116.039 211.092 116.025 211.021 116.007C210.951 115.988 210.866 115.979 210.766 115.979C210.533 115.979 210.367 116.036 210.267 116.151C210.169 116.266 210.12 116.433 210.12 116.65V122H209.164ZM218.192 117.174C218.158 116.871 218.018 116.637 217.771 116.471C217.523 116.303 217.212 116.218 216.837 116.218C216.569 116.218 216.337 116.261 216.141 116.346C215.945 116.429 215.792 116.544 215.684 116.691C215.577 116.836 215.524 117.001 215.524 117.187C215.524 117.342 215.56 117.477 215.632 117.589C215.707 117.702 215.804 117.797 215.923 117.874C216.045 117.949 216.175 118.011 216.313 118.062C216.452 118.112 216.585 118.152 216.713 118.184L217.352 118.35C217.561 118.401 217.775 118.471 217.994 118.558C218.214 118.645 218.417 118.76 218.605 118.903C218.792 119.046 218.943 119.223 219.059 119.434C219.176 119.645 219.234 119.897 219.234 120.191C219.234 120.562 219.138 120.891 218.947 121.179C218.757 121.466 218.481 121.693 218.119 121.859C217.759 122.026 217.323 122.109 216.812 122.109C216.322 122.109 215.898 122.031 215.54 121.875C215.182 121.72 214.902 121.499 214.699 121.214C214.497 120.926 214.385 120.585 214.364 120.191H215.354C215.373 120.428 215.45 120.625 215.584 120.782C215.721 120.938 215.894 121.054 216.105 121.131C216.318 121.205 216.552 121.243 216.805 121.243C217.084 121.243 217.333 121.199 217.55 121.112C217.769 121.022 217.942 120.898 218.068 120.741C218.193 120.581 218.256 120.395 218.256 120.181C218.256 119.988 218.201 119.829 218.09 119.705C217.981 119.582 217.833 119.479 217.646 119.398C217.46 119.317 217.251 119.246 217.016 119.184L216.243 118.973C215.719 118.831 215.303 118.621 214.996 118.344C214.692 118.067 214.539 117.7 214.539 117.244C214.539 116.867 214.642 116.538 214.846 116.257C215.051 115.975 215.328 115.757 215.677 115.602C216.027 115.444 216.421 115.365 216.86 115.365C217.303 115.365 217.694 115.443 218.033 115.598C218.373 115.754 218.642 115.968 218.838 116.241C219.034 116.511 219.136 116.822 219.145 117.174H218.192ZM221.766 122.109C221.455 122.109 221.174 122.051 220.923 121.936C220.671 121.819 220.472 121.65 220.325 121.428C220.18 121.206 220.108 120.935 220.108 120.613C220.108 120.336 220.161 120.108 220.267 119.929C220.374 119.75 220.518 119.608 220.699 119.504C220.88 119.4 221.082 119.321 221.306 119.267C221.53 119.214 221.758 119.174 221.99 119.146C222.284 119.112 222.523 119.084 222.706 119.063C222.889 119.039 223.022 119.002 223.105 118.951C223.189 118.9 223.23 118.817 223.23 118.702V118.679C223.23 118.4 223.151 118.184 222.994 118.031C222.838 117.877 222.606 117.8 222.297 117.8C221.975 117.8 221.722 117.872 221.536 118.015C221.353 118.155 221.226 118.312 221.156 118.484L220.258 118.28C220.364 117.982 220.52 117.741 220.724 117.558C220.931 117.372 221.169 117.238 221.437 117.155C221.706 117.07 221.988 117.027 222.284 117.027C222.48 117.027 222.688 117.05 222.907 117.097C223.129 117.142 223.336 117.225 223.527 117.347C223.721 117.468 223.88 117.642 224.004 117.868C224.127 118.091 224.189 118.382 224.189 118.74V122H223.256V121.329H223.217C223.156 121.452 223.063 121.574 222.939 121.693C222.816 121.812 222.657 121.912 222.463 121.99C222.269 122.069 222.037 122.109 221.766 122.109ZM221.974 121.342C222.238 121.342 222.464 121.289 222.652 121.185C222.841 121.081 222.985 120.944 223.083 120.776C223.183 120.605 223.233 120.423 223.233 120.229V119.597C223.199 119.631 223.133 119.663 223.035 119.692C222.939 119.72 222.83 119.745 222.706 119.766C222.582 119.785 222.462 119.803 222.345 119.82C222.228 119.835 222.13 119.848 222.051 119.859C221.865 119.882 221.696 119.922 221.543 119.977C221.391 120.032 221.27 120.112 221.178 120.217C221.089 120.319 221.044 120.455 221.044 120.626C221.044 120.862 221.131 121.041 221.306 121.163C221.481 121.282 221.703 121.342 221.974 121.342ZM226.417 115.455V122H225.462V115.455H226.417ZM229.819 122.099C229.335 122.099 228.919 121.996 228.569 121.789C228.222 121.58 227.953 121.287 227.764 120.91C227.576 120.531 227.482 120.087 227.482 119.577C227.482 119.075 227.576 118.631 227.764 118.248C227.953 117.864 228.218 117.565 228.556 117.35C228.897 117.135 229.296 117.027 229.752 117.027C230.029 117.027 230.297 117.073 230.557 117.164C230.817 117.256 231.05 117.4 231.257 117.596C231.464 117.792 231.627 118.047 231.746 118.36C231.865 118.671 231.925 119.049 231.925 119.494V119.833H228.023V119.117H230.988C230.988 118.866 230.937 118.643 230.835 118.449C230.733 118.253 230.589 118.099 230.404 117.986C230.22 117.873 230.005 117.816 229.758 117.816C229.49 117.816 229.255 117.882 229.055 118.015C228.857 118.145 228.703 118.315 228.595 118.526C228.488 118.735 228.435 118.962 228.435 119.207V119.766C228.435 120.094 228.492 120.373 228.607 120.603C228.725 120.833 228.888 121.009 229.096 121.131C229.305 121.25 229.549 121.31 229.828 121.31C230.009 121.31 230.175 121.284 230.324 121.233C230.473 121.18 230.602 121.101 230.71 120.996C230.819 120.892 230.902 120.763 230.96 120.61L231.864 120.773C231.792 121.039 231.662 121.272 231.474 121.473C231.289 121.671 231.056 121.825 230.774 121.936C230.495 122.045 230.177 122.099 229.819 122.099ZM236.664 118.289L235.798 118.443C235.761 118.332 235.704 118.227 235.625 118.126C235.548 118.026 235.444 117.944 235.312 117.88C235.18 117.816 235.015 117.784 234.816 117.784C234.546 117.784 234.32 117.845 234.139 117.967C233.958 118.086 233.867 118.24 233.867 118.43C233.867 118.594 233.928 118.726 234.049 118.826C234.171 118.926 234.367 119.009 234.638 119.072L235.417 119.251C235.869 119.356 236.206 119.517 236.427 119.734C236.649 119.951 236.76 120.234 236.76 120.581C236.76 120.875 236.674 121.137 236.504 121.367C236.336 121.595 236.1 121.774 235.798 121.904C235.497 122.034 235.149 122.099 234.753 122.099C234.203 122.099 233.754 121.982 233.407 121.748C233.06 121.511 232.847 121.175 232.768 120.741L233.691 120.6C233.749 120.841 233.867 121.023 234.046 121.147C234.225 121.268 234.459 121.329 234.746 121.329C235.059 121.329 235.31 121.264 235.497 121.134C235.685 121.002 235.778 120.841 235.778 120.651C235.778 120.498 235.721 120.369 235.606 120.265C235.493 120.16 235.319 120.081 235.085 120.028L234.254 119.846C233.796 119.741 233.457 119.575 233.238 119.347C233.02 119.119 232.912 118.831 232.912 118.481C232.912 118.191 232.993 117.938 233.155 117.721C233.316 117.503 233.54 117.334 233.826 117.212C234.111 117.089 234.438 117.027 234.807 117.027C235.337 117.027 235.755 117.142 236.06 117.372C236.364 117.6 236.566 117.906 236.664 118.289Z" fill="#616161"/>
<path d="M159.485 139.522C159.423 139.328 159.34 139.155 159.235 139.001C159.133 138.846 159.011 138.714 158.868 138.605C158.725 138.494 158.562 138.41 158.379 138.353C158.198 138.295 157.999 138.266 157.781 138.266C157.413 138.266 157.08 138.361 156.784 138.551C156.488 138.74 156.254 139.018 156.081 139.385C155.911 139.749 155.825 140.196 155.825 140.724C155.825 141.255 155.912 141.703 156.084 142.07C156.257 142.436 156.493 142.714 156.794 142.904C157.094 143.093 157.436 143.188 157.82 143.188C158.175 143.188 158.485 143.116 158.75 142.971C159.016 142.826 159.222 142.621 159.366 142.357C159.513 142.091 159.587 141.778 159.587 141.418L159.843 141.466H157.97V140.651H160.543V141.395C160.543 141.945 160.425 142.422 160.191 142.827C159.959 143.23 159.637 143.541 159.226 143.76C158.817 143.98 158.348 144.089 157.82 144.089C157.227 144.089 156.707 143.953 156.26 143.68C155.815 143.408 155.467 143.021 155.218 142.52C154.969 142.017 154.844 141.421 154.844 140.73C154.844 140.208 154.917 139.74 155.061 139.324C155.206 138.909 155.41 138.556 155.672 138.266C155.936 137.974 156.246 137.752 156.602 137.598C156.96 137.443 157.351 137.365 157.775 137.365C158.129 137.365 158.458 137.417 158.762 137.522C159.069 137.626 159.342 137.774 159.581 137.966C159.821 138.158 160.021 138.386 160.178 138.65C160.336 138.912 160.442 139.203 160.498 139.522H159.485ZM163.787 144.099C163.327 144.099 162.926 143.994 162.582 143.783C162.239 143.572 161.973 143.277 161.783 142.897C161.594 142.518 161.499 142.075 161.499 141.568C161.499 141.059 161.594 140.613 161.783 140.232C161.973 139.85 162.239 139.554 162.582 139.343C162.926 139.132 163.327 139.027 163.787 139.027C164.248 139.027 164.649 139.132 164.992 139.343C165.335 139.554 165.602 139.85 165.791 140.232C165.981 140.613 166.076 141.059 166.076 141.568C166.076 142.075 165.981 142.518 165.791 142.897C165.602 143.277 165.335 143.572 164.992 143.783C164.649 143.994 164.248 144.099 163.787 144.099ZM163.791 143.297C164.089 143.297 164.336 143.218 164.532 143.06C164.728 142.903 164.873 142.693 164.967 142.431C165.063 142.169 165.111 141.88 165.111 141.565C165.111 141.251 165.063 140.964 164.967 140.702C164.873 140.437 164.728 140.225 164.532 140.066C164.336 139.906 164.089 139.826 163.791 139.826C163.49 139.826 163.241 139.906 163.043 140.066C162.847 140.225 162.701 140.437 162.605 140.702C162.511 140.964 162.464 141.251 162.464 141.565C162.464 141.88 162.511 142.169 162.605 142.431C162.701 142.693 162.847 142.903 163.043 143.06C163.241 143.218 163.49 143.297 163.791 143.297ZM169.21 144.099C168.75 144.099 168.348 143.994 168.005 143.783C167.662 143.572 167.396 143.277 167.206 142.897C167.017 142.518 166.922 142.075 166.922 141.568C166.922 141.059 167.017 140.613 167.206 140.232C167.396 139.85 167.662 139.554 168.005 139.343C168.348 139.132 168.75 139.027 169.21 139.027C169.67 139.027 170.072 139.132 170.415 139.343C170.758 139.554 171.025 139.85 171.214 140.232C171.404 140.613 171.499 141.059 171.499 141.568C171.499 142.075 171.404 142.518 171.214 142.897C171.025 143.277 170.758 143.572 170.415 143.783C170.072 143.994 169.67 144.099 169.21 144.099ZM169.213 143.297C169.512 143.297 169.759 143.218 169.955 143.06C170.151 142.903 170.296 142.693 170.39 142.431C170.485 142.169 170.533 141.88 170.533 141.565C170.533 141.251 170.485 140.964 170.39 140.702C170.296 140.437 170.151 140.225 169.955 140.066C169.759 139.906 169.512 139.826 169.213 139.826C168.913 139.826 168.664 139.906 168.466 140.066C168.27 140.225 168.124 140.437 168.028 140.702C167.934 140.964 167.887 141.251 167.887 141.565C167.887 141.88 167.934 142.169 168.028 142.431C168.124 142.693 168.27 142.903 168.466 143.06C168.664 143.218 168.913 143.297 169.213 143.297ZM174.403 144.096C174.007 144.096 173.653 143.995 173.342 143.792C173.033 143.588 172.79 143.297 172.613 142.92C172.438 142.54 172.351 142.086 172.351 141.555C172.351 141.025 172.44 140.571 172.616 140.194C172.795 139.816 173.04 139.528 173.351 139.327C173.663 139.127 174.015 139.027 174.409 139.027C174.714 139.027 174.959 139.078 175.144 139.18C175.332 139.281 175.477 139.398 175.579 139.532C175.684 139.666 175.764 139.784 175.822 139.887H175.88V137.455H176.835V144H175.902V143.236H175.822C175.764 143.341 175.681 143.46 175.573 143.594C175.466 143.728 175.319 143.846 175.132 143.946C174.944 144.046 174.701 144.096 174.403 144.096ZM174.614 143.281C174.889 143.281 175.121 143.208 175.311 143.064C175.502 142.917 175.647 142.713 175.745 142.453C175.845 142.193 175.896 141.891 175.896 141.545C175.896 141.205 175.847 140.906 175.748 140.651C175.65 140.395 175.507 140.196 175.317 140.053C175.127 139.91 174.893 139.839 174.614 139.839C174.326 139.839 174.087 139.913 173.895 140.062C173.703 140.212 173.558 140.415 173.46 140.673C173.364 140.931 173.316 141.222 173.316 141.545C173.316 141.874 173.365 142.169 173.463 142.431C173.561 142.693 173.706 142.901 173.898 143.054C174.092 143.205 174.331 143.281 174.614 143.281ZM181.536 137.455V144H180.581V137.455H181.536ZM185.932 141.964V139.091H186.891V144H185.951V143.15H185.9C185.787 143.412 185.606 143.63 185.357 143.805C185.109 143.978 184.801 144.064 184.433 144.064C184.118 144.064 183.838 143.995 183.596 143.856C183.355 143.716 183.165 143.508 183.027 143.233C182.89 142.958 182.822 142.618 182.822 142.213V139.091H183.778V142.098C183.778 142.433 183.87 142.699 184.056 142.897C184.241 143.096 184.482 143.195 184.778 143.195C184.957 143.195 185.135 143.15 185.312 143.06C185.491 142.971 185.639 142.836 185.756 142.654C185.875 142.473 185.934 142.243 185.932 141.964ZM190.242 144.099C189.767 144.099 189.358 143.991 189.015 143.776C188.674 143.559 188.412 143.26 188.229 142.878C188.046 142.497 187.954 142.06 187.954 141.568C187.954 141.069 188.048 140.629 188.235 140.248C188.423 139.864 188.687 139.565 189.028 139.35C189.369 139.135 189.771 139.027 190.233 139.027C190.606 139.027 190.938 139.096 191.23 139.235C191.522 139.371 191.757 139.563 191.936 139.81C192.117 140.057 192.225 140.346 192.259 140.676H191.329C191.278 140.446 191.161 140.248 190.978 140.082C190.796 139.915 190.554 139.832 190.249 139.832C189.983 139.832 189.749 139.903 189.549 140.043C189.351 140.182 189.196 140.38 189.085 140.638C188.975 140.893 188.919 141.196 188.919 141.545C188.919 141.903 188.974 142.212 189.082 142.472C189.191 142.732 189.344 142.934 189.543 143.076C189.743 143.219 189.978 143.29 190.249 143.29C190.43 143.29 190.594 143.257 190.741 143.191C190.89 143.123 191.015 143.026 191.115 142.901C191.217 142.775 191.289 142.624 191.329 142.447H192.259C192.225 142.764 192.122 143.048 191.949 143.297C191.777 143.546 191.545 143.742 191.256 143.885C190.968 144.028 190.63 144.099 190.242 144.099ZM194.16 142.335L194.154 141.168H194.32L196.276 139.091H197.42L195.189 141.456H195.039L194.16 142.335ZM193.281 144V137.455H194.237V144H193.281ZM196.381 144L194.623 141.667L195.282 140.999L197.554 144H196.381ZM199.496 137.455L199.413 142.118H198.527L198.444 137.455H199.496ZM198.972 144.061C198.795 144.061 198.643 143.999 198.518 143.875C198.392 143.75 198.33 143.598 198.332 143.422C198.33 143.247 198.392 143.098 198.518 142.974C198.643 142.848 198.795 142.786 198.972 142.786C199.144 142.786 199.293 142.848 199.419 142.974C199.545 143.098 199.609 143.247 199.611 143.422C199.609 143.539 199.578 143.646 199.518 143.744C199.461 143.84 199.384 143.917 199.288 143.974C199.192 144.032 199.087 144.061 198.972 144.061Z" fill="#616161"/>
</g>
</g>
<defs>
<filter id="filter0_f_2351_4330" x="-58.6641" y="-57" width="210" height="236" filterUnits="userSpaceOnUse" color-interpolation-filters="sRGB">
<feFlood flood-opacity="0" result="BackgroundImageFix"/>
<feBlend mode="normal" in="SourceGraphic" in2="BackgroundImageFix" result="shape"/>
<feGaussianBlur stdDeviation="38" result="effect1_foregroundBlur_2351_4330"/>
</filter>
<filter id="filter1_f_2351_4330" x="87.3359" y="55" width="289" height="207" filterUnits="userSpaceOnUse" color-interpolation-filters="sRGB">
<feFlood flood-opacity="0" result="BackgroundImageFix"/>
<feBlend mode="normal" in="SourceGraphic" in2="BackgroundImageFix" result="shape"/>
<feGaussianBlur stdDeviation="38" result="effect1_foregroundBlur_2351_4330"/>
</filter>
<filter id="filter2_d_2351_4330" x="28.3359" y="23" width="139" height="81" filterUnits="userSpaceOnUse" color-interpolation-filters="sRGB">
<feFlood flood-opacity="0" result="BackgroundImageFix"/>
<feColorMatrix in="SourceAlpha" type="matrix" values="0 0 0 0 0 0 0 0 0 0 0 0 0 0 0 0 0 0 127 0" result="hardAlpha"/>
<feOffset dy="1"/>
<feGaussianBlur stdDeviation="2"/>
<feComposite in2="hardAlpha" operator="out"/>
<feColorMatrix type="matrix" values="0 0 0 0 0.0470588 0 0 0 0 0.0470588 0 0 0 0 0.0509804 0 0 0 0.05 0"/>
<feBlend mode="normal" in2="BackgroundImageFix" result="effect1_dropShadow_2351_4330"/>
<feBlend mode="normal" in="SourceGraphic" in2="effect1_dropShadow_2351_4330" result="shape"/>
</filter>
<filter id="filter3_d_2351_4330" x="142.336" y="83" width="135" height="81" filterUnits="userSpaceOnUse" color-interpolation-filters="sRGB">
<feFlood flood-opacity="0" result="BackgroundImageFix"/>
<feColorMatrix in="SourceAlpha" type="matrix" values="0 0 0 0 0 0 0 0 0 0 0 0 0 0 0 0 0 0 127 0" result="hardAlpha"/>
<feOffset dy="1"/>
<feGaussianBlur stdDeviation="2"/>
<feComposite in2="hardAlpha" operator="out"/>
<feColorMatrix type="matrix" values="0 0 0 0 0.0470588 0 0 0 0 0.0470588 0 0 0 0 0.0509804 0 0 0 0.05 0"/>
<feBlend mode="normal" in2="BackgroundImageFix" result="effect1_dropShadow_2351_4330"/>
<feBlend mode="normal" in="SourceGraphic" in2="effect1_dropShadow_2351_4330" result="shape"/>
</filter>
<clipPath id="clip0_2351_4330">
<rect width="306" height="200" fill="white"/>
</clipPath>
</defs>
</svg>
