<svg width="32" height="32" viewBox="0 0 32 32" fill="none" xmlns="http://www.w3.org/2000/svg">
<rect x="0.5" y="0.5" width="31" height="31" rx="7.5" stroke="#13A249"/>
<path fill-rule="evenodd" clip-rule="evenodd" d="M8.30829 20.75C8.43746 20.8042 8.57496 20.8292 8.70829 20.8292L8.71246 20.825C8.97913 20.825 9.24579 20.7208 9.44579 20.5208L11.4666 18.5H18.2916C19.5541 18.5 20.5833 17.4708 20.5833 16.2083V10.7917C20.5833 9.52917 19.5541 8.5 18.2916 8.5H9.95829C8.69579 8.5 7.66663 9.52917 7.66663 10.7917V19.7875C7.66663 20.2125 7.91663 20.5875 8.30829 20.75ZM8.91663 10.7917C8.91663 10.2167 9.38329 9.75 9.95829 9.75H18.2916C18.8666 9.75 19.3333 10.2167 19.3333 10.7917V16.2083C19.3333 16.7833 18.8666 17.25 18.2916 17.25H10.95L8.91663 19.2833V10.7917ZM22.5541 23.8583C22.7541 24.0583 23.0208 24.1625 23.2916 24.1625V24.1667C23.425 24.1667 23.5625 24.1417 23.6916 24.0875C24.0791 23.925 24.3333 23.5458 24.3333 23.125V14.5458C24.3333 13.2833 23.3041 12.2542 22.0416 12.2542H21.8333V13.5042H22.0416C22.6166 13.5042 23.0833 13.9708 23.0833 14.5458V22.6208L21.4666 21.0042H15.7916C15.2166 21.0042 14.75 20.5375 14.75 19.9625V19.75H13.5V19.9625C13.5 21.225 14.5291 22.2542 15.7916 22.2542H20.95L22.5541 23.8583Z" fill="#13A249"/>
</svg>
