<svg width="32" height="32" viewBox="0 0 32 32" fill="none" xmlns="http://www.w3.org/2000/svg">
<rect x="0.5" y="0.5" width="31" height="31" rx="7.5" stroke="#21AD58"/>
<path fill-rule="evenodd" clip-rule="evenodd" d="M8.5 8.5H11.32C12.6648 8.5 13.9518 9.03134 14.9015 9.981L17.1705 12.25H20.4412C20.9882 12.25 21.5128 12.4673 21.8996 12.8541L23.2533 14.2078C23.7623 14.7168 23.5316 15.5858 22.8371 15.7752L19.3355 16.7302L19.0395 15.6448L22.2294 14.7749L21.1041 13.6496C20.9283 13.4738 20.6898 13.375 20.4412 13.375H16.7045L14.106 10.7765C13.3682 10.0387 12.3677 9.625 11.32 9.625H9.625V11.3237C9.625 12.367 10.0382 13.3679 10.7769 14.1102C10.7771 14.1103 10.7768 14.11 10.7769 14.1102L13.375 16.7083V20.4449C13.375 20.6936 13.4738 20.932 13.6496 21.1078L14.7749 22.2331L15.6448 19.0432L16.7302 19.3393L15.7752 22.8408C15.5858 23.5353 14.7168 23.7661 14.2078 23.2571L12.8541 21.9033C12.4673 21.5165 12.25 20.9919 12.25 20.4449V17.1742L9.981 14.9052L9.98012 14.9044C9.03163 13.9517 8.5 12.6653 8.5 11.3237V8.5ZM20.2898 21.0852L15.7898 16.5852L16.5852 15.7898L21.0852 20.2898L20.2898 21.0852Z" fill="#21AD58"/>
</svg>
