<svg width="32" height="32" viewBox="0 0 32 32" fill="none" xmlns="http://www.w3.org/2000/svg">
<rect x="0.5" y="0.5" width="31" height="31" rx="7.5" stroke="#21AD58"/>
<path fill-rule="evenodd" clip-rule="evenodd" d="M10.375 10V19.75H23.5V10H10.375ZM22.375 12.5462C21.6887 12.3512 21.1487 11.8112 20.9537 11.125H22.375V12.5462ZM19.8025 18.625H14.0725C13.84 17.32 12.8087 16.2887 11.5 16.0525V13.6975C12.805 13.465 13.8363 12.4337 14.0725 11.125H19.8025C20.035 12.43 21.0662 13.4613 22.375 13.6975V16.0525C21.07 16.285 20.0387 17.3163 19.8025 18.625ZM12.9212 11.125C12.7263 11.8112 12.1862 12.3512 11.5 12.5462V11.125H12.9212ZM11.5 17.2037C12.1862 17.3987 12.7263 17.9388 12.9212 18.625H11.5V17.2037ZM20.9537 18.625C21.1487 17.9388 21.6887 17.3987 22.375 17.2037V18.625H20.9537ZM9.625 12.25H8.5V22H21.625V20.875H9.625V12.25ZM14.5 14.875C14.5 13.5325 15.595 12.4375 16.9375 12.4375C18.28 12.4375 19.375 13.5325 19.375 14.875C19.375 16.2175 18.28 17.3125 16.9375 17.3125C15.595 17.3125 14.5 16.2175 14.5 14.875ZM15.625 14.875C15.625 15.5988 16.2137 16.1875 16.9375 16.1875C17.6613 16.1875 18.25 15.5988 18.25 14.875C18.25 14.1512 17.6613 13.5625 16.9375 13.5625C16.2137 13.5625 15.625 14.1512 15.625 14.875Z" fill="#21AD58"/>
</svg>
