<svg width="32" height="32" viewBox="0 0 32 32" fill="none" xmlns="http://www.w3.org/2000/svg">
<rect x="0.5" y="0.5" width="31" height="31" rx="7.5" stroke="#21AD58"/>
<path fill-rule="evenodd" clip-rule="evenodd" d="M20.125 9.25H20.6875C21.8237 9.25 22.75 10.1763 22.75 11.3125V20.6875C22.75 21.8237 21.8237 22.75 20.6875 22.75H11.3125C10.1763 22.75 9.25 21.8237 9.25 20.6875V11.3125C9.25 10.1763 10.1763 9.25 11.3125 9.25H11.875V8.5H13V9.25H19V8.5H20.125V9.25ZM11.875 10.375H11.3125C10.795 10.375 10.375 10.795 10.375 11.3125V12.6212H21.625V11.3125C21.625 10.795 21.205 10.375 20.6875 10.375H20.125V11.5H19V10.375H13V11.5H11.875V10.375ZM11.3125 21.625H20.6875C21.205 21.625 21.625 21.205 21.625 20.6875V13.7462H10.375V20.6875C10.375 21.205 10.795 21.625 11.3125 21.625ZM13.5852 17.29L15.0627 18.7675L18.7902 15.04L19.5852 15.835L15.7264 19.6937C15.5427 19.8775 15.3027 19.9675 15.0627 19.9675C14.8227 19.9675 14.5827 19.8775 14.3989 19.6937L12.7902 18.085L13.5852 17.29Z" fill="#21AD58"/>
</svg>
