<svg width="306" height="200" viewBox="0 0 306 200" fill="none" xmlns="http://www.w3.org/2000/svg">
<g clip-path="url(#clip0_2391_4900)">
<rect x="0.335938" width="306" height="200" rx="12" fill="#FAFAFA"/>
<circle cx="261.336" cy="31" r="3" fill="#13A249"/>
<circle cx="277.332" cy="42" r="3" stroke="#13A249" stroke-width="2"/>
<circle cx="39.332" cy="169" r="6" stroke="#13A249" stroke-width="2"/>
<g opacity="0.5" filter="url(#filter0_f_2391_4900)">
<ellipse cx="46.3359" cy="61" rx="29" ry="42" fill="#C7FCCA"/>
</g>
<g opacity="0.5" filter="url(#filter1_f_2391_4900)">
<ellipse cx="231.836" cy="158.5" rx="68.5" ry="27.5" fill="#C7FCCA"/>
</g>
<rect x="17" y="24" width="204" height="109" rx="12" fill="white"/>
<rect x="31" y="60" width="177" height="55" rx="8" fill="#F7F7F7"/>
<circle cx="44.1" cy="76.7001" r="2.1" fill="#13A249"/>
<circle cx="49.7016" cy="76.7001" r="2.1" fill="#13A249"/>
<circle cx="60.9008" cy="76.7001" r="2.1" fill="#13A249"/>
<circle cx="55.2992" cy="71.1" r="2.1" fill="#13A249"/>
<path d="M34.7173 47V39.7273H37.4446C38.0033 39.7273 38.4721 39.8314 38.8509 40.0398C39.232 40.2481 39.5196 40.5346 39.7138 40.8991C39.9103 41.2614 40.0085 41.6733 40.0085 42.1349C40.0085 42.6013 39.9103 43.0156 39.7138 43.3778C39.5173 43.7401 39.2273 44.0253 38.8438 44.2337C38.4602 44.4396 37.9879 44.5426 37.4268 44.5426H35.6193V43.4595H37.2493C37.576 43.4595 37.8435 43.4027 38.0518 43.2891C38.2602 43.1754 38.4141 43.0192 38.5135 42.8203C38.6153 42.6214 38.6662 42.393 38.6662 42.1349C38.6662 41.8769 38.6153 41.6496 38.5135 41.4531C38.4141 41.2566 38.259 41.1039 38.0483 40.995C37.84 40.8838 37.5713 40.8281 37.2422 40.8281H36.0348V47H34.7173ZM42.3816 39.7273V47H41.0961V39.7273H42.3816ZM46.1183 47.1065C45.5714 47.1065 45.0991 46.9929 44.7013 46.7656C44.306 46.536 44.0018 46.2116 43.7887 45.7926C43.5756 45.3712 43.4691 44.8752 43.4691 44.3047C43.4691 43.7436 43.5756 43.2512 43.7887 42.8274C44.0041 42.4013 44.3048 42.0698 44.6907 41.8331C45.0766 41.594 45.5299 41.4744 46.0508 41.4744C46.387 41.4744 46.7042 41.5289 47.0025 41.6378C47.3031 41.7443 47.5683 41.91 47.7979 42.1349C48.0299 42.3598 48.2122 42.6463 48.3448 42.9943C48.4774 43.34 48.5437 43.7519 48.5437 44.2301V44.6243H44.0728V43.7578H47.3114C47.3091 43.5116 47.2558 43.2926 47.1516 43.1009C47.0475 42.9067 46.9019 42.754 46.7148 42.6428C46.5302 42.5315 46.3147 42.4759 46.0685 42.4759C45.8058 42.4759 45.5749 42.5398 45.3761 42.6676C45.1772 42.7931 45.0221 42.9588 44.9109 43.1648C44.802 43.3684 44.7463 43.5921 44.744 43.8359V44.5923C44.744 44.9096 44.802 45.1818 44.918 45.4091C45.034 45.634 45.1961 45.8068 45.4045 45.9276C45.6128 46.0459 45.8567 46.1051 46.136 46.1051C46.323 46.1051 46.4923 46.0791 46.6438 46.027C46.7953 45.9725 46.9267 45.8932 47.038 45.7891C47.1493 45.6849 47.2333 45.5559 47.2901 45.402L48.4904 45.5369C48.4147 45.8542 48.2702 46.1312 48.0572 46.3679C47.8465 46.6023 47.5766 46.7846 47.2475 46.9148C46.9184 47.0426 46.542 47.1065 46.1183 47.1065ZM51.2008 47.1101C50.8552 47.1101 50.5439 47.0485 50.2669 46.9254C49.9922 46.8 49.7744 46.6153 49.6135 46.3714C49.4548 46.1276 49.3755 45.8269 49.3755 45.4695C49.3755 45.1617 49.4324 44.9072 49.546 44.706C49.6596 44.5047 49.8147 44.3438 50.0112 44.223C50.2077 44.1023 50.429 44.0111 50.6752 43.9496C50.9238 43.8857 51.1807 43.8395 51.4458 43.8111C51.7654 43.7779 52.0247 43.7483 52.2235 43.7223C52.4224 43.6939 52.5668 43.6513 52.6568 43.5945C52.7491 43.5353 52.7953 43.4441 52.7953 43.321V43.2997C52.7953 43.0322 52.716 42.825 52.5574 42.6783C52.3987 42.5315 52.1703 42.4581 51.872 42.4581C51.5571 42.4581 51.3074 42.5268 51.1227 42.6641C50.9404 42.8014 50.8173 42.9635 50.7534 43.1506L49.5531 42.9801C49.6478 42.6487 49.804 42.3717 50.0218 42.1491C50.2396 41.9242 50.506 41.7562 50.8208 41.6449C51.1357 41.5312 51.4837 41.4744 51.8649 41.4744C52.1277 41.4744 52.3893 41.5052 52.6497 41.5668C52.9101 41.6283 53.148 41.7301 53.3635 41.8722C53.5789 42.0118 53.7517 42.2024 53.8819 42.4439C54.0145 42.6854 54.0808 42.9872 54.0808 43.3494V47H52.845V46.2507H52.8024C52.7243 46.4022 52.6142 46.5443 52.4721 46.6768C52.3324 46.8071 52.1561 46.9124 51.943 46.9929C51.7323 47.071 51.4849 47.1101 51.2008 47.1101ZM51.5346 46.1655C51.7927 46.1655 52.0164 46.1146 52.2058 46.0128C52.3952 45.9086 52.5408 45.7713 52.6426 45.6009C52.7467 45.4304 52.7988 45.2446 52.7988 45.0433V44.4006C52.7586 44.4337 52.6899 44.4645 52.5929 44.4929C52.4982 44.5213 52.3916 44.5462 52.2733 44.5675C52.1549 44.5888 52.0377 44.6077 51.9217 44.6243C51.8057 44.6409 51.7051 44.6551 51.6199 44.6669C51.4281 44.6929 51.2565 44.7356 51.1049 44.7947C50.9534 44.8539 50.8339 44.9368 50.7463 45.0433C50.6587 45.1475 50.6149 45.2824 50.6149 45.4482C50.6149 45.6849 50.7013 45.8636 50.8741 45.9844C51.0469 46.1051 51.2671 46.1655 51.5346 46.1655ZM59.6845 42.9872L58.5126 43.1151C58.4795 42.9967 58.4215 42.8854 58.3386 42.7812C58.2581 42.6771 58.1492 42.593 58.0119 42.5291C57.8746 42.4652 57.7065 42.4332 57.5076 42.4332C57.2401 42.4332 57.0152 42.4912 56.8329 42.6072C56.653 42.7232 56.5642 42.8736 56.5666 43.0582C56.5642 43.2169 56.6222 43.3459 56.7406 43.4453C56.8613 43.5447 57.0602 43.6264 57.3372 43.6903L58.2676 43.8892C58.7837 44.0005 59.1672 44.1768 59.4181 44.4183C59.6715 44.6598 59.7993 44.9759 59.8017 45.3665C59.7993 45.7098 59.6987 46.0128 59.4998 46.2756C59.3033 46.536 59.0299 46.7396 58.6795 46.8864C58.3291 47.0331 57.9267 47.1065 57.4721 47.1065C56.8045 47.1065 56.2671 46.9669 55.8599 46.6875C55.4527 46.4058 55.21 46.014 55.1319 45.5121L56.3855 45.3913C56.4423 45.6375 56.563 45.8234 56.7477 45.9489C56.9324 46.0743 57.1726 46.1371 57.4686 46.1371C57.774 46.1371 58.019 46.0743 58.2037 45.9489C58.3907 45.8234 58.4842 45.6683 58.4842 45.4837C58.4842 45.3274 58.4238 45.1984 58.3031 45.0966C58.1847 44.9948 58.0001 44.9167 57.7491 44.8622L56.8187 44.6669C56.2955 44.558 55.9084 44.3745 55.6575 44.1165C55.4065 43.8561 55.2823 43.527 55.2846 43.1293C55.2823 42.7931 55.3734 42.5019 55.5581 42.2557C55.7451 42.0071 56.0043 41.8153 56.3358 41.6804C56.6696 41.5431 57.0543 41.4744 57.4899 41.4744C58.1291 41.4744 58.6322 41.6106 58.9991 41.8828C59.3684 42.1551 59.5969 42.5232 59.6845 42.9872ZM63.2765 47.1065C62.7296 47.1065 62.2573 46.9929 61.8596 46.7656C61.4642 46.536 61.16 46.2116 60.9469 45.7926C60.7338 45.3712 60.6273 44.8752 60.6273 44.3047C60.6273 43.7436 60.7338 43.2512 60.9469 42.8274C61.1623 42.4013 61.463 42.0698 61.8489 41.8331C62.2348 41.594 62.6882 41.4744 63.209 41.4744C63.5452 41.4744 63.8624 41.5289 64.1607 41.6378C64.4614 41.7443 64.7265 41.91 64.9561 42.1349C65.1882 42.3598 65.3704 42.6463 65.503 42.9943C65.6356 43.34 65.7019 43.7519 65.7019 44.2301V44.6243H61.231V43.7578H64.4696C64.4673 43.5116 64.414 43.2926 64.3098 43.1009C64.2057 42.9067 64.0601 42.754 63.873 42.6428C63.6884 42.5315 63.473 42.4759 63.2267 42.4759C62.964 42.4759 62.7331 42.5398 62.5343 42.6676C62.3354 42.7931 62.1803 42.9588 62.0691 43.1648C61.9602 43.3684 61.9045 43.5921 61.9022 43.8359V44.5923C61.9022 44.9096 61.9602 45.1818 62.0762 45.4091C62.1922 45.634 62.3543 45.8068 62.5627 45.9276C62.771 46.0459 63.0149 46.1051 63.2942 46.1051C63.4812 46.1051 63.6505 46.0791 63.802 46.027C63.9535 45.9725 64.0849 45.8932 64.1962 45.7891C64.3075 45.6849 64.3915 45.5559 64.4483 45.402L65.6486 45.5369C65.5729 45.8542 65.4284 46.1312 65.2154 46.3679C65.0047 46.6023 64.7348 46.7846 64.4057 46.9148C64.0766 47.0426 63.7002 47.1065 63.2765 47.1065ZM70.8395 47.1101C70.4938 47.1101 70.1825 47.0485 69.9055 46.9254C69.6309 46.8 69.4131 46.6153 69.2521 46.3714C69.0935 46.1276 69.0142 45.8269 69.0142 45.4695C69.0142 45.1617 69.071 44.9072 69.1847 44.706C69.2983 44.5047 69.4534 44.3438 69.6499 44.223C69.8464 44.1023 70.0677 44.0111 70.3139 43.9496C70.5625 43.8857 70.8194 43.8395 71.0845 43.8111C71.4041 43.7779 71.6634 43.7483 71.8622 43.7223C72.0611 43.6939 72.2055 43.6513 72.2955 43.5945C72.3878 43.5353 72.4339 43.4441 72.4339 43.321V43.2997C72.4339 43.0322 72.3546 42.825 72.196 42.6783C72.0374 42.5315 71.8089 42.4581 71.5107 42.4581C71.1958 42.4581 70.946 42.5268 70.7614 42.6641C70.5791 42.8014 70.456 42.9635 70.392 43.1506L69.1918 42.9801C69.2865 42.6487 69.4427 42.3717 69.6605 42.1491C69.8783 41.9242 70.1446 41.7562 70.4595 41.6449C70.7744 41.5312 71.1224 41.4744 71.5036 41.4744C71.7663 41.4744 72.0279 41.5052 72.2884 41.5668C72.5488 41.6283 72.7867 41.7301 73.0021 41.8722C73.2176 42.0118 73.3904 42.2024 73.5206 42.4439C73.6532 42.6854 73.7195 42.9872 73.7195 43.3494V47H72.4837V46.2507H72.4411C72.3629 46.4022 72.2528 46.5443 72.1108 46.6768C71.9711 46.8071 71.7947 46.9124 71.5817 46.9929C71.371 47.071 71.1236 47.1101 70.8395 47.1101ZM71.1733 46.1655C71.4313 46.1655 71.6551 46.1146 71.8445 46.0128C72.0339 45.9086 72.1795 45.7713 72.2812 45.6009C72.3854 45.4304 72.4375 45.2446 72.4375 45.0433V44.4006C72.3973 44.4337 72.3286 44.4645 72.2315 44.4929C72.1368 44.5213 72.0303 44.5462 71.9119 44.5675C71.7936 44.5888 71.6764 44.6077 71.5604 44.6243C71.4444 44.6409 71.3438 44.6551 71.2585 44.6669C71.0668 44.6929 70.8951 44.7356 70.7436 44.7947C70.5921 44.8539 70.4725 44.9368 70.3849 45.0433C70.2973 45.1475 70.2536 45.2824 70.2536 45.4482C70.2536 45.6849 70.34 45.8636 70.5128 45.9844C70.6856 46.1051 70.9058 46.1655 71.1733 46.1655ZM77.0362 47.0959C76.6077 47.0959 76.2242 46.9858 75.8857 46.7656C75.5471 46.5455 75.2796 46.2259 75.0831 45.8068C74.8866 45.3878 74.7884 44.8788 74.7884 44.2798C74.7884 43.6738 74.8878 43.1624 75.0866 42.7457C75.2879 42.3267 75.5589 42.0107 75.8999 41.7976C76.2408 41.5821 76.6207 41.4744 77.0398 41.4744C77.3594 41.4744 77.6222 41.5289 77.8281 41.6378C78.0341 41.7443 78.1974 41.8733 78.3182 42.0249C78.4389 42.174 78.5324 42.3149 78.5987 42.4474H78.652V39.7273H79.9411V47H78.6768V46.1406H78.5987C78.5324 46.2732 78.4366 46.4141 78.3111 46.5632C78.1856 46.71 78.0199 46.8355 77.8139 46.9396C77.608 47.0438 77.3487 47.0959 77.0362 47.0959ZM77.3949 46.0412C77.6671 46.0412 77.8991 45.9678 78.0909 45.821C78.2827 45.6719 78.4283 45.4647 78.5277 45.1996C78.6271 44.9344 78.6768 44.6255 78.6768 44.2727C78.6768 43.92 78.6271 43.6134 78.5277 43.353C78.4306 43.0926 78.2862 42.8902 78.0945 42.7457C77.9051 42.6013 77.6719 42.5291 77.3949 42.5291C77.1084 42.5291 76.8693 42.6037 76.6776 42.7528C76.4858 42.902 76.3414 43.108 76.2443 43.3707C76.1473 43.6335 76.0987 43.9342 76.0987 44.2727C76.0987 44.6136 76.1473 44.9179 76.2443 45.1854C76.3438 45.4505 76.4893 45.66 76.6811 45.8139C76.8752 45.9654 77.1132 46.0412 77.3949 46.0412ZM83.335 47.0959C82.9065 47.0959 82.523 46.9858 82.1845 46.7656C81.8459 46.5455 81.5784 46.2259 81.3819 45.8068C81.1854 45.3878 81.0872 44.8788 81.0872 44.2798C81.0872 43.6738 81.1866 43.1624 81.3855 42.7457C81.5867 42.3267 81.8578 42.0107 82.1987 41.7976C82.5396 41.5821 82.9196 41.4744 83.3386 41.4744C83.6582 41.4744 83.921 41.5289 84.127 41.6378C84.3329 41.7443 84.4963 41.8733 84.617 42.0249C84.7377 42.174 84.8313 42.3149 84.8975 42.4474H84.9508V39.7273H86.2399V47H84.9757V46.1406H84.8975C84.8313 46.2732 84.7354 46.4141 84.6099 46.5632C84.4844 46.71 84.3187 46.8355 84.1127 46.9396C83.9068 47.0438 83.6475 47.0959 83.335 47.0959ZM83.6937 46.0412C83.966 46.0412 84.198 45.9678 84.3897 45.821C84.5815 45.6719 84.7271 45.4647 84.8265 45.1996C84.926 44.9344 84.9757 44.6255 84.9757 44.2727C84.9757 43.92 84.926 43.6134 84.8265 43.353C84.7295 43.0926 84.585 42.8902 84.3933 42.7457C84.2039 42.6013 83.9707 42.5291 83.6937 42.5291C83.4073 42.5291 83.1681 42.6037 82.9764 42.7528C82.7846 42.902 82.6402 43.108 82.5431 43.3707C82.4461 43.6335 82.3975 43.9342 82.3975 44.2727C82.3975 44.6136 82.4461 44.9179 82.5431 45.1854C82.6426 45.4505 82.7882 45.66 82.9799 45.8139C83.1741 45.9654 83.412 46.0412 83.6937 46.0412ZM87.6097 47V41.5455H88.8952V47H87.6097ZM88.256 40.7713C88.0524 40.7713 87.8772 40.7038 87.7305 40.5689C87.5837 40.4316 87.5103 40.267 87.5103 40.0753C87.5103 39.8812 87.5837 39.7166 87.7305 39.5817C87.8772 39.4444 88.0524 39.3757 88.256 39.3757C88.462 39.3757 88.6372 39.4444 88.7816 39.5817C88.9284 39.7166 89.0018 39.8812 89.0018 40.0753C89.0018 40.267 88.9284 40.4316 88.7816 40.5689C88.6372 40.7038 88.462 40.7713 88.256 40.7713ZM92.9409 41.5455V42.5398H89.8052V41.5455H92.9409ZM90.5794 40.2386H91.8649V45.3594C91.8649 45.5322 91.8909 45.6648 91.943 45.7571C91.9975 45.8471 92.0685 45.9086 92.1561 45.9418C92.2437 45.9749 92.3407 45.9915 92.4473 45.9915C92.5278 45.9915 92.6011 45.9856 92.6674 45.9737C92.7361 45.9619 92.7882 45.9512 92.8237 45.9418L93.0403 46.9467C92.9717 46.9704 92.8734 46.9964 92.7456 47.0249C92.6201 47.0533 92.4662 47.0698 92.2839 47.0746C91.9619 47.084 91.6719 47.0355 91.4139 46.929C91.1558 46.8201 90.9511 46.652 90.7995 46.4247C90.6504 46.1974 90.577 45.9134 90.5794 45.5724V40.2386ZM94.016 47V41.5455H95.3015V47H94.016ZM94.6623 40.7713C94.4587 40.7713 94.2835 40.7038 94.1367 40.5689C93.9899 40.4316 93.9165 40.267 93.9165 40.0753C93.9165 39.8812 93.9899 39.7166 94.1367 39.5817C94.2835 39.4444 94.4587 39.3757 94.6623 39.3757C94.8683 39.3757 95.0434 39.4444 95.1879 39.5817C95.3346 39.7166 95.408 39.8812 95.408 40.0753C95.408 40.267 95.3346 40.4316 95.1879 40.5689C95.0434 40.7038 94.8683 40.7713 94.6623 40.7713ZM99.0027 47.1065C98.47 47.1065 98.0083 46.9893 97.6177 46.755C97.2271 46.5206 96.9241 46.1927 96.7086 45.7713C96.4956 45.3499 96.389 44.8575 96.389 44.294C96.389 43.7306 96.4956 43.237 96.7086 42.8132C96.9241 42.3894 97.2271 42.0604 97.6177 41.826C98.0083 41.5916 98.47 41.4744 99.0027 41.4744C99.5353 41.4744 99.997 41.5916 100.388 41.826C100.778 42.0604 101.08 42.3894 101.293 42.8132C101.509 43.237 101.616 43.7306 101.616 44.294C101.616 44.8575 101.509 45.3499 101.293 45.7713C101.08 46.1927 100.778 46.5206 100.388 46.755C99.997 46.9893 99.5353 47.1065 99.0027 47.1065ZM99.0098 46.0767C99.2986 46.0767 99.5401 45.9974 99.7342 45.8388C99.9283 45.6778 100.073 45.4624 100.167 45.1925C100.265 44.9226 100.313 44.6219 100.313 44.2905C100.313 43.9567 100.265 43.6548 100.167 43.3849C100.073 43.1127 99.9283 42.8961 99.7342 42.7351C99.5401 42.5741 99.2986 42.4936 99.0098 42.4936C98.7138 42.4936 98.4676 42.5741 98.2711 42.7351C98.077 42.8961 97.9314 43.1127 97.8343 43.3849C97.7396 43.6548 97.6923 43.9567 97.6923 44.2905C97.6923 44.6219 97.7396 44.9226 97.8343 45.1925C97.9314 45.4624 98.077 45.6778 98.2711 45.8388C98.4676 45.9974 98.7138 46.0767 99.0098 46.0767ZM103.993 43.804V47H102.707V41.5455H103.936V42.4723H104C104.125 42.1669 104.326 41.9242 104.6 41.7443C104.877 41.5644 105.219 41.4744 105.626 41.4744C106.003 41.4744 106.331 41.5549 106.61 41.7159C106.892 41.8769 107.11 42.1101 107.263 42.4155C107.42 42.7209 107.497 43.0914 107.494 43.527V47H106.209V43.7259C106.209 43.3613 106.114 43.076 105.925 42.87C105.738 42.6641 105.478 42.5611 105.147 42.5611C104.922 42.5611 104.722 42.6108 104.547 42.7102C104.374 42.8073 104.238 42.9482 104.138 43.1328C104.041 43.3175 103.993 43.5412 103.993 43.804ZM110.371 47.1101C110.025 47.1101 109.714 47.0485 109.437 46.9254C109.162 46.8 108.944 46.6153 108.783 46.3714C108.625 46.1276 108.545 45.8269 108.545 45.4695C108.545 45.1617 108.602 44.9072 108.716 44.706C108.83 44.5047 108.985 44.3438 109.181 44.223C109.378 44.1023 109.599 44.0111 109.845 43.9496C110.094 43.8857 110.351 43.8395 110.616 43.8111C110.935 43.7779 111.195 43.7483 111.393 43.7223C111.592 43.6939 111.737 43.6513 111.827 43.5945C111.919 43.5353 111.965 43.4441 111.965 43.321V43.2997C111.965 43.0322 111.886 42.825 111.727 42.6783C111.569 42.5315 111.34 42.4581 111.042 42.4581C110.727 42.4581 110.477 42.5268 110.293 42.6641C110.11 42.8014 109.987 42.9635 109.923 43.1506L108.723 42.9801C108.818 42.6487 108.974 42.3717 109.192 42.1491C109.41 41.9242 109.676 41.7562 109.991 41.6449C110.306 41.5312 110.654 41.4744 111.035 41.4744C111.298 41.4744 111.559 41.5052 111.82 41.5668C112.08 41.6283 112.318 41.7301 112.533 41.8722C112.749 42.0118 112.922 42.2024 113.052 42.4439C113.184 42.6854 113.251 42.9872 113.251 43.3494V47H112.015V46.2507H111.972C111.894 46.4022 111.784 46.5443 111.642 46.6768C111.502 46.8071 111.326 46.9124 111.113 46.9929C110.902 47.071 110.655 47.1101 110.371 47.1101ZM110.705 46.1655C110.963 46.1655 111.186 46.1146 111.376 46.0128C111.565 45.9086 111.711 45.7713 111.812 45.6009C111.917 45.4304 111.969 45.2446 111.969 45.0433V44.4006C111.929 44.4337 111.86 44.4645 111.763 44.4929C111.668 44.5213 111.562 44.5462 111.443 44.5675C111.325 44.5888 111.208 44.6077 111.092 44.6243C110.976 44.6409 110.875 44.6551 110.79 44.6669C110.598 44.6929 110.426 44.7356 110.275 44.7947C110.123 44.8539 110.004 44.9368 109.916 45.0433C109.829 45.1475 109.785 45.2824 109.785 45.4482C109.785 45.6849 109.871 45.8636 110.044 45.9844C110.217 46.1051 110.437 46.1655 110.705 46.1655ZM115.829 39.7273V47H114.543V39.7273H115.829ZM121.655 47.0959C121.227 47.0959 120.843 46.9858 120.505 46.7656C120.166 46.5455 119.899 46.2259 119.702 45.8068C119.506 45.3878 119.407 44.8788 119.407 44.2798C119.407 43.6738 119.507 43.1624 119.706 42.7457C119.907 42.3267 120.178 42.0107 120.519 41.7976C120.86 41.5821 121.24 41.4744 121.659 41.4744C121.979 41.4744 122.241 41.5289 122.447 41.6378C122.653 41.7443 122.817 41.8733 122.937 42.0249C123.058 42.174 123.152 42.3149 123.218 42.4474H123.271V39.7273H124.56V47H123.296V46.1406H123.218C123.152 46.2732 123.056 46.4141 122.93 46.5632C122.805 46.71 122.639 46.8355 122.433 46.9396C122.227 47.0438 121.968 47.0959 121.655 47.0959ZM122.014 46.0412C122.286 46.0412 122.518 45.9678 122.71 45.821C122.902 45.6719 123.047 45.4647 123.147 45.1996C123.246 44.9344 123.296 44.6255 123.296 44.2727C123.296 43.92 123.246 43.6134 123.147 43.353C123.05 43.0926 122.905 42.8902 122.714 42.7457C122.524 42.6013 122.291 42.5291 122.014 42.5291C121.728 42.5291 121.488 42.6037 121.297 42.7528C121.105 42.902 120.961 43.108 120.863 43.3707C120.766 43.6335 120.718 43.9342 120.718 44.2727C120.718 44.6136 120.766 44.9179 120.863 45.1854C120.963 45.4505 121.108 45.66 121.3 45.8139C121.494 45.9654 121.732 46.0412 122.014 46.0412ZM128.345 47.1065C127.798 47.1065 127.326 46.9929 126.928 46.7656C126.533 46.536 126.228 46.2116 126.015 45.7926C125.802 45.3712 125.696 44.8752 125.696 44.3047C125.696 43.7436 125.802 43.2512 126.015 42.8274C126.231 42.4013 126.531 42.0698 126.917 41.8331C127.303 41.594 127.757 41.4744 128.277 41.4744C128.614 41.4744 128.931 41.5289 129.229 41.6378C129.53 41.7443 129.795 41.91 130.025 42.1349C130.257 42.3598 130.439 42.6463 130.571 42.9943C130.704 43.34 130.77 43.7519 130.77 44.2301V44.6243H126.299V43.7578H129.538C129.536 43.5116 129.482 43.2926 129.378 43.1009C129.274 42.9067 129.128 42.754 128.941 42.6428C128.757 42.5315 128.541 42.4759 128.295 42.4759C128.032 42.4759 127.801 42.5398 127.603 42.6676C127.404 42.7931 127.249 42.9588 127.137 43.1648C127.029 43.3684 126.973 43.5921 126.971 43.8359V44.5923C126.971 44.9096 127.029 45.1818 127.145 45.4091C127.261 45.634 127.423 45.8068 127.631 45.9276C127.839 46.0459 128.083 46.1051 128.363 46.1051C128.55 46.1051 128.719 46.0791 128.87 46.027C129.022 45.9725 129.153 45.8932 129.265 45.7891C129.376 45.6849 129.46 45.5559 129.517 45.402L130.717 45.5369C130.641 45.8542 130.497 46.1312 130.284 46.3679C130.073 46.6023 129.803 46.7846 129.474 46.9148C129.145 47.0426 128.769 47.1065 128.345 47.1065ZM134.581 41.5455V42.5398H131.446V41.5455H134.581ZM132.22 40.2386H133.506V45.3594C133.506 45.5322 133.532 45.6648 133.584 45.7571C133.638 45.8471 133.709 45.9086 133.797 45.9418C133.884 45.9749 133.981 45.9915 134.088 45.9915C134.168 45.9915 134.242 45.9856 134.308 45.9737C134.377 45.9619 134.429 45.9512 134.464 45.9418L134.681 46.9467C134.612 46.9704 134.514 46.9964 134.386 47.0249C134.261 47.0533 134.107 47.0698 133.925 47.0746C133.603 47.084 133.313 47.0355 133.055 46.929C132.796 46.8201 132.592 46.652 132.44 46.4247C132.291 46.1974 132.218 45.9134 132.22 45.5724V40.2386ZM137.226 47.1101C136.881 47.1101 136.569 47.0485 136.292 46.9254C136.018 46.8 135.8 46.6153 135.639 46.3714C135.48 46.1276 135.401 45.8269 135.401 45.4695C135.401 45.1617 135.458 44.9072 135.571 44.706C135.685 44.5047 135.84 44.3438 136.037 44.223C136.233 44.1023 136.454 44.0111 136.701 43.9496C136.949 43.8857 137.206 43.8395 137.471 43.8111C137.791 43.7779 138.05 43.7483 138.249 43.7223C138.448 43.6939 138.592 43.6513 138.682 43.5945C138.775 43.5353 138.821 43.4441 138.821 43.321V43.2997C138.821 43.0322 138.741 42.825 138.583 42.6783C138.424 42.5315 138.196 42.4581 137.897 42.4581C137.583 42.4581 137.333 42.5268 137.148 42.6641C136.966 42.8014 136.843 42.9635 136.779 43.1506L135.578 42.9801C135.673 42.6487 135.829 42.3717 136.047 42.1491C136.265 41.9242 136.531 41.7562 136.846 41.6449C137.161 41.5312 137.509 41.4744 137.89 41.4744C138.153 41.4744 138.415 41.5052 138.675 41.5668C138.935 41.6283 139.173 41.7301 139.389 41.8722C139.604 42.0118 139.777 42.2024 139.907 42.4439C140.04 42.6854 140.106 42.9872 140.106 43.3494V47H138.87V46.2507H138.828C138.75 46.4022 138.64 46.5443 138.498 46.6768C138.358 46.8071 138.181 46.9124 137.968 46.9929C137.758 47.071 137.51 47.1101 137.226 47.1101ZM137.56 46.1655C137.818 46.1655 138.042 46.1146 138.231 46.0128C138.421 45.9086 138.566 45.7713 138.668 45.6009C138.772 45.4304 138.824 45.2446 138.824 45.0433V44.4006C138.784 44.4337 138.715 44.4645 138.618 44.4929C138.524 44.5213 138.417 44.5462 138.299 44.5675C138.18 44.5888 138.063 44.6077 137.947 44.6243C137.831 44.6409 137.73 44.6551 137.645 44.6669C137.453 44.6929 137.282 44.7356 137.13 44.7947C136.979 44.8539 136.859 44.9368 136.772 45.0433C136.684 45.1475 136.64 45.2824 136.64 45.4482C136.64 45.6849 136.727 45.8636 136.9 45.9844C137.072 46.1051 137.292 46.1655 137.56 46.1655ZM141.399 47V41.5455H142.684V47H141.399ZM142.045 40.7713C141.842 40.7713 141.666 40.7038 141.52 40.5689C141.373 40.4316 141.299 40.267 141.299 40.0753C141.299 39.8812 141.373 39.7166 141.52 39.5817C141.666 39.4444 141.842 39.3757 142.045 39.3757C142.251 39.3757 142.426 39.4444 142.571 39.5817C142.717 39.7166 142.791 39.8812 142.791 40.0753C142.791 40.267 142.717 40.4316 142.571 40.5689C142.426 40.7038 142.251 40.7713 142.045 40.7713ZM145.292 39.7273V47H144.006V39.7273H145.292ZM149.028 47.1065C148.482 47.1065 148.009 46.9929 147.612 46.7656C147.216 46.536 146.912 46.2116 146.699 45.7926C146.486 45.3712 146.379 44.8752 146.379 44.3047C146.379 43.7436 146.486 43.2512 146.699 42.8274C146.914 42.4013 147.215 42.0698 147.601 41.8331C147.987 41.594 148.44 41.4744 148.961 41.4744C149.297 41.4744 149.614 41.5289 149.913 41.6378C150.213 41.7443 150.478 41.91 150.708 42.1349C150.94 42.3598 151.122 42.6463 151.255 42.9943C151.388 43.34 151.454 43.7519 151.454 44.2301V44.6243H146.983V43.7578H150.222C150.219 43.5116 150.166 43.2926 150.062 43.1009C149.958 42.9067 149.812 42.754 149.625 42.6428C149.44 42.5315 149.225 42.4759 148.979 42.4759C148.716 42.4759 148.485 42.5398 148.286 42.6676C148.087 42.7931 147.932 42.9588 147.821 43.1648C147.712 43.3684 147.656 43.5921 147.654 43.8359V44.5923C147.654 44.9096 147.712 45.1818 147.828 45.4091C147.944 45.634 148.106 45.8068 148.315 45.9276C148.523 46.0459 148.767 46.1051 149.046 46.1051C149.233 46.1051 149.402 46.0791 149.554 46.027C149.705 45.9725 149.837 45.8932 149.948 45.7891C150.059 45.6849 150.143 45.5559 150.2 45.402L151.401 45.5369C151.325 45.8542 151.18 46.1312 150.967 46.3679C150.757 46.6023 150.487 46.7846 150.158 46.9148C149.829 47.0426 149.452 47.1065 149.028 47.1065ZM154.566 47.0959C154.137 47.0959 153.753 46.9858 153.415 46.7656C153.076 46.5455 152.809 46.2259 152.612 45.8068C152.416 45.3878 152.318 44.8788 152.318 44.2798C152.318 43.6738 152.417 43.1624 152.616 42.7457C152.817 42.3267 153.088 42.0107 153.429 41.7976C153.77 41.5821 154.15 41.4744 154.569 41.4744C154.889 41.4744 155.151 41.5289 155.357 41.6378C155.563 41.7443 155.727 41.8733 155.847 42.0249C155.968 42.174 156.062 42.3149 156.128 42.4474H156.181V39.7273H157.47V47H156.206V46.1406H156.128C156.062 46.2732 155.966 46.4141 155.84 46.5632C155.715 46.71 155.549 46.8355 155.343 46.9396C155.137 47.0438 154.878 47.0959 154.566 47.0959ZM154.924 46.0412C155.196 46.0412 155.428 45.9678 155.62 45.821C155.812 45.6719 155.958 45.4647 156.057 45.1996C156.156 44.9344 156.206 44.6255 156.206 44.2727C156.206 43.92 156.156 43.6134 156.057 43.353C155.96 43.0926 155.816 42.8902 155.624 42.7457C155.434 42.6013 155.201 42.5291 154.924 42.5291C154.638 42.5291 154.399 42.6037 154.207 42.7528C154.015 42.902 153.871 43.108 153.774 43.3707C153.677 43.6335 153.628 43.9342 153.628 44.2727C153.628 44.6136 153.677 44.9179 153.774 45.1854C153.873 45.4505 154.019 45.66 154.21 45.8139C154.405 45.9654 154.642 46.0412 154.924 46.0412ZM164.083 41.5455V42.5398H160.859V41.5455H164.083ZM161.665 47V41.0305C161.665 40.6636 161.741 40.3582 161.892 40.1143C162.046 39.8705 162.252 39.6882 162.51 39.5675C162.768 39.4467 163.055 39.3864 163.37 39.3864C163.592 39.3864 163.79 39.4041 163.963 39.4396C164.136 39.4751 164.263 39.5071 164.346 39.5355L164.091 40.5298C164.036 40.5133 163.967 40.4967 163.885 40.4801C163.802 40.4612 163.709 40.4517 163.608 40.4517C163.368 40.4517 163.199 40.5097 163.1 40.6257C163.003 40.7393 162.954 40.9027 162.954 41.1158V47H161.665ZM167.3 47.1065C166.753 47.1065 166.281 46.9929 165.883 46.7656C165.488 46.536 165.183 46.2116 164.97 45.7926C164.757 45.3712 164.651 44.8752 164.651 44.3047C164.651 43.7436 164.757 43.2512 164.97 42.8274C165.186 42.4013 165.486 42.0698 165.872 41.8331C166.258 41.594 166.712 41.4744 167.232 41.4744C167.569 41.4744 167.886 41.5289 168.184 41.6378C168.485 41.7443 168.75 41.91 168.98 42.1349C169.212 42.3598 169.394 42.6463 169.526 42.9943C169.659 43.34 169.725 43.7519 169.725 44.2301V44.6243H165.254V43.7578H168.493C168.491 43.5116 168.437 43.2926 168.333 43.1009C168.229 42.9067 168.084 42.754 167.896 42.6428C167.712 42.5315 167.496 42.4759 167.25 42.4759C166.987 42.4759 166.757 42.5398 166.558 42.6676C166.359 42.7931 166.204 42.9588 166.093 43.1648C165.984 43.3684 165.928 43.5921 165.926 43.8359V44.5923C165.926 44.9096 165.984 45.1818 166.1 45.4091C166.216 45.634 166.378 45.8068 166.586 45.9276C166.794 46.0459 167.038 46.1051 167.318 46.1051C167.505 46.1051 167.674 46.0791 167.825 46.027C167.977 45.9725 168.108 45.8932 168.22 45.7891C168.331 45.6849 168.415 45.5559 168.472 45.402L169.672 45.5369C169.596 45.8542 169.452 46.1312 169.239 46.3679C169.028 46.6023 168.758 46.7846 168.429 46.9148C168.1 47.0426 167.724 47.1065 167.3 47.1065ZM173.228 47.1065C172.681 47.1065 172.208 46.9929 171.811 46.7656C171.415 46.536 171.111 46.2116 170.898 45.7926C170.685 45.3712 170.578 44.8752 170.578 44.3047C170.578 43.7436 170.685 43.2512 170.898 42.8274C171.114 42.4013 171.414 42.0698 171.8 41.8331C172.186 41.594 172.639 41.4744 173.16 41.4744C173.496 41.4744 173.814 41.5289 174.112 41.6378C174.413 41.7443 174.678 41.91 174.907 42.1349C175.139 42.3598 175.322 42.6463 175.454 42.9943C175.587 43.34 175.653 43.7519 175.653 44.2301V44.6243H171.182V43.7578H174.421C174.418 43.5116 174.365 43.2926 174.261 43.1009C174.157 42.9067 174.011 42.754 173.824 42.6428C173.64 42.5315 173.424 42.4759 173.178 42.4759C172.915 42.4759 172.684 42.5398 172.485 42.6676C172.287 42.7931 172.132 42.9588 172.02 43.1648C171.911 43.3684 171.856 43.5921 171.853 43.8359V44.5923C171.853 44.9096 171.911 45.1818 172.027 45.4091C172.143 45.634 172.306 45.8068 172.514 45.9276C172.722 46.0459 172.966 46.1051 173.245 46.1051C173.432 46.1051 173.602 46.0791 173.753 46.027C173.905 45.9725 174.036 45.8932 174.147 45.7891C174.259 45.6849 174.343 45.5559 174.4 45.402L175.6 45.5369C175.524 45.8542 175.38 46.1312 175.167 46.3679C174.956 46.6023 174.686 46.7846 174.357 46.9148C174.028 47.0426 173.651 47.1065 173.228 47.1065ZM178.765 47.0959C178.336 47.0959 177.953 46.9858 177.614 46.7656C177.276 46.5455 177.008 46.2259 176.812 45.8068C176.615 45.3878 176.517 44.8788 176.517 44.2798C176.517 43.6738 176.616 43.1624 176.815 42.7457C177.016 42.3267 177.287 42.0107 177.628 41.7976C177.969 41.5821 178.349 41.4744 178.768 41.4744C179.088 41.4744 179.351 41.5289 179.557 41.6378C179.763 41.7443 179.926 41.8733 180.047 42.0249C180.167 42.174 180.261 42.3149 180.327 42.4474H180.381V39.7273H181.67V47H180.405V46.1406H180.327C180.261 46.2732 180.165 46.4141 180.04 46.5632C179.914 46.71 179.748 46.8355 179.542 46.9396C179.336 47.0438 179.077 47.0959 178.765 47.0959ZM179.123 46.0412C179.396 46.0412 179.628 45.9678 179.819 45.821C180.011 45.6719 180.157 45.4647 180.256 45.1996C180.356 44.9344 180.405 44.6255 180.405 44.2727C180.405 43.92 180.356 43.6134 180.256 43.353C180.159 43.0926 180.015 42.8902 179.823 42.7457C179.634 42.6013 179.4 42.5291 179.123 42.5291C178.837 42.5291 178.598 42.6037 178.406 42.7528C178.214 42.902 178.07 43.108 177.973 43.3707C177.876 43.6335 177.827 43.9342 177.827 44.2727C177.827 44.6136 177.876 44.9179 177.973 45.1854C178.072 45.4505 178.218 45.66 178.41 45.8139C178.604 45.9654 178.842 46.0412 179.123 46.0412ZM183.096 47V39.7273H184.382V42.4474H184.435C184.501 42.3149 184.595 42.174 184.716 42.0249C184.836 41.8733 185 41.7443 185.206 41.6378C185.412 41.5289 185.674 41.4744 185.994 41.4744C186.415 41.4744 186.795 41.5821 187.134 41.7976C187.475 42.0107 187.745 42.3267 187.944 42.7457C188.145 43.1624 188.245 43.6738 188.245 44.2798C188.245 44.8788 188.147 45.3878 187.951 45.8068C187.754 46.2259 187.487 46.5455 187.148 46.7656C186.81 46.9858 186.426 47.0959 185.998 47.0959C185.685 47.0959 185.426 47.0438 185.22 46.9396C185.014 46.8355 184.848 46.71 184.723 46.5632C184.6 46.4141 184.504 46.2732 184.435 46.1406H184.36V47H183.096ZM184.357 44.2727C184.357 44.6255 184.407 44.9344 184.506 45.1996C184.608 45.4647 184.753 45.6719 184.943 45.821C185.135 45.9678 185.367 46.0412 185.639 46.0412C185.923 46.0412 186.161 45.9654 186.353 45.8139C186.544 45.66 186.689 45.4505 186.786 45.1854C186.885 44.9179 186.935 44.6136 186.935 44.2727C186.935 43.9342 186.886 43.6335 186.789 43.3707C186.692 43.108 186.548 42.902 186.356 42.7528C186.164 42.6037 185.925 42.5291 185.639 42.5291C185.364 42.5291 185.131 42.6013 184.939 42.7457C184.748 42.8902 184.602 43.0926 184.502 43.353C184.405 43.6134 184.357 43.92 184.357 44.2727ZM190.908 47.1101C190.562 47.1101 190.251 47.0485 189.974 46.9254C189.699 46.8 189.481 46.6153 189.32 46.3714C189.162 46.1276 189.083 45.8269 189.083 45.4695C189.083 45.1617 189.139 44.9072 189.253 44.706C189.367 44.5047 189.522 44.3438 189.718 44.223C189.915 44.1023 190.136 44.0111 190.382 43.9496C190.631 43.8857 190.888 43.8395 191.153 43.8111C191.472 43.7779 191.732 43.7483 191.931 43.7223C192.129 43.6939 192.274 43.6513 192.364 43.5945C192.456 43.5353 192.502 43.4441 192.502 43.321V43.2997C192.502 43.0322 192.423 42.825 192.264 42.6783C192.106 42.5315 191.877 42.4581 191.579 42.4581C191.264 42.4581 191.014 42.5268 190.83 42.6641C190.647 42.8014 190.524 42.9635 190.46 43.1506L189.26 42.9801C189.355 42.6487 189.511 42.3717 189.729 42.1491C189.947 41.9242 190.213 41.7562 190.528 41.6449C190.843 41.5312 191.191 41.4744 191.572 41.4744C191.835 41.4744 192.096 41.5052 192.357 41.5668C192.617 41.6283 192.855 41.7301 193.07 41.8722C193.286 42.0118 193.459 42.2024 193.589 42.4439C193.722 42.6854 193.788 42.9872 193.788 43.3494V47H192.552V46.2507H192.509C192.431 46.4022 192.321 46.5443 192.179 46.6768C192.039 46.8071 191.863 46.9124 191.65 46.9929C191.439 47.071 191.192 47.1101 190.908 47.1101ZM191.242 46.1655C191.5 46.1655 191.723 46.1146 191.913 46.0128C192.102 45.9086 192.248 45.7713 192.35 45.6009C192.454 45.4304 192.506 45.2446 192.506 45.0433V44.4006C192.466 44.4337 192.397 44.4645 192.3 44.4929C192.205 44.5213 192.099 44.5462 191.98 44.5675C191.862 44.5888 191.745 44.6077 191.629 44.6243C191.513 44.6409 191.412 44.6551 191.327 44.6669C191.135 44.6929 190.963 44.7356 190.812 44.7947C190.66 44.8539 190.541 44.9368 190.453 45.0433C190.366 45.1475 190.322 45.2824 190.322 45.4482C190.322 45.6849 190.408 45.8636 190.581 45.9844C190.754 46.1051 190.974 46.1655 191.242 46.1655ZM197.46 47.1065C196.915 47.1065 196.448 46.987 196.057 46.7479C195.669 46.5088 195.369 46.1785 195.159 45.7571C194.95 45.3333 194.846 44.8456 194.846 44.294C194.846 43.7401 194.953 43.2512 195.166 42.8274C195.379 42.4013 195.679 42.0698 196.068 41.8331C196.458 41.594 196.92 41.4744 197.453 41.4744C197.895 41.4744 198.287 41.5561 198.628 41.7195C198.971 41.8804 199.245 42.1089 199.448 42.4048C199.652 42.6984 199.768 43.0417 199.796 43.4347H198.568C198.518 43.1719 198.4 42.9529 198.213 42.7777C198.028 42.6001 197.78 42.5114 197.47 42.5114C197.208 42.5114 196.977 42.5824 196.778 42.7244C196.579 42.8641 196.424 43.0653 196.313 43.3281C196.204 43.5909 196.149 43.9058 196.149 44.2727C196.149 44.6444 196.204 44.964 196.313 45.2315C196.422 45.4967 196.574 45.7015 196.771 45.8459C196.97 45.9879 197.203 46.0589 197.47 46.0589C197.66 46.0589 197.829 46.0234 197.978 45.9524C198.13 45.879 198.256 45.7737 198.358 45.6364C198.46 45.4991 198.53 45.3321 198.568 45.1357H199.796C199.766 45.5215 199.652 45.8636 199.455 46.1619C199.259 46.4579 198.991 46.6899 198.653 46.858C198.314 47.0237 197.917 47.1065 197.46 47.1065ZM202.024 45.2884L202.02 43.7365H202.226L204.186 41.5455H205.689L203.277 44.2301H203.011L202.024 45.2884ZM200.852 47V39.7273H202.137V47H200.852ZM204.275 47L202.5 44.5178L203.366 43.6122L205.813 47H204.275Z" fill="#0E100F"/>
<g filter="url(#filter2_d_2391_4900)">
<rect x="57" y="127" width="233.333" height="42" rx="16.4231" fill="white"/>
<rect x="57.5833" y="127.583" width="232.167" height="40.8333" rx="15.8397" stroke="#F2F2F2" stroke-width="1.16667"/>
</g>
<path fill-rule="evenodd" clip-rule="evenodd" d="M216.624 155.987C216.061 155.987 215.605 155.514 215.605 154.932V141.562C215.605 140.979 216.061 140.506 216.624 140.506C217.187 140.506 217.644 140.979 217.644 141.562V154.932C217.644 155.514 217.187 155.987 216.624 155.987ZM209.656 155.635C209.093 155.635 208.636 155.162 208.636 154.58V142.266C208.636 141.683 209.093 141.21 209.656 141.21C210.219 141.21 210.676 141.683 210.676 142.266V154.58C210.676 155.162 210.219 155.635 209.656 155.635ZM201.668 152.117C201.668 152.7 202.125 153.172 202.688 153.172C203.251 153.172 203.707 152.7 203.707 152.117V144.728C203.707 144.146 203.251 143.673 202.688 143.673C202.125 143.673 201.668 144.146 201.668 144.728V152.117ZM205.067 150.71C205.067 151.292 205.524 151.765 206.087 151.765C206.65 151.765 207.107 151.292 207.107 150.71V146.136C207.107 145.553 206.65 145.08 206.087 145.08C205.524 145.08 205.067 145.553 205.067 146.136V150.71ZM212.205 152.117C212.205 152.7 212.662 153.172 213.225 153.172C213.788 153.172 214.245 152.7 214.245 152.117V144.377C214.245 143.794 213.788 143.321 213.225 143.321C212.662 143.321 212.205 143.794 212.205 144.377V152.117ZM219.004 151.413C219.004 151.996 219.461 152.469 220.024 152.469C220.586 152.469 221.043 151.996 221.043 151.413V145.432C221.043 144.849 220.586 144.377 220.024 144.377C219.461 144.377 219.004 144.849 219.004 145.432V151.413ZM223.593 154.58C223.03 154.58 222.573 154.107 222.573 153.524V142.969C222.573 142.386 223.03 141.914 223.593 141.914C224.156 141.914 224.612 142.386 224.612 142.969V153.524C224.612 154.107 224.156 154.58 223.593 154.58Z" fill="#13A249"/>
<path fill-rule="evenodd" clip-rule="evenodd" d="M241.593 154.641C241.03 154.641 240.573 154.25 240.573 153.769V142.724C240.573 142.243 241.03 141.853 241.593 141.853C242.156 141.853 242.613 142.243 242.613 142.724V153.769C242.613 154.25 242.156 154.641 241.593 154.641ZM234.625 154.35C234.062 154.35 233.605 153.96 233.605 153.478V143.306C233.605 142.824 234.062 142.434 234.625 142.434C235.188 142.434 235.645 142.824 235.645 143.306V153.478C235.645 153.96 235.188 154.35 234.625 154.35ZM226.637 151.444C226.637 151.925 227.094 152.316 227.656 152.316C228.219 152.316 228.676 151.925 228.676 151.444V145.34C228.676 144.859 228.219 144.468 227.656 144.468C227.094 144.468 226.637 144.859 226.637 145.34V151.444ZM230.036 150.281C230.036 150.763 230.493 151.153 231.056 151.153C231.619 151.153 232.075 150.763 232.075 150.281V146.503C232.075 146.022 231.619 145.631 231.056 145.631C230.493 145.631 230.036 146.022 230.036 146.503V150.281ZM237.174 151.444C237.174 151.925 237.631 152.316 238.194 152.316C238.757 152.316 239.214 151.925 239.214 151.444V145.05C239.214 144.568 238.757 144.178 238.194 144.178C237.631 144.178 237.174 144.568 237.174 145.05V151.444ZM243.973 150.863C243.973 151.344 244.429 151.735 244.992 151.735C245.555 151.735 246.012 151.344 246.012 150.863V145.922C246.012 145.44 245.555 145.05 244.992 145.05C244.429 145.05 243.973 145.44 243.973 145.922V150.863ZM248.561 153.478C247.998 153.478 247.542 153.088 247.542 152.606V143.887C247.542 143.406 247.998 143.015 248.561 143.015C249.124 143.015 249.581 143.406 249.581 143.887V152.606C249.581 153.088 249.124 153.478 248.561 153.478Z" fill="#CDEFCF"/>
<path fill-rule="evenodd" clip-rule="evenodd" d="M255.348 156.66C255.911 156.66 256.368 156.27 256.368 155.788V140.705C256.368 140.224 255.911 139.833 255.348 139.833C254.785 139.833 254.329 140.224 254.329 140.705V155.788C254.329 156.27 254.785 156.66 255.348 156.66ZM262.317 155.697C262.88 155.697 263.336 155.306 263.336 154.825V141.96C263.336 141.478 262.88 141.088 262.317 141.088C261.754 141.088 261.297 141.478 261.297 141.96V154.825C261.297 155.306 261.754 155.697 262.317 155.697ZM270.305 152.79C270.305 153.272 269.848 153.662 269.285 153.662C268.722 153.662 268.265 153.272 268.265 152.79V143.994C268.265 143.513 268.722 143.122 269.285 143.122C269.848 143.122 270.305 143.513 270.305 143.994V152.79ZM266.906 150.281C266.906 150.763 266.449 151.153 265.886 151.153C265.323 151.153 264.866 150.763 264.866 150.281V146.503C264.866 146.022 265.323 145.631 265.886 145.631C266.449 145.631 266.906 146.022 266.906 146.503V150.281ZM259.767 151.444C259.767 151.925 259.31 152.316 258.747 152.316C258.185 152.316 257.728 151.925 257.728 151.444V145.05C257.728 144.568 258.185 144.178 258.747 144.178C259.31 144.178 259.767 144.568 259.767 145.05V151.444ZM252.969 150.863C252.969 151.344 252.512 151.735 251.949 151.735C251.386 151.735 250.929 151.344 250.929 150.863V145.922C250.929 145.44 251.386 145.05 251.949 145.05C252.512 145.05 252.969 145.44 252.969 145.922V150.863Z" fill="#CDEFCF"/>
<path d="M80.7697 154.635C82.815 154.635 84.4885 152.962 84.4885 150.917V144.719C84.4885 142.673 82.815 141 80.7697 141C78.7243 141 77.0508 142.673 77.0508 144.719V150.917C77.0508 152.962 78.7243 154.635 80.7697 154.635Z" fill="#067332"/>
<path d="M85.7287 149.057V150.917C85.7287 153.644 83.4974 155.875 80.7698 155.875C78.0422 155.875 75.8109 153.644 75.8109 150.917V149.057H73.332V150.917C73.332 154.574 75.9968 157.672 79.5298 158.23V160.833H82.0086V158.23C85.5416 157.611 88.2064 154.573 88.2064 150.917V149.057H85.7287Z" fill="#067332"/>
<path d="M104.874 143.515V152H103.337V143.515H104.874ZM107.744 143.515V144.36C107.744 144.603 107.697 144.856 107.603 145.118C107.512 145.378 107.386 145.627 107.226 145.864C107.066 146.099 106.884 146.301 106.679 146.469L105.983 146.018C106.135 145.788 106.268 145.541 106.381 145.276C106.494 145.008 106.551 144.706 106.551 144.369V143.515H107.744ZM108.717 152V145.636H110.15V146.718H110.225C110.357 146.353 110.577 146.069 110.883 145.864C111.19 145.657 111.556 145.554 111.981 145.554C112.412 145.554 112.775 145.658 113.071 145.868C113.369 146.076 113.579 146.359 113.701 146.718H113.767C113.908 146.364 114.145 146.082 114.479 145.873C114.816 145.66 115.216 145.554 115.677 145.554C116.262 145.554 116.74 145.739 117.11 146.109C117.48 146.479 117.665 147.019 117.665 147.729V152H116.162V147.961C116.162 147.566 116.057 147.277 115.847 147.095C115.637 146.91 115.38 146.817 115.076 146.817C114.714 146.817 114.431 146.93 114.227 147.157C114.025 147.381 113.924 147.672 113.924 148.031V152H112.454V147.898C112.454 147.57 112.354 147.307 112.155 147.111C111.959 146.915 111.702 146.817 111.385 146.817C111.169 146.817 110.973 146.872 110.796 146.983C110.62 147.091 110.479 147.244 110.374 147.443C110.269 147.639 110.216 147.868 110.216 148.13V152H108.717ZM123.581 143.515V152H122.081V143.515H123.581ZM125.123 152V145.636H126.623V152H125.123ZM125.877 144.733C125.639 144.733 125.435 144.654 125.264 144.497C125.092 144.337 125.007 144.145 125.007 143.921C125.007 143.695 125.092 143.503 125.264 143.345C125.435 143.185 125.639 143.105 125.877 143.105C126.117 143.105 126.322 143.185 126.49 143.345C126.661 143.503 126.747 143.695 126.747 143.921C126.747 144.145 126.661 144.337 126.49 144.497C126.322 144.654 126.117 144.733 125.877 144.733ZM133.194 147.318L131.827 147.468C131.789 147.329 131.721 147.2 131.624 147.078C131.53 146.957 131.403 146.859 131.243 146.784C131.083 146.709 130.887 146.672 130.655 146.672C130.343 146.672 130.08 146.74 129.868 146.875C129.658 147.01 129.554 147.186 129.557 147.401C129.554 147.586 129.622 147.737 129.76 147.853C129.901 147.969 130.133 148.064 130.456 148.139L131.541 148.371C132.143 148.501 132.591 148.706 132.884 148.988C133.179 149.27 133.328 149.638 133.331 150.094C133.328 150.495 133.211 150.848 132.979 151.155C132.75 151.459 132.431 151.696 132.022 151.867C131.613 152.039 131.144 152.124 130.613 152.124C129.834 152.124 129.207 151.961 128.732 151.635C128.257 151.307 127.974 150.85 127.883 150.264L129.346 150.123C129.412 150.41 129.553 150.627 129.768 150.774C129.984 150.92 130.264 150.993 130.609 150.993C130.965 150.993 131.251 150.92 131.467 150.774C131.685 150.627 131.794 150.446 131.794 150.231C131.794 150.049 131.724 149.898 131.583 149.779C131.445 149.661 131.229 149.569 130.936 149.506L129.851 149.278C129.241 149.151 128.789 148.937 128.496 148.636C128.203 148.332 128.058 147.948 128.061 147.484C128.058 147.092 128.165 146.752 128.38 146.465C128.598 146.175 128.901 145.951 129.288 145.794C129.677 145.634 130.126 145.554 130.634 145.554C131.38 145.554 131.967 145.712 132.395 146.03C132.826 146.348 133.092 146.777 133.194 147.318ZM137.745 145.636V146.796H134.087V145.636H137.745ZM134.99 144.112H136.49V150.086C136.49 150.288 136.521 150.442 136.581 150.55C136.645 150.655 136.728 150.727 136.83 150.765C136.932 150.804 137.045 150.823 137.17 150.823C137.264 150.823 137.349 150.816 137.426 150.803C137.507 150.789 137.567 150.776 137.609 150.765L137.861 151.938C137.781 151.965 137.667 151.996 137.518 152.029C137.371 152.062 137.192 152.081 136.979 152.087C136.603 152.098 136.265 152.041 135.964 151.917C135.663 151.79 135.424 151.594 135.247 151.329C135.073 151.064 134.988 150.732 134.99 150.335V144.112ZM141.749 152.124C141.111 152.124 140.56 151.992 140.096 151.727C139.634 151.459 139.279 151.08 139.031 150.591C138.782 150.1 138.658 149.521 138.658 148.855C138.658 148.201 138.782 147.626 139.031 147.132C139.282 146.635 139.633 146.248 140.083 145.972C140.533 145.693 141.062 145.554 141.67 145.554C142.062 145.554 142.432 145.617 142.78 145.744C143.131 145.868 143.44 146.062 143.708 146.324C143.979 146.586 144.192 146.921 144.346 147.327C144.501 147.73 144.578 148.211 144.578 148.768V149.228H139.362V148.217H143.141C143.138 147.93 143.076 147.675 142.954 147.451C142.833 147.225 142.663 147.046 142.445 146.917C142.229 146.787 141.978 146.722 141.691 146.722C141.384 146.722 141.115 146.796 140.883 146.946C140.651 147.092 140.47 147.285 140.34 147.526C140.213 147.763 140.148 148.024 140.145 148.309V149.191C140.145 149.561 140.213 149.879 140.348 150.144C140.484 150.406 140.673 150.608 140.916 150.749C141.159 150.887 141.443 150.956 141.769 150.956C141.988 150.956 142.185 150.926 142.362 150.865C142.539 150.801 142.692 150.709 142.822 150.587C142.951 150.466 143.05 150.315 143.116 150.136L144.516 150.293C144.428 150.663 144.259 150.986 144.011 151.263C143.765 151.536 143.45 151.749 143.066 151.901C142.682 152.05 142.243 152.124 141.749 152.124ZM147.347 148.271V152H145.847V145.636H147.281V146.718H147.355C147.502 146.361 147.735 146.078 148.055 145.868C148.378 145.658 148.778 145.554 149.253 145.554C149.692 145.554 150.074 145.647 150.4 145.835C150.729 146.023 150.983 146.295 151.163 146.651C151.345 147.008 151.435 147.44 151.432 147.948V152H149.932V148.18C149.932 147.755 149.822 147.422 149.601 147.182C149.382 146.941 149.08 146.821 148.693 146.821C148.431 146.821 148.198 146.879 147.993 146.995C147.792 147.109 147.633 147.273 147.517 147.488C147.403 147.704 147.347 147.965 147.347 148.271ZM152.956 152V145.636H154.456V152H152.956ZM153.711 144.733C153.473 144.733 153.269 144.654 153.097 144.497C152.926 144.337 152.84 144.145 152.84 143.921C152.84 143.695 152.926 143.503 153.097 143.345C153.269 143.185 153.473 143.105 153.711 143.105C153.951 143.105 154.155 143.185 154.324 143.345C154.495 143.503 154.581 143.695 154.581 143.921C154.581 144.145 154.495 144.337 154.324 144.497C154.155 144.654 153.951 144.733 153.711 144.733ZM157.498 148.271V152H155.998V145.636H157.432V146.718H157.507C157.653 146.361 157.886 146.078 158.207 145.868C158.53 145.658 158.929 145.554 159.404 145.554C159.843 145.554 160.226 145.647 160.552 145.835C160.88 146.023 161.134 146.295 161.314 146.651C161.496 147.008 161.586 147.44 161.583 147.948V152H160.083V148.18C160.083 147.755 159.973 147.422 159.752 147.182C159.534 146.941 159.231 146.821 158.845 146.821C158.582 146.821 158.349 146.879 158.145 146.995C157.943 147.109 157.784 147.273 157.668 147.488C157.555 147.704 157.498 147.965 157.498 148.271ZM165.875 154.519C165.337 154.519 164.874 154.446 164.487 154.299C164.101 154.156 163.79 153.962 163.555 153.719C163.321 153.476 163.158 153.207 163.066 152.911L164.417 152.584C164.478 152.708 164.566 152.831 164.682 152.953C164.798 153.077 164.954 153.179 165.15 153.259C165.349 153.342 165.599 153.384 165.9 153.384C166.326 153.384 166.678 153.28 166.957 153.073C167.236 152.869 167.375 152.532 167.375 152.062V150.857H167.301C167.223 151.011 167.11 151.17 166.961 151.333C166.814 151.496 166.62 151.633 166.377 151.743C166.136 151.854 165.834 151.909 165.469 151.909C164.98 151.909 164.537 151.794 164.139 151.565C163.744 151.333 163.43 150.988 163.195 150.529C162.963 150.068 162.847 149.491 162.847 148.797C162.847 148.099 162.963 147.509 163.195 147.028C163.43 146.545 163.746 146.179 164.144 145.931C164.541 145.679 164.985 145.554 165.473 145.554C165.846 145.554 166.153 145.617 166.393 145.744C166.636 145.868 166.83 146.019 166.973 146.196C167.117 146.37 167.226 146.534 167.301 146.689H167.383V145.636H168.862V152.104C168.862 152.648 168.733 153.098 168.473 153.454C168.213 153.81 167.858 154.077 167.408 154.254C166.958 154.431 166.447 154.519 165.875 154.519ZM165.888 150.732C166.205 150.732 166.476 150.655 166.7 150.5C166.924 150.346 167.093 150.123 167.209 149.833C167.325 149.543 167.383 149.195 167.383 148.789C167.383 148.389 167.325 148.038 167.209 147.737C167.096 147.436 166.928 147.202 166.704 147.037C166.483 146.868 166.211 146.784 165.888 146.784C165.554 146.784 165.275 146.871 165.051 147.045C164.827 147.219 164.659 147.458 164.545 147.762C164.432 148.063 164.376 148.405 164.376 148.789C164.376 149.179 164.432 149.52 164.545 149.812C164.661 150.103 164.831 150.329 165.055 150.492C165.282 150.652 165.559 150.732 165.888 150.732ZM171.323 152.091C171.072 152.091 170.857 152.003 170.677 151.826C170.498 151.649 170.409 151.434 170.412 151.18C170.409 150.931 170.498 150.718 170.677 150.542C170.857 150.365 171.072 150.277 171.323 150.277C171.566 150.277 171.778 150.365 171.957 150.542C172.14 150.718 172.232 150.931 172.235 151.18C172.232 151.348 172.188 151.501 172.102 151.64C172.019 151.778 171.909 151.888 171.771 151.971C171.636 152.051 171.486 152.091 171.323 152.091ZM174.707 152.091C174.456 152.091 174.24 152.003 174.061 151.826C173.881 151.649 173.793 151.434 173.796 151.18C173.793 150.931 173.881 150.718 174.061 150.542C174.24 150.365 174.456 150.277 174.707 150.277C174.95 150.277 175.162 150.365 175.341 150.542C175.523 150.718 175.616 150.931 175.619 151.18C175.616 151.348 175.572 151.501 175.486 151.64C175.403 151.778 175.293 151.888 175.155 151.971C175.019 152.051 174.87 152.091 174.707 152.091ZM178.091 152.091C177.84 152.091 177.624 152.003 177.445 151.826C177.265 151.649 177.177 151.434 177.18 151.18C177.177 150.931 177.265 150.718 177.445 150.542C177.624 150.365 177.84 150.277 178.091 150.277C178.334 150.277 178.545 150.365 178.725 150.542C178.907 150.718 179 150.931 179.002 151.18C179 151.348 178.955 151.501 178.87 151.64C178.787 151.778 178.677 151.888 178.538 151.971C178.403 152.051 178.254 152.091 178.091 152.091Z" fill="#0E100F"/>
<path d="M258 128L259.841 124.812H256.159L258 128ZM221 69V69.3188H247.799V69V68.6812H221V69ZM258 79.2013H257.681V125.131H258H258.319V79.2013H258ZM247.799 69V69.3188C253.257 69.3188 257.681 73.7434 257.681 79.2013H258H258.319C258.319 73.3912 253.609 68.6812 247.799 68.6812V69Z" fill="#13A249"/>
</g>
<defs>
<filter id="filter0_f_2391_4900" x="-58.6641" y="-57" width="210" height="236" filterUnits="userSpaceOnUse" color-interpolation-filters="sRGB">
<feFlood flood-opacity="0" result="BackgroundImageFix"/>
<feBlend mode="normal" in="SourceGraphic" in2="BackgroundImageFix" result="shape"/>
<feGaussianBlur stdDeviation="38" result="effect1_foregroundBlur_2391_4900"/>
</filter>
<filter id="filter1_f_2391_4900" x="87.3359" y="55" width="289" height="207" filterUnits="userSpaceOnUse" color-interpolation-filters="sRGB">
<feFlood flood-opacity="0" result="BackgroundImageFix"/>
<feBlend mode="normal" in="SourceGraphic" in2="BackgroundImageFix" result="shape"/>
<feGaussianBlur stdDeviation="38" result="effect1_foregroundBlur_2391_4900"/>
</filter>
<filter id="filter2_d_2391_4900" x="37.5256" y="107.526" width="261.332" height="70" filterUnits="userSpaceOnUse" color-interpolation-filters="sRGB">
<feFlood flood-opacity="0" result="BackgroundImageFix"/>
<feColorMatrix in="SourceAlpha" type="matrix" values="0 0 0 0 0 0 0 0 0 0 0 0 0 0 0 0 0 0 127 0" result="hardAlpha"/>
<feOffset dx="-5.47436" dy="-5.47436"/>
<feGaussianBlur stdDeviation="7"/>
<feComposite in2="hardAlpha" operator="out"/>
<feColorMatrix type="matrix" values="0 0 0 0 0 0 0 0 0 0 0 0 0 0 0 0 0 0 0.04 0"/>
<feBlend mode="normal" in2="BackgroundImageFix" result="effect1_dropShadow_2391_4900"/>
<feBlend mode="normal" in="SourceGraphic" in2="effect1_dropShadow_2391_4900" result="shape"/>
</filter>
<clipPath id="clip0_2391_4900">
<rect width="306" height="200" fill="white"/>
</clipPath>
</defs>
</svg>
