<svg width="364" height="359" viewBox="0 0 364 359" fill="none" xmlns="http://www.w3.org/2000/svg">
<g clip-path="url(#clip0_2370_4588)">
<path d="M0 0H332C349.673 0 364 14.3269 364 32V359H32C14.3269 359 0 344.673 0 327V0Z" fill="url(#paint0_linear_2370_4588)"/>
<path d="M290.965 245.512L268.861 252.271L290.118 321.792L242.117 277.032L226.355 293.938L278.218 342.296L215.225 327.757L210.025 350.285L279.122 366.224L217.303 385.131L224.062 407.235L291.607 386.577C278.127 373.125 274.269 352.783 281.898 335.33C289.526 317.877 307.081 306.893 326.114 307.656C345.14 308.418 361.76 320.777 367.965 338.782L429.345 320.009L422.587 297.905L354.776 318.642L398.863 271.362L381.953 255.595L333.599 307.464L348.137 244.47L325.609 239.271L309.887 307.408L290.965 245.512Z" fill="#1C944B"/>
<path d="M311.924 56.1769L311.924 68.7304L351.407 68.7318L320.536 86.5534L326.813 97.4248L360.166 78.1689L342.61 108.577L353.485 114.855L372.737 81.5L372.739 116.609L385.292 116.61L385.291 78.2481C376.163 83.1131 364.986 81.8854 357.133 75.1515C349.28 68.4176 346.363 57.5555 349.783 47.7915C353.2 38.0314 362.259 31.3622 372.595 30.9991L372.594 -3.86126L360.04 -3.86171L360.04 34.6505L342.487 4.24415L331.612 10.5221L350.871 43.8739L320.464 26.3181L314.185 37.1928L347.077 56.1801L311.924 56.1769Z" fill="#1C944B"/>
<circle cx="41.5" cy="106.5" r="6.5" stroke="#13A249" stroke-width="2"/>
<circle cx="65" cy="94" r="3" fill="#13A249"/>
<circle cx="282" cy="59" r="3" stroke="#13A249" stroke-width="2"/>
<circle cx="286" cy="31" r="3" fill="#13A249"/>
<circle cx="34" cy="57" r="3" fill="#13A249"/>
<circle cx="39.5" cy="316.5" r="4.5" stroke="#13A249" stroke-width="2"/>
<circle cx="49.5" cy="339.5" r="6.5" stroke="#13A249" stroke-width="2"/>
<circle cx="329" cy="193" r="3" fill="#13A249"/>
<circle cx="51.5" cy="34.5" r="6.5" stroke="#13A249" stroke-width="2"/>
<circle cx="69" cy="48" r="4" stroke="#13A249" stroke-width="2"/>
<g filter="url(#filter0_d_2370_4588)">
<rect x="65" y="104" width="112" height="37.0394" rx="14.4833" fill="white"/>
<rect x="65.5144" y="104.514" width="110.971" height="36.0105" rx="13.9689" stroke="#F2F2F2" stroke-width="1.02887"/>
</g>
<path fill-rule="evenodd" clip-rule="evenodd" d="M115.229 129.563C114.732 129.563 114.33 129.146 114.33 128.632V116.841C114.33 116.328 114.732 115.911 115.229 115.911C115.725 115.911 116.128 116.328 116.128 116.841V128.632C116.128 129.146 115.725 129.563 115.229 129.563ZM109.084 129.253C108.587 129.253 108.184 128.836 108.184 128.322V117.462C108.184 116.948 108.587 116.531 109.084 116.531C109.58 116.531 109.983 116.948 109.983 117.462V128.322C109.983 128.836 109.58 129.253 109.084 129.253ZM102.039 126.15C102.039 126.664 102.442 127.081 102.938 127.081C103.435 127.081 103.838 126.664 103.838 126.15V119.634C103.838 119.12 103.435 118.703 102.938 118.703C102.442 118.703 102.039 119.12 102.039 119.634V126.15ZM105.037 124.909C105.037 125.423 105.44 125.84 105.936 125.84C106.433 125.84 106.835 125.423 106.835 124.909V120.875C106.835 120.361 106.433 119.944 105.936 119.944C105.44 119.944 105.037 120.361 105.037 120.875V124.909ZM111.332 126.15C111.332 126.664 111.735 127.081 112.231 127.081C112.728 127.081 113.131 126.664 113.131 126.15V119.324C113.131 118.81 112.728 118.393 112.231 118.393C111.735 118.393 111.332 118.81 111.332 119.324V126.15ZM117.327 125.529C117.327 126.043 117.73 126.46 118.227 126.46C118.723 126.46 119.126 126.043 119.126 125.529V120.255C119.126 119.741 118.723 119.324 118.227 119.324C117.73 119.324 117.327 119.741 117.327 120.255V125.529ZM121.374 128.322C120.878 128.322 120.475 127.905 120.475 127.391V118.083C120.475 117.569 120.878 117.152 121.374 117.152C121.871 117.152 122.274 117.569 122.274 118.083V127.391C122.274 127.905 121.871 128.322 121.374 128.322Z" fill="#13A249"/>
<path fill-rule="evenodd" clip-rule="evenodd" d="M137.248 128.376C136.752 128.376 136.349 128.032 136.349 127.607V117.867C136.349 117.443 136.752 117.098 137.248 117.098C137.745 117.098 138.148 117.443 138.148 117.867V127.607C138.148 128.032 137.745 128.376 137.248 128.376ZM131.103 128.12C130.607 128.12 130.204 127.775 130.204 127.351V118.38C130.204 117.955 130.607 117.611 131.103 117.611C131.6 117.611 132.002 117.955 132.002 118.38V127.351C132.002 127.775 131.6 128.12 131.103 128.12ZM124.059 125.557C124.059 125.981 124.461 126.326 124.958 126.326C125.454 126.326 125.857 125.981 125.857 125.557V120.174C125.857 119.749 125.454 119.405 124.958 119.405C124.461 119.405 124.059 119.749 124.059 120.174V125.557ZM127.056 124.531C127.056 124.956 127.459 125.3 127.956 125.3C128.452 125.3 128.855 124.956 128.855 124.531V121.199C128.855 120.775 128.452 120.43 127.956 120.43C127.459 120.43 127.056 120.775 127.056 121.199V124.531ZM133.351 125.557C133.351 125.981 133.754 126.326 134.251 126.326C134.747 126.326 135.15 125.981 135.15 125.557V119.918C135.15 119.493 134.747 119.149 134.251 119.149C133.754 119.149 133.351 119.493 133.351 119.918V125.557ZM139.347 125.044C139.347 125.469 139.75 125.813 140.246 125.813C140.743 125.813 141.145 125.469 141.145 125.044V120.687C141.145 120.262 140.743 119.918 140.246 119.918C139.75 119.918 139.347 120.262 139.347 120.687V125.044ZM143.394 127.351C142.897 127.351 142.494 127.006 142.494 126.582V118.892C142.494 118.468 142.897 118.123 143.394 118.123C143.89 118.123 144.293 118.468 144.293 118.892V126.582C144.293 127.006 143.89 127.351 143.394 127.351Z" fill="#CDEFCF"/>
<path fill-rule="evenodd" clip-rule="evenodd" d="M149.38 130.157C149.877 130.157 150.28 129.812 150.28 129.388V116.086C150.28 115.662 149.877 115.317 149.38 115.317C148.884 115.317 148.481 115.662 148.481 116.086V129.388C148.481 129.812 148.884 130.157 149.38 130.157ZM155.526 129.307C156.022 129.307 156.425 128.963 156.425 128.538V117.193C156.425 116.768 156.022 116.424 155.526 116.424C155.029 116.424 154.626 116.768 154.626 117.193V128.538C154.626 128.963 155.029 129.307 155.526 129.307ZM162.57 126.744C162.57 127.168 162.167 127.513 161.671 127.513C161.175 127.513 160.772 127.168 160.772 126.744V118.987C160.772 118.562 161.175 118.218 161.671 118.218C162.167 118.218 162.57 118.562 162.57 118.987V126.744ZM159.573 124.531C159.573 124.956 159.17 125.3 158.673 125.3C158.177 125.3 157.774 124.956 157.774 124.531V121.199C157.774 120.775 158.177 120.43 158.673 120.43C159.17 120.43 159.573 120.775 159.573 121.199V124.531ZM153.277 125.557C153.277 125.981 152.875 126.326 152.378 126.326C151.882 126.326 151.479 125.981 151.479 125.557V119.918C151.479 119.493 151.882 119.149 152.378 119.149C152.875 119.149 153.277 119.493 153.277 119.918V125.557ZM147.282 125.044C147.282 125.469 146.879 125.813 146.383 125.813C145.886 125.813 145.483 125.469 145.483 125.044V120.687C145.483 120.262 145.886 119.918 146.383 119.918C146.879 119.918 147.282 120.262 147.282 120.687V125.044Z" fill="#CDEFCF"/>
<path d="M85.9671 128.371C87.7709 128.371 89.2468 126.895 89.2468 125.092V119.626C89.2468 117.822 87.7709 116.346 85.9671 116.346C84.1633 116.346 82.6875 117.822 82.6875 119.626V125.092C82.6875 126.895 84.1633 128.371 85.9671 128.371Z" fill="#067332"/>
<path d="M90.3387 123.452V125.091C90.3387 127.497 88.371 129.465 85.9655 129.465C83.5601 129.465 81.5923 127.497 81.5923 125.091V123.452H79.4062V125.091C79.4062 128.317 81.7563 131.049 84.872 131.541V133.837H87.058V131.541C90.1737 130.995 92.5238 128.316 92.5238 125.091V123.452H90.3387Z" fill="#067332"/>
<g opacity="0.5" filter="url(#filter1_f_2370_4588)">
<ellipse cx="228.5" cy="209.5" rx="81.5" ry="68.5" fill="#C7FCCA"/>
</g>
<rect opacity="0.9" x="150" y="154" width="132" height="115" rx="12" fill="white"/>
<path d="M168 226C168 221.582 171.582 218 176 218H177C181.418 218 185 221.582 185 226V245C185 249.418 181.418 253 177 253H176C171.582 253 168 249.418 168 245V226Z" fill="url(#paint1_linear_2370_4588)"/>
<path d="M193 211C193 206.582 196.582 203 201 203H202C206.418 203 210 206.582 210 211V245C210 249.418 206.418 253 202 253H201C196.582 253 193 249.418 193 245V211Z" fill="url(#paint2_linear_2370_4588)"/>
<path d="M218 196C218 191.582 221.582 188 226 188H227C231.418 188 235 191.582 235 196V245C235 249.418 231.418 253 227 253H226C221.582 253 218 249.418 218 245V196Z" fill="url(#paint3_linear_2370_4588)"/>
<path d="M243 181C243 176.582 246.582 173 251 173H252C256.418 173 260 176.582 260 181V245C260 249.418 256.418 253 252 253H251C246.582 253 243 249.418 243 245V181Z" fill="url(#paint4_linear_2370_4588)"/>
<path opacity="0.8" d="M102 250L181.378 204.499L201.743 239.52L318.5 172.11" stroke="url(#paint5_linear_2370_4588)" stroke-width="5" stroke-linecap="round"/>
<path d="M316.273 180.398L310.731 170.799C309.961 169.466 310.923 167.799 312.463 167.799L323.547 167.799C325.086 167.799 326.049 169.466 325.279 170.799L319.737 180.398C318.967 181.732 317.043 181.732 316.273 180.398Z" fill="#B5F7AC"/>
</g>
<defs>
<filter id="filter0_d_2370_4588" x="47.8258" y="86.8258" width="136.693" height="61.7325" filterUnits="userSpaceOnUse" color-interpolation-filters="sRGB">
<feFlood flood-opacity="0" result="BackgroundImageFix"/>
<feColorMatrix in="SourceAlpha" type="matrix" values="0 0 0 0 0 0 0 0 0 0 0 0 0 0 0 0 0 0 127 0" result="hardAlpha"/>
<feOffset dx="-4.82778" dy="-4.82778"/>
<feGaussianBlur stdDeviation="6.17323"/>
<feComposite in2="hardAlpha" operator="out"/>
<feColorMatrix type="matrix" values="0 0 0 0 0 0 0 0 0 0 0 0 0 0 0 0 0 0 0.04 0"/>
<feBlend mode="normal" in2="BackgroundImageFix" result="effect1_dropShadow_2370_4588"/>
<feBlend mode="normal" in="SourceGraphic" in2="effect1_dropShadow_2370_4588" result="shape"/>
</filter>
<filter id="filter1_f_2370_4588" x="71" y="65" width="315" height="289" filterUnits="userSpaceOnUse" color-interpolation-filters="sRGB">
<feFlood flood-opacity="0" result="BackgroundImageFix"/>
<feBlend mode="normal" in="SourceGraphic" in2="BackgroundImageFix" result="shape"/>
<feGaussianBlur stdDeviation="38" result="effect1_foregroundBlur_2370_4588"/>
</filter>
<linearGradient id="paint0_linear_2370_4588" x1="308" y1="508.5" x2="261.759" y2="-18.3757" gradientUnits="userSpaceOnUse">
<stop stop-color="#B8E2C8"/>
<stop offset="1" stop-color="white"/>
</linearGradient>
<linearGradient id="paint1_linear_2370_4588" x1="260" y1="216.5" x2="168" y2="216.5" gradientUnits="userSpaceOnUse">
<stop stop-color="#13A249"/>
<stop offset="1" stop-color="#0A5C29"/>
</linearGradient>
<linearGradient id="paint2_linear_2370_4588" x1="260" y1="216.5" x2="168" y2="216.5" gradientUnits="userSpaceOnUse">
<stop stop-color="#13A249"/>
<stop offset="1" stop-color="#0A5C29"/>
</linearGradient>
<linearGradient id="paint3_linear_2370_4588" x1="260" y1="216.5" x2="168" y2="216.5" gradientUnits="userSpaceOnUse">
<stop stop-color="#13A249"/>
<stop offset="1" stop-color="#0A5C29"/>
</linearGradient>
<linearGradient id="paint4_linear_2370_4588" x1="260" y1="216.5" x2="168" y2="216.5" gradientUnits="userSpaceOnUse">
<stop stop-color="#13A249"/>
<stop offset="1" stop-color="#0A5C29"/>
</linearGradient>
<linearGradient id="paint5_linear_2370_4588" x1="252" y1="209.808" x2="102" y2="250" gradientUnits="userSpaceOnUse">
<stop stop-color="#B5F7AC"/>
<stop offset="1" stop-color="#B5F7AC" stop-opacity="0"/>
</linearGradient>
<clipPath id="clip0_2370_4588">
<path d="M0 0H332C349.673 0 364 14.3269 364 32V359H32C14.3269 359 0 344.673 0 327V0Z" fill="white"/>
</clipPath>
</defs>
</svg>
