<svg width="40" height="40" viewBox="0 0 40 40" fill="none" xmlns="http://www.w3.org/2000/svg">
<rect width="40" height="40" rx="10" fill="#EDFBEE"/>
<g clip-path="url(#clip0_274_331)">
<path fill-rule="evenodd" clip-rule="evenodd" d="M12.3079 26.4165C12.4371 26.4707 12.5746 26.4957 12.7079 26.4957L12.7121 26.4915C12.9788 26.4915 13.2454 26.3873 13.4454 26.1873L15.4663 24.1665H22.2913C23.5538 24.1665 24.5829 23.1373 24.5829 21.8748V16.4582C24.5829 15.1957 23.5538 14.1665 22.2913 14.1665H13.9579C12.6954 14.1665 11.6663 15.1957 11.6663 16.4582V25.454C11.6663 25.879 11.9163 26.254 12.3079 26.4165ZM12.9163 16.4582C12.9163 15.8832 13.3829 15.4165 13.9579 15.4165H22.2913C22.8663 15.4165 23.3329 15.8832 23.3329 16.4582V21.8748C23.3329 22.4498 22.8663 22.9165 22.2913 22.9165H14.9496L12.9163 24.9498V16.4582ZM26.5538 29.5248C26.7538 29.7248 27.0204 29.829 27.2913 29.829V29.8332C27.4246 29.8332 27.5621 29.8082 27.6913 29.754C28.0788 29.5915 28.3329 29.2123 28.3329 28.7915V20.2123C28.3329 18.9498 27.3038 17.9207 26.0413 17.9207H25.8329V19.1707H26.0413C26.6163 19.1707 27.0829 19.6373 27.0829 20.2123V28.2873L25.4663 26.6707H19.7913C19.2163 26.6707 18.7496 26.204 18.7496 25.629V25.4165H17.4996V25.629C17.4996 26.8915 18.5288 27.9207 19.7913 27.9207H24.9496L26.5538 29.5248Z" fill="#13A249"/>
</g>
<defs>
<clipPath id="clip0_274_331">
<rect width="16.6667" height="16.6667" fill="white" transform="translate(11.6666 13.3335)"/>
</clipPath>
</defs>
</svg>
