<svg width="40" height="40" viewBox="0 0 40 40" fill="none" xmlns="http://www.w3.org/2000/svg">
<rect width="40" height="40" rx="10" fill="#EDFBEE"/>
<path d="M13.75 22.917V25.208C13.75 25.783 14.217 26.25 14.792 26.25H25.208C25.783 26.25 26.25 25.783 26.25 25.208V22.917H27.5V25.208C27.5 26.4705 26.4705 27.5 25.208 27.5H14.792C13.5295 27.5 12.5 26.4705 12.5 25.208V22.917H13.75ZM20.625 12.5V22.2412L23.7246 19.1416L24.6084 20.0254L20.7373 23.8955C20.5331 24.0997 20.2667 24.2002 20 24.2002C19.7333 24.2002 19.4669 24.0997 19.2627 23.8955L15.3916 20.0254L16.2754 19.1416L19.375 22.2412V12.5H20.625Z" fill="#13A249"/>
</svg>
