<svg width="33" height="32" viewBox="0 0 33 32" fill="none" xmlns="http://www.w3.org/2000/svg">
<rect x="0.832031" y="0.5" width="31" height="31" rx="7.5" stroke="#13A249"/>
<path d="M10 8.5V11.4362C10 11.9875 10.2137 12.505 10.6037 12.895L14.125 16.4163V22.9375C14.125 23.1587 14.2525 23.3575 14.4513 23.4475C14.5263 23.4813 14.605 23.5 14.6875 23.5C14.8187 23.5 14.95 23.455 15.055 23.365L17.875 20.9425V16.4163L21.3962 12.895C21.7862 12.505 22 11.9875 22 11.4362V8.5H10ZM20.875 11.4362C20.875 11.6837 20.7738 11.9238 20.6013 12.1L16.75 15.9513V20.425L15.25 21.7112V15.9513L11.3987 12.1C11.2225 11.9238 11.125 11.6837 11.125 11.4362V9.625H20.875V11.4362Z" fill="#21AD58"/>
</svg>
