<svg width="32" height="32" viewBox="0 0 32 32" fill="none" xmlns="http://www.w3.org/2000/svg">
<rect x="0.5" y="0.5" width="31" height="31" rx="7.5" stroke="#13A249"/>
<path d="M23.335 22.54L19.12 18.325C19.9825 17.2863 20.5 15.9512 20.5 14.5C20.5 11.1925 17.8075 8.5 14.5 8.5C11.1925 8.5 8.5 11.1925 8.5 14.5C8.5 17.8075 11.1925 20.5 14.5 20.5C15.9512 20.5 17.2863 19.9825 18.325 19.12L22.54 23.335L23.335 22.54ZM14.5 19.375C11.8112 19.375 9.625 17.1888 9.625 14.5C9.625 11.8112 11.8112 9.625 14.5 9.625C17.1888 9.625 19.375 11.8112 19.375 14.5C19.375 17.1888 17.1888 19.375 14.5 19.375Z" fill="#21AD58"/>
</svg>
