<svg width="33" height="32" viewBox="0 0 33 32" fill="none" xmlns="http://www.w3.org/2000/svg">
<rect x="1.16797" y="0.5" width="31" height="31" rx="7.5" stroke="#13A249"/>
<path fill-rule="evenodd" clip-rule="evenodd" d="M16.1456 11.6229C16.673 11.0427 17.4839 10.8118 18.2379 11.0271L21.9294 12.0811C21.9181 11.5636 22.3354 11.1248 22.8669 11.1248H25.2498V12.2498H23.0817L24.0533 19.3748H25.2498V20.4998H23.8896C23.4415 20.4998 23.0592 20.1834 22.971 19.7498H20.7564C20.6211 20.3506 20.2197 20.8884 19.6082 21.1706L17.7938 22.0081C16.6881 22.5184 15.3983 22.4286 14.374 21.7699L11.047 19.6305L11.0391 19.689C10.9757 20.1535 10.579 20.4998 10.1102 20.4998H8.75V19.3748H9.9465L10.9181 12.2498H8.75V11.1248H11.1329C11.592 11.1248 11.9658 11.4521 12.0519 11.8748H15.9166L16.1456 11.6229ZM20.6943 18.6248H22.8156L22.089 13.2966L17.9291 12.1088C17.5863 12.011 17.2178 12.116 16.978 12.3797L14.222 15.4113C14.5277 15.6379 14.9464 15.6595 15.2769 15.4529L17.736 13.916L20.4789 18.1827C20.5701 18.3246 20.6416 18.473 20.6943 18.6248ZM11.9512 12.9998L11.2147 18.4008L14.9825 20.8237C15.6833 21.2743 16.5658 21.3358 17.3224 20.9866L19.1368 20.1492C19.6538 19.9106 19.8404 19.27 19.5325 18.791L17.3903 15.4587L15.8732 16.4069C15.0587 16.9159 14.0007 16.7954 13.3216 16.1163L12.6611 15.4558L14.8939 12.9998H11.9512Z" fill="#21AD58"/>
</svg>
