<svg width="40" height="40" viewBox="0 0 40 40" fill="none" xmlns="http://www.w3.org/2000/svg">
<rect width="40" height="40" rx="10" fill="#EDFBEE"/>
<g clip-path="url(#clip0_274_405)">
<path d="M27.3704 17.7832C27.612 17.3832 27.562 16.8582 27.2162 16.5124L25.1537 14.4499C24.8079 14.104 24.2829 14.0582 23.8829 14.2957C21.4495 13.0082 18.5495 13.0082 16.1162 14.2957C15.7162 14.054 15.1912 14.104 14.8454 14.4499L12.7829 16.5124C12.437 16.8582 12.3912 17.3832 12.6287 17.7832C11.3412 20.2165 11.3412 23.1165 12.6287 25.5499C12.387 25.9499 12.437 26.4749 12.7829 26.8207L14.8454 28.8832C15.0495 29.0874 15.3162 29.1874 15.5829 29.1874C15.7704 29.1874 15.9537 29.1332 16.1162 29.0374C17.3329 29.679 18.6662 30.004 19.9995 30.004C21.3329 30.004 22.6662 29.679 23.8829 29.0374C24.0454 29.1374 24.2329 29.1874 24.4162 29.1874C24.6829 29.1874 24.9495 29.0874 25.1537 28.8832L27.2162 26.8207C27.562 26.4749 27.6079 25.9499 27.3704 25.5499C28.6579 23.1165 28.6579 20.2165 27.3704 17.7832ZM24.4787 22.6124C24.6079 21.9874 24.6079 21.3457 24.4787 20.7207L26.4495 18.7499C27.2912 20.6082 27.2912 22.729 26.4495 24.5874L24.4787 22.6165V22.6124ZM26.187 17.2499L23.9995 19.4374C23.7995 19.0749 23.5495 18.7332 23.2412 18.429C22.9329 18.1249 22.5912 17.8707 22.2329 17.6707L24.4204 15.4832L26.187 17.2499ZM17.6412 24.0249C16.3412 22.7249 16.3412 20.6082 17.6412 19.3124C18.2912 18.6624 19.1454 18.3374 19.9995 18.3374C20.8537 18.3374 21.7079 18.6624 22.3579 19.3124C23.6579 20.6124 23.6579 22.729 22.3579 24.0249C21.0579 25.3207 18.9412 25.3249 17.6454 24.0249H17.6412ZM22.9162 15.2124L20.9412 17.1874C20.3162 17.0582 19.6745 17.0582 19.0495 17.1874L17.0787 15.2165C18.937 14.3749 21.0579 14.3749 22.9162 15.2165V15.2124ZM15.5787 15.479L17.7662 17.6665C17.4037 17.8665 17.062 18.1165 16.7579 18.4249C16.4537 18.7332 16.1995 19.0749 15.9995 19.4332L13.812 17.2457L15.5787 15.479ZM13.5454 24.5832C12.7037 22.7249 12.7037 20.604 13.5454 18.7457L15.5204 20.7207C15.3912 21.3457 15.3912 21.9874 15.5204 22.6124L13.5454 24.5874V24.5832ZM13.812 26.0832L15.9995 23.8957C16.1995 24.2582 16.4495 24.5999 16.7579 24.904C17.0662 25.2082 17.4079 25.4624 17.7662 25.6624L15.5787 27.8499L13.812 26.0832ZM17.0829 28.1165L19.0579 26.1415C19.3704 26.2082 19.687 26.2415 20.0037 26.2415C20.3204 26.2415 20.637 26.204 20.9495 26.1415L22.9245 28.1165C21.0662 28.9582 18.9454 28.9582 17.087 28.1165H17.0829ZM24.4204 27.8499L22.2329 25.6624C22.5954 25.4624 22.937 25.2124 23.2412 24.904C23.5454 24.5957 23.7995 24.254 23.9995 23.8957L26.187 26.0832L24.4204 27.8499Z" fill="#13A249"/>
</g>
<defs>
<clipPath id="clip0_274_405">
<rect width="16.6667" height="16.6667" fill="white" transform="translate(11.6666 13.3335)"/>
</clipPath>
</defs>
</svg>
