<svg width="9" height="241" viewBox="0 0 9 241" fill="none" xmlns="http://www.w3.org/2000/svg">
<g clip-path="url(#clip0_206_2546)">
<rect x="11.3135" y="-12" width="16" height="16" rx="2" transform="rotate(45 11.3135 -12)" fill="#15793C"/>
<rect x="11.3135" y="6.62744" width="16" height="16" rx="2" transform="rotate(45 11.3135 6.62744)" fill="#15793C"/>
<rect x="11.3135" y="25.2549" width="16" height="16" rx="2" transform="rotate(45 11.3135 25.2549)" fill="#15793C"/>
<rect x="11.3135" y="43.8823" width="16" height="16" rx="2" transform="rotate(45 11.3135 43.8823)" fill="#15793C"/>
<rect x="11.3135" y="62.5098" width="16" height="16" rx="2" transform="rotate(45 11.3135 62.5098)" fill="#15793C"/>
<rect x="11.3135" y="81.1372" width="16" height="16" rx="2" transform="rotate(45 11.3135 81.1372)" fill="#15793C"/>
<rect x="11.3135" y="99.7646" width="16" height="16" rx="2" transform="rotate(45 11.3135 99.7646)" fill="#15793C"/>
<rect x="11.3135" y="118.392" width="16" height="16" rx="2" transform="rotate(45 11.3135 118.392)" fill="#15793C"/>
<rect x="11.3135" y="137.02" width="16" height="16" rx="2" transform="rotate(45 11.3135 137.02)" fill="#15793C"/>
<rect x="11.3135" y="155.647" width="16" height="16" rx="2" transform="rotate(45 11.3135 155.647)" fill="#15793C"/>
<rect x="11.3135" y="174.274" width="16" height="16" rx="2" transform="rotate(45 11.3135 174.274)" fill="#15793C"/>
<rect x="11.3135" y="192.901" width="16" height="16" rx="2" transform="rotate(45 11.3135 192.901)" fill="#15793C"/>
<rect x="11.3135" y="211.529" width="16" height="16" rx="2" transform="rotate(45 11.3135 211.529)" fill="#15793C"/>
<rect x="11.3135" y="230.156" width="16" height="16" rx="2" transform="rotate(45 11.3135 230.156)" fill="#15793C"/>
</g>
<defs>
<clipPath id="clip0_206_2546">
<rect width="9" height="241" fill="white"/>
</clipPath>
</defs>
</svg>
