<svg width="40" height="40" viewBox="0 0 40 40" fill="none" xmlns="http://www.w3.org/2000/svg">
<rect width="40" height="40" rx="10" fill="#EDFBEE"/>
<g clip-path="url(#clip0_274_387)">
<path d="M17.608 15.8911C15.2622 16.8619 13.7496 19.129 13.7496 21.6665C13.7496 23.9956 15.0619 26.121 17.0826 27.1919V23.3335H18.3326V28.1245C18.3326 28.6994 17.8665 29.1663 17.2916 29.1665H12.4996V27.9165H15.8541C13.8 26.5457 12.4996 24.2082 12.4996 21.6665C12.4996 18.625 14.3163 15.9045 17.1285 14.7378L17.608 15.8911ZM27.4996 14.1665V15.4165H24.1412C26.1996 16.7832 27.4996 19.1165 27.4996 21.6665C27.4996 24.708 25.683 27.4285 22.8707 28.5952L22.3912 27.4419C24.7371 26.4711 26.2496 24.204 26.2496 21.6665C26.2496 19.3332 24.9416 17.212 22.9166 16.1411V19.9995H21.6666V15.2085C21.6666 14.6336 22.1328 14.1667 22.7076 14.1665H27.4996Z" fill="#13A249"/>
</g>
<defs>
<clipPath id="clip0_274_387">
<rect width="16.6667" height="16.6667" fill="white" transform="translate(11.6666 13.3335)"/>
</clipPath>
</defs>
</svg>
