<svg width="40" height="40" viewBox="0 0 40 40" fill="none" xmlns="http://www.w3.org/2000/svg">
<rect width="40" height="40" rx="10" fill="#EDFBEE"/>
<g clip-path="url(#clip0_274_359)">
<path d="M13.333 13.333V16.5955C13.333 17.208 13.5705 17.783 14.0038 18.2163L17.9163 22.1288V29.3747C17.9163 29.6205 18.058 29.8413 18.2788 29.9413C18.3622 29.9788 18.4497 29.9997 18.5413 29.9997C18.6872 29.9997 18.833 29.9497 18.9497 29.8497L22.083 27.158V22.1288L25.9955 18.2163C26.4288 17.783 26.6663 17.208 26.6663 16.5955V13.333H13.333ZM25.4163 16.5955C25.4163 16.8705 25.3038 17.1372 25.1122 17.333L20.833 21.6122V26.583L19.1663 28.0122V21.6122L14.8872 17.333C14.6913 17.1372 14.583 16.8705 14.583 16.5955V14.583H25.4163V16.5955Z" fill="#13A249"/>
</g>
<defs>
<clipPath id="clip0_274_359">
<rect width="16.6667" height="16.6667" fill="white" transform="translate(11.6666 13.3335)"/>
</clipPath>
</defs>
</svg>
