<svg width="32" height="32" viewBox="0 0 32 32" fill="none" xmlns="http://www.w3.org/2000/svg">
<rect x="0.5" y="0.5" width="31" height="31" rx="7.5" stroke="#13A249"/>
<path d="M19.7503 8.9292C18.2295 8.9292 16.842 9.6792 16.0003 10.8792C15.1587 9.6792 13.7712 8.9292 12.2503 8.9292C9.72116 8.9292 7.66699 10.9834 7.66699 13.5125C7.66699 14.7375 8.14199 15.8875 9.00866 16.7542L16.0003 23.7459L22.992 16.7542C23.8587 15.8875 24.3337 14.7375 24.3337 13.5125C24.3337 10.9834 22.2795 8.9292 19.7503 8.9292ZM22.1087 15.8709L16.0003 21.9792L9.89199 15.8709C9.26283 15.2417 8.91699 14.4042 8.91699 13.5125C8.91699 11.675 10.4128 10.1792 12.2503 10.1792C13.6837 10.1792 14.9503 11.0917 15.4087 12.45C15.4962 12.7042 15.7337 12.875 16.0003 12.875C16.267 12.875 16.5087 12.7042 16.592 12.45C17.0503 11.0917 18.317 10.1792 19.7503 10.1792C21.5878 10.1792 23.0837 11.675 23.0837 13.5125C23.0837 14.4042 22.7378 15.2417 22.1087 15.8709Z" fill="#13A249"/>
</svg>
