<svg width="9" height="241" viewBox="0 0 9 241" fill="none" xmlns="http://www.w3.org/2000/svg">
<g clip-path="url(#clip0_206_2561)">
<rect width="16" height="16" rx="2" transform="matrix(-0.707107 0.707107 0.707107 0.707107 -2.31348 -12)" fill="#15793C"/>
<rect width="16" height="16" rx="2" transform="matrix(-0.707107 0.707107 0.707107 0.707107 -2.31348 6.62744)" fill="#15793C"/>
<rect width="16" height="16" rx="2" transform="matrix(-0.707107 0.707107 0.707107 0.707107 -2.31348 25.2549)" fill="#15793C"/>
<rect width="16" height="16" rx="2" transform="matrix(-0.707107 0.707107 0.707107 0.707107 -2.31348 43.8823)" fill="#15793C"/>
<rect width="16" height="16" rx="2" transform="matrix(-0.707107 0.707107 0.707107 0.707107 -2.31348 62.5098)" fill="#15793C"/>
<rect width="16" height="16" rx="2" transform="matrix(-0.707107 0.707107 0.707107 0.707107 -2.31348 81.1372)" fill="#15793C"/>
<rect width="16" height="16" rx="2" transform="matrix(-0.707107 0.707107 0.707107 0.707107 -2.31348 99.7646)" fill="#15793C"/>
<rect width="16" height="16" rx="2" transform="matrix(-0.707107 0.707107 0.707107 0.707107 -2.31348 118.392)" fill="#15793C"/>
<rect width="16" height="16" rx="2" transform="matrix(-0.707107 0.707107 0.707107 0.707107 -2.31348 137.02)" fill="#15793C"/>
<rect width="16" height="16" rx="2" transform="matrix(-0.707107 0.707107 0.707107 0.707107 -2.31348 155.647)" fill="#15793C"/>
<rect width="16" height="16" rx="2" transform="matrix(-0.707107 0.707107 0.707107 0.707107 -2.31348 174.274)" fill="#15793C"/>
<rect width="16" height="16" rx="2" transform="matrix(-0.707107 0.707107 0.707107 0.707107 -2.31348 192.901)" fill="#15793C"/>
<rect width="16" height="16" rx="2" transform="matrix(-0.707107 0.707107 0.707107 0.707107 -2.31348 211.529)" fill="#15793C"/>
<rect width="16" height="16" rx="2" transform="matrix(-0.707107 0.707107 0.707107 0.707107 -2.31348 230.156)" fill="#15793C"/>
</g>
<defs>
<clipPath id="clip0_206_2561">
<rect width="9" height="241" fill="white" transform="matrix(-1 0 0 1 9 0)"/>
</clipPath>
</defs>
</svg>
