<svg width="48" height="48" viewBox="0 0 48 48" fill="none" xmlns="http://www.w3.org/2000/svg">
<rect width="48" height="48" rx="12" fill="white"/>
<path fill-rule="evenodd" clip-rule="evenodd" d="M23.375 23.3751V15.6667H24.625V23.3751H32.3333V24.6251H31.6559C32.0805 25.1717 32.3333 25.8585 32.3333 26.6042C32.3333 28.3877 30.8875 29.8334 29.1041 29.8334C27.3207 29.8334 25.875 28.3877 25.875 26.6042C25.875 25.8585 26.1278 25.1717 26.5524 24.6251H24.625V32.3334H23.375V24.6251H15.6666V23.3751H23.375ZM29.1041 24.6251C28.0111 24.6251 27.125 25.5112 27.125 26.6042C27.125 27.6973 28.0111 28.5834 29.1041 28.5834C30.1972 28.5834 31.0833 27.6973 31.0833 26.6042C31.0833 25.5112 30.1972 24.6251 29.1041 24.6251ZM19.4166 18.1667C18.7263 18.1667 18.1666 18.7264 18.1666 19.4167C18.1666 20.1071 18.7263 20.6667 19.4166 20.6667C20.107 20.6667 20.6666 20.1071 20.6666 19.4167C20.6666 18.7264 20.107 18.1667 19.4166 18.1667ZM16.9166 19.4167C16.9166 18.036 18.0359 16.9167 19.4166 16.9167C20.7973 16.9167 21.9166 18.036 21.9166 19.4167C21.9166 20.7975 20.7973 21.9167 19.4166 21.9167C18.0359 21.9167 16.9166 20.7975 16.9166 19.4167ZM27.9583 19.4167C27.6131 19.4167 27.3333 19.6966 27.3333 20.0417C27.3333 20.3869 27.6131 20.6667 27.9583 20.6667C28.3035 20.6667 28.5833 20.3869 28.5833 20.0417C28.5833 19.6966 28.3035 19.4167 27.9583 19.4167ZM26.0833 20.0417C26.0833 19.0062 26.9228 18.1667 27.9583 18.1667C28.9938 18.1667 29.8333 19.0062 29.8333 20.0417C29.8333 21.0773 28.9938 21.9167 27.9583 21.9167C26.9228 21.9167 26.0833 21.0773 26.0833 20.0417ZM19.8333 29.0001C19.3731 29.0001 19 29.3732 19 29.8334C19 30.2937 19.3731 30.6667 19.8333 30.6667C20.2935 30.6667 20.6666 30.2937 20.6666 29.8334C20.6666 29.3732 20.2935 29.0001 19.8333 29.0001ZM17.75 29.8334C17.75 28.6828 18.6827 27.7501 19.8333 27.7501C20.9839 27.7501 21.9166 28.6828 21.9166 29.8334C21.9166 30.984 20.9839 31.9167 19.8333 31.9167C18.6827 31.9167 17.75 30.984 17.75 29.8334Z" fill="#13A249"/>
</svg>
