<svg width="48" height="48" viewBox="0 0 48 48" fill="none" xmlns="http://www.w3.org/2000/svg">
<rect width="48" height="48" rx="12" fill="white"/>
<path d="M31.5334 16.4666C31.2417 16.1749 30.8209 16.0832 30.4376 16.2249L16.3542 21.4124C15.9626 21.5541 15.6959 21.9166 15.6751 22.3332C15.6501 22.7499 15.8792 23.1374 16.2501 23.3207L21.8709 26.1291L24.6792 31.7499C24.8584 32.1041 25.2167 32.3249 25.6126 32.3249C25.6334 32.3249 25.6501 32.3249 25.6709 32.3249C26.0876 32.3041 26.4459 32.0332 26.5917 31.6457L31.7751 17.5624C31.9167 17.1749 31.8251 16.7582 31.5334 16.4666ZM25.5792 30.7624L23.0917 25.7916L26.1084 22.7749L25.2251 21.8916L22.2084 24.9082L17.2376 22.4207L30.4459 17.5541L25.5792 30.7624Z" fill="#13A249"/>
</svg>
