<svg width="48" height="48" viewBox="0 0 48 48" fill="none" xmlns="http://www.w3.org/2000/svg">
<rect width="48" height="48" rx="12" fill="white"/>
<path fill-rule="evenodd" clip-rule="evenodd" d="M19.8333 21.5001C18.225 21.5001 16.9166 20.1917 16.9166 18.5834C16.9166 16.9751 18.225 15.6667 19.8333 15.6667C21.4416 15.6667 22.75 16.9751 22.75 18.5834C22.75 20.1917 21.4416 21.5001 19.8333 21.5001ZM19.8333 16.9167C18.9125 16.9167 18.1666 17.6626 18.1666 18.5834C18.1666 19.5042 18.9125 20.2501 19.8333 20.2501C20.7541 20.2501 21.5 19.5042 21.5 18.5834C21.5 17.6626 20.7541 16.9167 19.8333 16.9167ZM25.25 18.5834C25.25 20.1917 26.5583 21.5001 28.1666 21.5001C29.775 21.5001 31.0833 20.1917 31.0833 18.5834C31.0833 16.9751 29.775 15.6667 28.1666 15.6667C26.5583 15.6667 25.25 16.9751 25.25 18.5834ZM26.5 18.5834C26.5 17.6626 27.2458 16.9167 28.1666 16.9167C29.0875 16.9167 29.8333 17.6626 29.8333 18.5834C29.8333 19.5042 29.0875 20.2501 28.1666 20.2501C27.2458 20.2501 26.5 19.5042 26.5 18.5834ZM21.0833 24.4167C21.0833 26.0251 22.3916 27.3334 24 27.3334C25.6083 27.3334 26.9166 26.0251 26.9166 24.4167C26.9166 22.8084 25.6083 21.5001 24 21.5001C22.3916 21.5001 21.0833 22.8084 21.0833 24.4167ZM22.3333 24.4167C22.3333 23.4959 23.0791 22.7501 24 22.7501C24.9208 22.7501 25.6666 23.4959 25.6666 24.4167C25.6666 25.3376 24.9208 26.0834 24 26.0834C23.0791 26.0834 22.3333 25.3376 22.3333 24.4167ZM27.2666 30.6042L27.775 32.4959V32.4917L28.9833 32.1667L28.475 30.2792C28.2083 29.2792 27.3 28.5792 26.2625 28.5792H21.7375C20.7041 28.5792 19.7916 29.2792 19.525 30.2792L19.0166 32.1709L20.225 32.4959L20.7333 30.6042C20.8541 30.1501 21.2666 29.8334 21.7375 29.8334H26.2625C26.7333 29.8334 27.1458 30.1501 27.2666 30.6042ZM31.0207 24.7709L31.6374 27.0792L32.8457 26.7542L32.229 24.4501C31.9624 23.4501 31.054 22.7501 30.0165 22.7501H28.1707V24.0001H30.0165C30.4874 24.0001 30.8999 24.3167 31.0207 24.7709ZM15.1539 26.7542L16.3623 27.0792V27.0751L16.9789 24.7667C17.0998 24.3126 17.5123 23.9959 17.9831 23.9959H19.8289V22.7459H17.9831C16.9498 22.7459 16.0373 23.4459 15.7706 24.4459L15.1539 26.7542Z" fill="#13A249"/>
</svg>
