<svg width="48" height="48" viewBox="0 0 48 48" fill="none" xmlns="http://www.w3.org/2000/svg">
<rect width="48" height="48" rx="12" fill="white"/>
<path fill-rule="evenodd" clip-rule="evenodd" d="M19.6416 32.0833C19.7708 32.1375 19.9083 32.1625 20.0416 32.1625L20.0458 32.1583C20.3125 32.1583 20.5791 32.0542 20.7791 31.8542L23.6333 29H30.0416C31.3041 29 32.3333 27.9708 32.3333 26.7083V18.7917C32.3333 17.5292 31.3041 16.5 30.0416 16.5H17.9583C16.6958 16.5 15.6666 17.5292 15.6666 18.7917V26.7083C15.6666 27.9708 16.6958 29 17.9583 29H19V31.1208C19 31.5458 19.25 31.9208 19.6416 32.0833ZM16.9166 18.7917C16.9166 18.2167 17.3833 17.75 17.9583 17.75H30.0416C30.6166 17.75 31.0833 18.2167 31.0833 18.7917V26.7083C31.0833 27.2833 30.6166 27.75 30.0416 27.75H23.1166L20.25 30.6167V27.75H17.9583C17.3833 27.75 16.9166 27.2833 16.9166 26.7083V18.7917ZM28.5833 20.6667H22.3333V21.9167H28.5833V20.6667ZM28.5833 23.5833H22.3333V24.8333H28.5833V23.5833ZM21.0833 23.5833H19.4166V24.8333H21.0833V23.5833ZM19.4166 20.6667H21.0833V21.9167H19.4166V20.6667Z" fill="#13A249"/>
</svg>
