<svg width="200" height="47" viewBox="0 0 200 47" fill="none" xmlns="http://www.w3.org/2000/svg">
<rect x="0.951904" width="198.673" height="46.5" rx="12" fill="white"/>
<path fill-rule="evenodd" clip-rule="evenodd" d="M42.9508 36.1539C41.9721 36.1539 41.1781 35.3298 41.1781 34.3143V11.0127C41.1781 9.99711 41.9721 9.1731 42.9508 9.1731C43.9294 9.1731 44.7234 9.99711 44.7234 11.0127V34.3143C44.7234 35.3298 43.9294 36.1539 42.9508 36.1539ZM30.8377 35.5407C29.859 35.5407 29.065 34.7166 29.065 33.7011V12.2391C29.065 11.2235 29.859 10.3995 30.8377 10.3995C31.8163 10.3995 32.6103 11.2235 32.6103 12.2391V33.7011C32.6103 34.7166 31.8163 35.5407 30.8377 35.5407ZM16.9519 29.4087C16.9519 30.4243 17.7459 31.2483 18.7246 31.2483C19.7032 31.2483 20.4972 30.4243 20.4972 29.4087V16.5315C20.4972 15.5159 19.7032 14.6919 18.7246 14.6919C17.7459 14.6919 16.9519 15.5159 16.9519 16.5315V29.4087ZM22.8607 26.9559C22.8607 27.9715 23.6548 28.7955 24.6334 28.7955C25.612 28.7955 26.406 27.9715 26.406 26.9559V18.9843C26.406 17.9687 25.612 17.1447 24.6334 17.1447C23.6548 17.1447 22.8607 17.9687 22.8607 18.9843V26.9559ZM35.2693 29.4087C35.2693 30.4243 36.0633 31.2483 37.0419 31.2483C38.0206 31.2483 38.8146 30.4243 38.8146 29.4087V15.9183C38.8146 14.9027 38.0206 14.0787 37.0419 14.0787C36.0633 14.0787 35.2693 14.9027 35.2693 15.9183V29.4087ZM47.0869 28.1823C47.0869 29.1979 47.881 30.0219 48.8596 30.0219C49.8382 30.0219 50.6322 29.1979 50.6322 28.1823V17.7579C50.6322 16.7423 49.8382 15.9183 48.8596 15.9183C47.881 15.9183 47.0869 16.7423 47.0869 17.7579V28.1823ZM55.0639 33.7011C54.0853 33.7011 53.2912 32.8771 53.2912 31.8615V13.4655C53.2912 12.4499 54.0853 11.6259 55.0639 11.6259C56.0425 11.6259 56.8365 12.4499 56.8365 13.4655V31.8615C56.8365 32.8771 56.0425 33.7011 55.0639 33.7011Z" fill="#13A249"/>
<path fill-rule="evenodd" clip-rule="evenodd" d="M86.3546 33.8078C85.376 33.8078 84.5819 33.127 84.5819 32.2881V13.039C84.5819 12.2 85.376 11.5193 86.3546 11.5193C87.3332 11.5193 88.1272 12.2 88.1272 13.039V32.2881C88.1272 33.127 87.3332 33.8078 86.3546 33.8078ZM74.2415 33.3012C73.2628 33.3012 72.4688 32.6205 72.4688 31.7815V14.0521C72.4688 13.2131 73.2628 12.5324 74.2415 12.5324C75.2201 12.5324 76.0141 13.2131 76.0141 14.0521V31.7815C76.0141 32.6205 75.2201 33.3012 74.2415 33.3012ZM60.3557 28.2356C60.3557 29.0746 61.1497 29.7553 62.1284 29.7553C63.107 29.7553 63.901 29.0746 63.901 28.2356V17.598C63.901 16.759 63.107 16.0783 62.1284 16.0783C61.1497 16.0783 60.3557 16.759 60.3557 17.598V28.2356ZM66.2645 26.2094C66.2645 27.0484 67.0586 27.7291 68.0372 27.7291C69.0158 27.7291 69.8098 27.0484 69.8098 26.2094V19.6242C69.8098 18.7852 69.0158 18.1045 68.0372 18.1045C67.0586 18.1045 66.2645 18.7852 66.2645 19.6242V26.2094ZM78.6731 28.2356C78.6731 29.0746 79.4671 29.7553 80.4457 29.7553C81.4244 29.7553 82.2184 29.0746 82.2184 28.2356V17.0914C82.2184 16.2524 81.4244 15.5717 80.4457 15.5717C79.4671 15.5717 78.6731 16.2524 78.6731 17.0914V28.2356ZM90.4908 27.2225C90.4908 28.0615 91.2848 28.7422 92.2634 28.7422C93.242 28.7422 94.0361 28.0615 94.0361 27.2225V18.6111C94.0361 17.7721 93.242 17.0914 92.2634 17.0914C91.2848 17.0914 90.4908 17.7721 90.4908 18.6111V27.2225ZM98.4677 31.7815C97.4891 31.7815 96.695 31.1008 96.695 30.2619V15.0652C96.695 14.2262 97.4891 13.5455 98.4677 13.5455C99.4463 13.5455 100.24 14.2262 100.24 15.0652V30.2619C100.24 31.1008 99.4463 31.7815 98.4677 31.7815Z" fill="#DFDFDF"/>
<path fill-rule="evenodd" clip-rule="evenodd" d="M110.268 37.3269C111.247 37.3269 112.041 36.6462 112.041 35.8073V9.51967C112.041 8.68071 111.247 8 110.268 8C109.289 8 108.495 8.68071 108.495 9.51967V35.8073C108.495 36.6462 109.289 37.3269 110.268 37.3269ZM122.381 35.6473C123.36 35.6473 124.154 34.9666 124.154 34.1276V11.7059C124.154 10.8669 123.36 10.1862 122.381 10.1862C121.403 10.1862 120.609 10.8669 120.609 11.7059V34.1276C120.609 34.9666 121.403 35.6473 122.381 35.6473ZM136.267 30.5817C136.267 31.4207 135.473 32.1014 134.494 32.1014C133.516 32.1014 132.722 31.4207 132.722 30.5817V15.2517C132.722 14.4128 133.516 13.7321 134.494 13.7321C135.473 13.7321 136.267 14.4128 136.267 15.2517V30.5817ZM130.358 26.2094C130.358 27.0483 129.564 27.729 128.585 27.729C127.607 27.729 126.813 27.0483 126.813 26.2094V19.6241C126.813 18.7852 127.607 18.1045 128.585 18.1045C129.564 18.1045 130.358 18.7852 130.358 19.6241V26.2094ZM117.95 28.2356C117.95 29.0745 117.155 29.7552 116.177 29.7552C115.198 29.7552 114.404 29.0745 114.404 28.2356V17.0913C114.404 16.2524 115.198 15.5717 116.177 15.5717C117.155 15.5717 117.95 16.2524 117.95 17.0913V28.2356ZM106.132 27.2225C106.132 28.0614 105.338 28.7421 104.359 28.7421C103.381 28.7421 102.587 28.0614 102.587 27.2225V18.611C102.587 17.7721 103.381 17.0913 104.359 17.0913C105.338 17.0913 106.132 17.7721 106.132 18.611V27.2225Z" fill="#DFDFDF"/>
<rect x="149.606" y="12.1057" width="34.0192" height="22.2885" rx="9.38462" fill="#EDFBEE"/>
<path d="M157.748 26.9187C157.103 26.9162 156.549 26.7575 156.084 26.4426C155.621 26.1276 155.265 25.6715 155.015 25.0741C154.768 24.4767 154.645 23.7582 154.648 22.9183C154.648 22.081 154.771 21.3674 155.019 20.7776C155.269 20.1877 155.625 19.739 156.087 19.4316C156.552 19.1217 157.106 18.9667 157.748 18.9667C158.391 18.9667 158.943 19.1217 159.405 19.4316C159.87 19.7415 160.228 20.1914 160.478 20.7813C160.728 21.3687 160.851 22.081 160.849 22.9183C160.849 23.7607 160.724 24.4805 160.474 25.0779C160.227 25.6752 159.872 26.1314 159.409 26.4463C158.947 26.7612 158.393 26.9187 157.748 26.9187ZM157.748 25.5728C158.188 25.5728 158.539 25.3516 158.802 24.9092C159.064 24.4667 159.194 23.8031 159.192 22.9183C159.192 22.336 159.132 21.8511 159.012 21.4637C158.894 21.0762 158.727 20.7851 158.509 20.5901C158.294 20.3951 158.041 20.2977 157.748 20.2977C157.311 20.2977 156.961 20.5164 156.699 20.9538C156.436 21.3912 156.304 22.046 156.301 22.9183C156.301 23.5082 156.36 24.0006 156.477 24.3955C156.597 24.7879 156.766 25.0829 156.983 25.2803C157.201 25.4753 157.456 25.5728 157.748 25.5728ZM162.955 25.8577C162.708 25.8577 162.495 25.7702 162.318 25.5953C162.143 25.4203 162.055 25.2078 162.055 24.9579C162.055 24.7129 162.143 24.503 162.318 24.328C162.495 24.1531 162.708 24.0656 162.955 24.0656C163.195 24.0656 163.405 24.1531 163.585 24.328C163.765 24.503 163.855 24.7129 163.855 24.9579C163.855 25.1229 163.812 25.2741 163.727 25.4115C163.645 25.5465 163.536 25.6552 163.401 25.7377C163.266 25.8177 163.117 25.8577 162.955 25.8577ZM162.955 22.0898C162.708 22.0898 162.495 22.0023 162.318 21.8273C162.143 21.6524 162.055 21.4399 162.055 21.19C162.055 20.945 162.143 20.7363 162.318 20.5639C162.495 20.3889 162.708 20.3014 162.955 20.3014C163.195 20.3014 163.405 20.3889 163.585 20.5639C163.765 20.7363 163.855 20.945 163.855 21.19C163.855 21.3574 163.812 21.5099 163.727 21.6474C163.645 21.7823 163.536 21.8898 163.401 21.9698C163.266 22.0498 163.117 22.0898 162.955 22.0898ZM167.989 26.855C167.429 26.855 166.931 26.7587 166.493 26.5663C166.058 26.3713 165.715 26.1039 165.462 25.764C165.212 25.4215 165.084 25.0266 165.076 24.5792H166.711C166.721 24.7667 166.782 24.9316 166.894 25.0741C167.009 25.2141 167.162 25.3228 167.352 25.4003C167.542 25.4778 167.756 25.5165 167.993 25.5165C168.24 25.5165 168.459 25.4728 168.649 25.3853C168.839 25.2978 168.988 25.1766 169.095 25.0216C169.203 24.8667 169.256 24.688 169.256 24.4855C169.256 24.2805 169.199 24.0993 169.084 23.9419C168.971 23.7819 168.809 23.6569 168.597 23.5669C168.387 23.477 168.137 23.432 167.847 23.432H167.131V22.2397H167.847C168.092 22.2397 168.308 22.1972 168.495 22.1123C168.685 22.0273 168.833 21.9098 168.938 21.7598C169.043 21.6074 169.095 21.4299 169.095 21.2275C169.095 21.035 169.049 20.8663 168.956 20.7213C168.867 20.5738 168.739 20.4589 168.574 20.3764C168.412 20.2939 168.222 20.2527 168.004 20.2527C167.784 20.2527 167.583 20.2927 167.401 20.3726C167.218 20.4501 167.072 20.5614 166.962 20.7063C166.852 20.8513 166.793 21.0213 166.786 21.2162H165.23C165.237 20.7738 165.364 20.3839 165.608 20.0465C165.853 19.709 166.183 19.4453 166.598 19.2554C167.016 19.0629 167.487 18.9667 168.012 18.9667C168.542 18.9667 169.005 19.0629 169.403 19.2554C169.8 19.4478 170.109 19.7078 170.329 20.0352C170.551 20.3601 170.661 20.7251 170.659 21.13C170.661 21.5599 170.527 21.9186 170.257 22.206C169.99 22.4934 169.641 22.6759 169.211 22.7534V22.8134C169.776 22.8858 170.206 23.0821 170.501 23.402C170.799 23.7194 170.946 24.1168 170.944 24.5942C170.946 25.0316 170.82 25.4203 170.565 25.7602C170.312 26.1001 169.964 26.3676 169.519 26.5625C169.074 26.7575 168.564 26.855 167.989 26.855ZM172.11 26.75V25.5803L174.844 23.0496C175.076 22.8246 175.271 22.6222 175.429 22.4422C175.588 22.2622 175.71 22.086 175.792 21.9136C175.875 21.7386 175.916 21.5499 175.916 21.3474C175.916 21.1225 175.865 20.9288 175.762 20.7663C175.66 20.6013 175.52 20.4751 175.342 20.3876C175.165 20.2977 174.964 20.2527 174.739 20.2527C174.504 20.2527 174.299 20.3002 174.124 20.3951C173.949 20.4901 173.814 20.6263 173.719 20.8038C173.624 20.9813 173.576 21.1925 173.576 21.4374H172.036C172.036 20.935 172.149 20.4989 172.377 20.1289C172.604 19.759 172.923 19.4728 173.333 19.2704C173.743 19.0679 174.215 18.9667 174.75 18.9667C175.3 18.9667 175.778 19.0642 176.186 19.2591C176.596 19.4516 176.914 19.719 177.142 20.0615C177.369 20.4039 177.483 20.7963 177.483 21.2387C177.483 21.5286 177.426 21.8148 177.311 22.0973C177.198 22.3797 176.997 22.6934 176.707 23.0383C176.417 23.3807 176.008 23.7919 175.481 24.2718L174.36 25.3703V25.4228H177.584V26.75H172.11Z" fill="#0E100F"/>
</svg>
