<svg width="20" height="21" viewBox="0 0 20 21" fill="none" xmlns="http://www.w3.org/2000/svg">
<path fill-rule="evenodd" clip-rule="evenodd" d="M4.40384 1.98743L5.28717 2.87076C4.02467 4.12909 3.33301 5.80409 3.33301 7.58326H2.08301C2.08301 5.47076 2.90801 3.48326 4.40384 1.98743ZM15.5955 1.98743L14.7122 2.87076C15.9705 4.12909 16.6664 5.80409 16.6664 7.58326H17.9164C17.9164 5.47076 17.0914 3.47909 15.5955 1.98743ZM15.4163 7.58328C15.4163 4.59578 12.9872 2.16662 9.99967 2.16662C7.01217 2.16662 4.58301 4.59578 4.58301 7.58328V10.8749L3.33301 13.0416V16.3333H6.93717C7.22884 17.7583 8.49134 18.8333 9.99967 18.8333C11.508 18.8333 12.7705 17.7583 13.0622 16.3333H16.6663V13.0416L15.4163 10.8749V7.58328ZM9.99967 17.5833C9.18717 17.5833 8.49967 17.0583 8.24134 16.3333H11.7622C11.5038 17.0583 10.8163 17.5833 10.0038 17.5833H9.99967ZM15.4163 15.0833H4.58301V13.3749L5.83301 11.2083V7.57912C5.83301 5.28328 7.70384 3.41245 9.99967 3.41245C12.2955 3.41245 14.1663 5.28328 14.1663 7.57912V11.2083L15.4163 13.3749V15.0833Z" fill="#13A249"/>
</svg>
