<svg width="306" height="220" viewBox="0 0 306 220" fill="none" xmlns="http://www.w3.org/2000/svg">
<g clip-path="url(#clip0_2417_5178)">
<rect width="306" height="220" rx="16" fill="white"/>
<ellipse cx="213.141" cy="59.1401" rx="34" ry="34" transform="rotate(155.151 213.141 59.1401)" fill="url(#paint0_linear_2417_5178)"/>
<circle cx="48" cy="182" r="12" fill="url(#paint1_linear_2417_5178)"/>
<circle cx="271" cy="180" r="3" fill="#13A249"/>
<circle cx="74" cy="17" r="3" fill="#13A249"/>
<circle cx="71" cy="156" r="3" fill="#13A249"/>
<circle cx="38.5" cy="30.5" r="6.5" stroke="#13A249" stroke-width="2"/>
<circle cx="278.5" cy="48.5" r="6.5" stroke="#13A249" stroke-width="2"/>
<circle cx="40.5" cy="154.5" r="4.5" stroke="#13A249" stroke-width="2"/>
<circle cx="65" cy="36" r="4" stroke="#13A249" stroke-width="2"/>
<g opacity="0.5" filter="url(#filter0_f_2417_5178)">
<ellipse cx="100" cy="99" rx="76" ry="64" fill="#C7FCCA" fill-opacity="0.6"/>
</g>
<g opacity="0.5" filter="url(#filter1_f_2417_5178)">
<ellipse cx="197" cy="105" rx="76" ry="49" fill="#C7FCCA" fill-opacity="0.6"/>
</g>
<g filter="url(#filter2_d_2417_5178)">
<rect x="46" y="59" width="150" height="72" rx="12" fill="white" shape-rendering="crispEdges"/>
<circle cx="74" cy="89" r="16" fill="#EDE7BD"/>
<path fill-rule="evenodd" clip-rule="evenodd" d="M68.5 84.5C68.5 87.535 70.965 90 74 90C77.035 90 79.5 87.535 79.5 84.5C79.5 81.465 77.035 79 74 79C70.965 79 68.5 81.465 68.5 84.5ZM70 84.5C70 82.295 71.795 80.5 74 80.5C76.205 80.5 78 82.295 78 84.5C78 86.705 76.205 88.5 74 88.5C71.795 88.5 70 86.705 70 84.5ZM80.5698 95.41L81.5848 99.195L83.0348 98.805L82.0198 95.02C81.4648 92.95 79.5748 91.5 77.4298 91.5H70.5698C68.4198 91.5 66.5348 92.945 65.9798 95.02L64.9648 98.805L66.4148 99.195L67.4298 95.41C67.8098 93.99 69.0998 93 70.5698 93H77.4298C78.8998 93 80.1898 93.99 80.5698 95.41Z" fill="#787140"/>
<rect x="100" y="71" width="84" height="36" rx="6" fill="#21AD58"/>
<circle cx="122" cy="89" r="6" fill="white"/>
<circle cx="142" cy="89" r="6" fill="white"/>
<circle cx="162" cy="89" r="6" fill="white"/>
<path d="M96.1331 103.084C95.2512 103.199 94.6696 102.192 95.2098 101.485L100.371 94.7367C100.804 94.17 101.674 94.2264 102.031 94.8442L105.295 100.497C105.652 101.115 105.265 101.897 104.558 101.989L96.1331 103.084Z" fill="#21AD58"/>
</g>
<g filter="url(#filter3_dd_2417_5178)">
<circle cx="216" cy="139" r="32" fill="white"/>
</g>
<g clip-path="url(#clip1_2417_5178)">
<path fill-rule="evenodd" clip-rule="evenodd" d="M235.357 132.632L231.022 135.135L231.031 135.137C232.654 138.626 233.119 142.685 232.045 146.693C229.62 155.744 220.275 161.139 211.224 158.714C202.174 156.289 196.778 146.944 199.203 137.894C201.497 129.335 209.983 124.052 218.554 125.562L219.352 122.587L215.005 121.422L215.781 118.524L227.373 121.63L226.596 124.528L222.249 123.363L221.452 126.338C224.811 127.559 227.582 129.772 229.523 132.538L233.858 130.035L235.357 132.632ZM202.092 138.667C200.093 146.124 204.534 153.816 211.991 155.814C219.448 157.812 227.139 153.371 229.137 145.914C231.136 138.457 226.695 130.766 219.238 128.768C211.781 126.77 204.09 131.21 202.092 138.667ZM209.539 140.083L212.325 144.909L224.499 137.88L225.998 140.476L213.395 147.752C212.795 148.099 212.115 148.165 211.496 147.999C210.878 147.834 210.322 147.436 209.976 146.836L206.942 141.582L209.539 140.083Z" fill="#21AD58"/>
</g>
</g>
<defs>
<filter id="filter0_f_2417_5178" x="-52" y="-41" width="304" height="280" filterUnits="userSpaceOnUse" color-interpolation-filters="sRGB">
<feFlood flood-opacity="0" result="BackgroundImageFix"/>
<feBlend mode="normal" in="SourceGraphic" in2="BackgroundImageFix" result="shape"/>
<feGaussianBlur stdDeviation="38" result="effect1_foregroundBlur_2417_5178"/>
</filter>
<filter id="filter1_f_2417_5178" x="45" y="-20" width="304" height="250" filterUnits="userSpaceOnUse" color-interpolation-filters="sRGB">
<feFlood flood-opacity="0" result="BackgroundImageFix"/>
<feBlend mode="normal" in="SourceGraphic" in2="BackgroundImageFix" result="shape"/>
<feGaussianBlur stdDeviation="38" result="effect1_foregroundBlur_2417_5178"/>
</filter>
<filter id="filter2_d_2417_5178" x="42" y="56" width="158" height="80" filterUnits="userSpaceOnUse" color-interpolation-filters="sRGB">
<feFlood flood-opacity="0" result="BackgroundImageFix"/>
<feColorMatrix in="SourceAlpha" type="matrix" values="0 0 0 0 0 0 0 0 0 0 0 0 0 0 0 0 0 0 127 0" result="hardAlpha"/>
<feOffset dy="1"/>
<feGaussianBlur stdDeviation="2"/>
<feComposite in2="hardAlpha" operator="out"/>
<feColorMatrix type="matrix" values="0 0 0 0 0.0470588 0 0 0 0 0.0470588 0 0 0 0 0.0509804 0 0 0 0.05 0"/>
<feBlend mode="normal" in2="BackgroundImageFix" result="effect1_dropShadow_2417_5178"/>
<feBlend mode="normal" in="SourceGraphic" in2="effect1_dropShadow_2417_5178" result="shape"/>
</filter>
<filter id="filter3_dd_2417_5178" x="180" y="104" width="72" height="72" filterUnits="userSpaceOnUse" color-interpolation-filters="sRGB">
<feFlood flood-opacity="0" result="BackgroundImageFix"/>
<feColorMatrix in="SourceAlpha" type="matrix" values="0 0 0 0 0 0 0 0 0 0 0 0 0 0 0 0 0 0 127 0" result="hardAlpha"/>
<feOffset dy="1"/>
<feGaussianBlur stdDeviation="2"/>
<feComposite in2="hardAlpha" operator="out"/>
<feColorMatrix type="matrix" values="0 0 0 0 0.0470588 0 0 0 0 0.0470588 0 0 0 0 0.0509804 0 0 0 0.05 0"/>
<feBlend mode="normal" in2="BackgroundImageFix" result="effect1_dropShadow_2417_5178"/>
<feColorMatrix in="SourceAlpha" type="matrix" values="0 0 0 0 0 0 0 0 0 0 0 0 0 0 0 0 0 0 127 0" result="hardAlpha"/>
<feOffset dy="1"/>
<feGaussianBlur stdDeviation="2"/>
<feComposite in2="hardAlpha" operator="out"/>
<feColorMatrix type="matrix" values="0 0 0 0 0.0470588 0 0 0 0 0.0470588 0 0 0 0 0.0509804 0 0 0 0.1 0"/>
<feBlend mode="normal" in2="effect1_dropShadow_2417_5178" result="effect2_dropShadow_2417_5178"/>
<feBlend mode="normal" in="SourceGraphic" in2="effect2_dropShadow_2417_5178" result="shape"/>
</filter>
<linearGradient id="paint0_linear_2417_5178" x1="147.311" y1="59.1401" x2="227.429" y2="59.1401" gradientUnits="userSpaceOnUse">
<stop stop-color="#13A249"/>
<stop offset="1" stop-color="white" stop-opacity="0.4"/>
</linearGradient>
<linearGradient id="paint1_linear_2417_5178" x1="39.1357" y1="194" x2="57.1658" y2="172.171" gradientUnits="userSpaceOnUse">
<stop stop-color="#13A249"/>
<stop offset="1" stop-color="white" stop-opacity="0.4"/>
</linearGradient>
<clipPath id="clip0_2417_5178">
<rect width="306" height="220" rx="16" fill="white"/>
</clipPath>
<clipPath id="clip1_2417_5178">
<rect width="48" height="48" fill="white" transform="translate(199.422 110) rotate(15)"/>
</clipPath>
</defs>
</svg>
