<svg width="20" height="20" viewBox="0 0 20 20" fill="none" xmlns="http://www.w3.org/2000/svg">
<path fill-rule="evenodd" clip-rule="evenodd" d="M11.4587 6.6665H10.2087C10.2087 5.63317 9.36699 4.7915 8.33366 4.7915V3.5415C9.36699 3.5415 10.2087 2.69984 10.2087 1.6665H11.4587C11.4587 2.69984 12.3003 3.5415 13.3337 3.5415V4.7915C12.3003 4.7915 11.4587 5.63317 11.4587 6.6665ZM8.33366 8.5415C6.84199 8.5415 5.62533 7.32484 5.62533 5.83317H4.37533C4.37533 7.32484 3.15866 8.5415 1.66699 8.5415V9.7915C3.15866 9.7915 4.37533 11.0082 4.37533 12.4998H5.62533C5.62533 11.0082 6.84199 9.7915 8.33366 9.7915V8.5415ZM5.00033 10.3748C4.69199 9.8915 4.27949 9.479 3.79199 9.1665C4.27533 8.85817 4.68783 8.44567 5.00033 7.95817C5.30866 8.4415 5.72116 8.854 6.20866 9.1665C5.72533 9.47484 5.31283 9.88734 5.00033 10.3748ZM18.3337 12.7082C15.9212 12.7082 13.9587 10.7457 13.9587 8.33317H12.7087C12.7087 10.7457 10.7462 12.7082 8.33366 12.7082V13.9582C10.7462 13.9582 12.7087 15.9207 12.7087 18.3332H13.9587C13.9587 15.9207 15.9212 13.9582 18.3337 13.9582V12.7082ZM13.3337 15.7665C12.7962 14.7207 11.942 13.8707 10.9003 13.3332C11.9462 12.7957 12.7962 11.9415 13.3337 10.8998C13.8712 11.9457 14.7253 12.7957 15.767 13.3332C14.7212 13.8707 13.8712 14.7248 13.3337 15.7665Z" fill="#13A249"/>
</svg>
