<svg width="20" height="20" viewBox="0 0 20 20" fill="none" xmlns="http://www.w3.org/2000/svg">
<path fill-rule="evenodd" clip-rule="evenodd" d="M11.4587 6.66675H10.2087C10.2087 5.63341 9.36699 4.79175 8.33366 4.79175V3.54175C9.36699 3.54175 10.2087 2.70008 10.2087 1.66675H11.4587C11.4587 2.70008 12.3003 3.54175 13.3337 3.54175V4.79175C12.3003 4.79175 11.4587 5.63341 11.4587 6.66675ZM8.33366 8.54175C6.84199 8.54175 5.62533 7.32508 5.62533 5.83341H4.37533C4.37533 7.32508 3.15866 8.54175 1.66699 8.54175V9.79175C3.15866 9.79175 4.37533 11.0084 4.37533 12.5001H5.62533C5.62533 11.0084 6.84199 9.79175 8.33366 9.79175V8.54175ZM5.00033 10.3751C4.69199 9.89175 4.27949 9.47925 3.79199 9.16675C4.27533 8.85841 4.68783 8.44591 5.00033 7.95841C5.30866 8.44175 5.72116 8.85425 6.20866 9.16675C5.72533 9.47508 5.31283 9.88758 5.00033 10.3751ZM18.3337 12.7084C15.9212 12.7084 13.9587 10.7459 13.9587 8.33341H12.7087C12.7087 10.7459 10.7462 12.7084 8.33366 12.7084V13.9584C10.7462 13.9584 12.7087 15.9209 12.7087 18.3334H13.9587C13.9587 15.9209 15.9212 13.9584 18.3337 13.9584V12.7084ZM13.3337 15.7667C12.7962 14.7209 11.942 13.8709 10.9003 13.3334C11.9462 12.7959 12.7962 11.9417 13.3337 10.9001C13.8712 11.9459 14.7253 12.7959 15.767 13.3334C14.7212 13.8709 13.8712 14.7251 13.3337 15.7667Z" fill="#165830"/>
</svg>
