<svg width="128" height="56" viewBox="0 0 128 56" fill="none" xmlns="http://www.w3.org/2000/svg">
<path d="M45.5233 7.18667L7.18667 45.5233C7.39667 46.3167 7.81667 47.04 8.37667 47.6233C8.96 48.1833 9.68333 48.6033 10.4767 48.8133L48.8367 10.4767C48.3933 8.86667 47.1333 7.60667 45.5233 7.18667ZM27.72 7L7 27.72V34.3233L34.3233 7H27.72ZM11.6667 7C9.1 7 7 9.1 7 11.6667V16.3333L16.3333 7H11.6667ZM44.3333 49C45.6167 49 46.7833 48.4867 47.6233 47.6233C48.4867 46.7833 49 45.6167 49 44.3333V39.6667L39.6667 49H44.3333ZM21.6767 49H28.28L49 28.28V21.6767L21.6767 49Z" fill="#5167F6"/>
<path d="M81.5233 7.18667L43.1867 45.5233C43.3967 46.3167 43.8167 47.04 44.3767 47.6233C44.96 48.1833 45.6833 48.6033 46.4767 48.8133L84.8367 10.4767C84.3933 8.86667 83.1333 7.60667 81.5233 7.18667ZM63.72 7L43 27.72V34.3233L70.3233 7H63.72ZM47.6667 7C45.1 7 43 9.1 43 11.6667V16.3333L52.3333 7H47.6667ZM80.3333 49C81.6167 49 82.7833 48.4867 83.6233 47.6233C84.4867 46.7833 85 45.6167 85 44.3333V39.6667L75.6667 49H80.3333ZM57.6767 49H64.28L85 28.28V21.6767L57.6767 49Z" fill="#5167F6"/>
<path d="M117.523 7.18667L79.1867 45.5233C79.3967 46.3167 79.8167 47.04 80.3767 47.6233C80.96 48.1833 81.6833 48.6033 82.4767 48.8133L120.837 10.4767C120.393 8.86667 119.133 7.60667 117.523 7.18667ZM99.72 7L79 27.72V34.3233L106.323 7H99.72ZM83.6667 7C81.1 7 79 9.1 79 11.6667V16.3333L88.3333 7H83.6667ZM116.333 49C117.617 49 118.783 48.4867 119.623 47.6233C120.487 46.7833 121 45.6167 121 44.3333V39.6667L111.667 49H116.333ZM93.6767 49H100.28L121 28.28V21.6767L93.6767 49Z" fill="#5167F6"/>
</svg>
